<svg xmlns="http://www.w3.org/2000/svg" width="242" height="362" fill="none"><path fill="#fff" stroke="#000" stroke-width="2" d="M201 1H41C18.909 1 1 18.909 1 41v280c0 22.091 17.909 40 40 40h160c22.091 0 40-17.909 40-40V41c0-22.091-17.909-40-40-40z"/><path fill="#55F" d="M201 21H41c-11.046 0-20 8.954-20 20v280c0 11.046 8.954 20 20 20h160c11.046 0 20-8.954 20-20V41c0-11.046-8.954-20-20-20z"/><path fill="#fff" fill-rule="evenodd" d="M181 81C92.634 81 21 152.634 21 241c0 22.091 17.909 40 40 40 88.366 0 160-71.634 160-160 0-22.091-17.909-40-40-40z" clip-rule="evenodd"/><path fill="#55F" d="M117 121c-22.16 0-40 17.84-40 40v4h20v-4c0-11.08 8.92-20 20-20s20 8.92 20 20c0 4.51-3.742 13.361-7.65 16.436-21.219 16.7-20.995 13.942-52.35 35.564v28h80v-28h-20v8h-36c24.76-17.435 26.571-17.012 45.972-34.375C153.189 181.062 157 170.021 157 161c0-22.16-17.84-40-40-40z"/><path fill="#fff" d="M51 31c-11.08 0-20 8.92-20 20v2h10v-2c0-5.54 4.46-10 10-10s10 4.46 10 10c0 2.255-1.871 6.68-3.825 8.218C46.565 67.568 46.678 66.188 31 77v14h40V77H61v4H43c12.38-8.718 13.285-8.506 22.986-17.188C69.094 61.032 71 55.51 71 51c0-11.08-8.92-20-20-20zm140 300c11.08 0 20-8.92 20-20v-2h-10v2c0 5.54-4.46 10-10 10s-10-4.46-10-10c0-2.255 1.871-6.68 3.825-8.218 10.609-8.35 10.498-6.971 26.175-17.782v-14h-40v14h10v-4h18c-12.38 8.717-13.285 8.506-22.986 17.187C172.906 300.969 171 306.49 171 311c0 11.08 8.92 20 20 20z"/></svg>