<svg xmlns="http://www.w3.org/2000/svg" width="242" height="362" fill="none"><path fill="#fff" stroke="#000" stroke-width="2" d="M201 1H41C18.909 1 1 18.909 1 41v280c0 22.091 17.909 40 40 40h160c22.091 0 40-17.909 40-40V41c0-22.091-17.909-40-40-40Z"/><path fill="#5A5" d="M201 21H41c-11.046 0-20 8.954-20 20v280c0 11.046 8.954 20 20 20h160c11.046 0 20-8.954 20-20V41c0-11.046-8.954-20-20-20Z"/><path fill="#fff" fill-rule="evenodd" d="M181 81C92.634 81 21 152.634 21 241c0 22.091 17.909 40 40 40 88.366 0 160-71.634 160-160 0-22.091-17.909-40-40-40Z" clip-rule="evenodd"/><path fill="#5A5" d="M121 121c-16.569 0-30 13.431-30 30h20c0-5.523 4.477-10 10-10s10 4.477 10 10-4.477 10-10 10h-12v20h12c11.08 0 20 8.92 20 20s-8.92 20-20 20-20-8.92-20-20H81c0 22.16 17.84 40 40 40s40-17.84 40-40c0-13.176-6.353-24.72-16.125-32 3.808-5.03 6.125-11.205 6.125-18 0-16.569-13.431-30-30-30Z"/><path fill="#fff" d="M51 31c-8.284 0-15 6.716-15 15h10a5 5 0 1 1 5 5h-6v10h6c5.54 0 10 4.46 10 10s-4.46 10-10 10-10-4.46-10-10H31c0 11.08 8.92 20 20 20s20-8.92 20-20c0-6.588-3.177-12.36-8.063-16C64.841 52.485 66 49.397 66 46c0-8.284-6.716-15-15-15Zm140 300c8.284 0 15-6.716 15-15h-10a5 5 0 1 1-5-5h6v-10h-6c-5.54 0-10-4.46-10-10s4.46-10 10-10 10 4.46 10 10h10c0-11.08-8.92-20-20-20s-20 8.92-20 20c0 6.588 3.177 12.36 8.062 16-1.903 2.515-3.062 5.603-3.062 9 0 8.284 6.716 15 15 15Z"/></svg>