<svg xmlns="http://www.w3.org/2000/svg" width="242" height="362" fill="none"><path fill="#fff" stroke="#000" stroke-width="2" d="M201 1H41C18.909 1 1 18.909 1 41v280c0 22.091 17.909 40 40 40h160c22.091 0 40-17.909 40-40V41c0-22.091-17.909-40-40-40Z"/><path fill="#55F" d="M201 21H41c-11.046 0-20 8.954-20 20v280c0 11.046 8.954 20 20 20h160c11.046 0 20-8.954 20-20V41c0-11.046-8.954-20-20-20Z"/><path fill="#fff" fill-rule="evenodd" d="M181 81C92.634 81 21 152.634 21 241c0 22.091 17.909 40 40 40 88.366 0 160-71.634 160-160 0-22.091-17.909-40-40-40Z" clip-rule="evenodd"/><path fill="#55F" d="M116.2 121 77 201v20h48v20h20v-20h12v-20h-12v-40h-20v40H97.8l39.2-80h-20.8Z"/><path fill="#fff" d="M50.2 31 30.6 71v10h24v10h10V81h6V71h-6V51h-10v20H41l19.6-40H50.2ZM191 331l19.6-40v-10h-24v-10h-10v10h-6v10h6v20h10v-20h13.6l-19.6 40H191Z"/></svg>