<svg xmlns="http://www.w3.org/2000/svg" width="242" height="362" fill="none"><path fill="#fff" stroke="#000" stroke-width="2" d="M201 1H41C18.909 1 1 18.909 1 41v280c0 22.091 17.909 40 40 40h160c22.091 0 40-17.909 40-40V41c0-22.091-17.909-40-40-40Z"/><path fill="#FA0" d="M201 21H41c-11.046 0-20 8.954-20 20v280c0 11.046 8.954 20 20 20h160c11.046 0 20-8.954 20-20V41c0-11.046-8.954-20-20-20Z"/><path fill="#fff" fill-rule="evenodd" d="M181 81C92.634 81 21 152.634 21 241c0 22.091 17.909 40 40 40 88.366 0 160-71.634 160-160 0-22.091-17.909-40-40-40Z" clip-rule="evenodd"/><path fill="#FA0" d="M85 121v60h40c11.08 0 20 8.92 20 20s-8.92 20-20 20-20-8.92-20-20H85c0 22.16 17.84 40 40 40s40-17.84 40-40-17.84-40-40-40h-20v-20h56v-20H85Z"/><path fill="#fff" d="M31 31v30h20c5.54 0 10 4.46 10 10s-4.46 10-10 10-10-4.46-10-10H31c0 11.08 8.92 20 20 20s20-8.92 20-20-8.92-20-20-20H41V41h28V31H31Zm180 300v-30h-20c-5.54 0-10-4.46-10-10s4.46-10 10-10 10 4.46 10 10h10c0-11.08-8.92-20-20-20s-20 8.92-20 20 8.92 20 20 20h10v10h-28v10h38Z"/></svg>