<svg xmlns="http://www.w3.org/2000/svg" width="242" height="362" fill="none"><path fill="#fff" stroke="#000" stroke-width="2" d="M201 1H41C18.909 1 1 18.909 1 41v280c0 22.091 17.909 40 40 40h160c22.091 0 40-17.909 40-40V41c0-22.091-17.909-40-40-40Z"/><path fill="#55F" d="M201 21H41c-11.046 0-20 8.954-20 20v280c0 11.046 8.954 20 20 20h160c11.046 0 20-8.954 20-20V41c0-11.046-8.954-20-20-20Z"/><path fill="#fff" fill-rule="evenodd" d="M181 81C92.634 81 21 152.634 21 241c0 22.091 17.909 40 40 40 88.366 0 160-71.634 160-160 0-22.091-17.909-40-40-40Z" clip-rule="evenodd"/><path fill="#55F" fill-rule="evenodd" d="M121 121c-22.091 0-40 17.909-40 40v40c0 22.091 17.909 40 40 40s40-17.909 40-40-17.909-40-40-40a40.014 40.014 0 0 0-20 5.375V161c0-11.046 8.954-20 20-20 7.817 0 14.46 4.588 17.75 11.125l18-9C150.193 129.988 136.681 121 121 121Zm0 60c11.046 0 20 8.954 20 20s-8.954 20-20 20-20-8.954-20-20 8.954-20 20-20Zm-20 64v8h40v-8h-40Z" clip-rule="evenodd"/><path fill="#fff" fill-rule="evenodd" d="M51 31c-11.046 0-20 8.954-20 20v20c0 11.046 8.954 20 20 20s20-8.954 20-20-8.954-20-20-20c-3.634 0-7.063.993-10 2.688V51c0-5.523 4.477-10 10-10 3.908 0 7.23 2.294 8.875 5.563l9-4.5C65.597 35.492 58.84 31 51 31Zm0 30c5.523 0 10 4.477 10 10s-4.477 10-10 10-10-4.477-10-10 4.477-10 10-10Zm140 270c11.046 0 20-8.954 20-20v-20c0-11.046-8.954-20-20-20s-20 8.954-20 20 8.954 20 20 20c3.634 0 7.063-.994 10-2.688V311c0 5.523-4.477 10-10 10-3.908 0-7.23-2.294-8.875-5.563l-9 4.5C176.403 326.506 183.16 331 191 331Zm0-30c-5.523 0-10-4.477-10-10s4.477-10 10-10 10 4.477 10 10-4.477 10-10 10Z" clip-rule="evenodd"/></svg>