<svg xmlns="http://www.w3.org/2000/svg" width="242" height="362" fill="none"><path fill="#fff" stroke="#000" stroke-width="2" d="M201 1H41C18.909 1 1 18.909 1 41v280c0 22.091 17.909 40 40 40h160c22.091 0 40-17.909 40-40V41c0-22.091-17.909-40-40-40Z"/><path fill="#E80000" d="M201 21H41c-11.046 0-20 8.954-20 20v280c0 11.046 8.954 20 20 20h160c11.046 0 20-8.954 20-20V41c0-11.046-8.954-20-20-20Z"/><path fill="#fff" fill-rule="evenodd" d="M181 81C92.634 81 21 152.634 21 241c0 22.091 17.909 40 40 40 88.366 0 160-71.634 160-160 0-22.091-17.909-40-40-40Z" clip-rule="evenodd"/><path fill="#E80000" d="M121 121c-16.569 0-30 13.431-30 30 0 6.795 2.317 12.97 6.125 18C87.353 176.28 81 187.824 81 201c0 22.16 17.84 40 40 40s40-17.84 40-40c0-13.176-6.353-24.72-16.125-32 3.808-5.03 6.125-11.205 6.125-18 0-16.569-13.431-30-30-30Zm0 20c5.523 0 10 4.477 10 10s-4.477 10-10 10-10-4.477-10-10 4.477-10 10-10Zm-2 40c.674-.068 1.307 0 2 0 11.08 0 20 8.92 20 20s-8.92 20-20 20-20-8.92-20-20c0-10.388 7.89-18.98 18-20Z"/><path fill="#fff" d="M51 31c-8.284 0-15 6.716-15 15 0 3.397 1.159 6.485 3.063 9C34.176 58.64 31 64.412 31 71c0 11.08 8.92 20 20 20s20-8.92 20-20c0-6.588-3.177-12.36-8.063-16C64.841 52.485 66 49.397 66 46c0-8.284-6.716-15-15-15Zm0 10a5 5 0 1 1 0 10 5 5 0 0 1 0-10Zm-1 20c.337-.036.654 0 1 0 5.54 0 10 4.46 10 10s-4.46 10-10 10-10-4.46-10-10c0-5.194 3.945-9.49 9-10Zm141 270c-8.284 0-15-6.716-15-15 0-3.397 1.159-6.485 3.062-9-4.885-3.64-8.062-9.412-8.062-16 0-11.08 8.92-20 20-20s20 8.92 20 20c0 6.588-3.177 12.36-8.062 16 1.903 2.515 3.062 5.603 3.062 9 0 8.284-6.716 15-15 15Zm0-10a5 5 0 1 0-.001-10.001A5 5 0 0 0 191 321Zm-1-20c.337.036.654 0 1 0 5.54 0 10-4.46 10-10s-4.46-10-10-10-10 4.46-10 10c0 5.194 3.945 9.49 9 10Z"/></svg>