<svg xmlns="http://www.w3.org/2000/svg" width="242" height="362" fill="none"><path fill="#fff" stroke="#000" stroke-width="2" d="M201 1H41C18.909 1 1 18.909 1 41v280c0 22.091 17.909 40 40 40h160c22.091 0 40-17.909 40-40V41c0-22.091-17.909-40-40-40Z"/><path fill="#E80000" d="M201 21H41c-11.046 0-20 8.954-20 20v280c0 11.046 8.954 20 20 20h160c11.046 0 20-8.954 20-20V41c0-11.046-8.954-20-20-20Z"/><path fill="#fff" fill-rule="evenodd" d="M181 81C92.634 81 21 152.634 21 241c0 22.091 17.909 40 40 40 88.366 0 160-71.634 160-160 0-22.091-17.909-40-40-40Z" clip-rule="evenodd"/><path fill="#fff" stroke="#000" stroke-width="2.04" d="M133.857 151h-40c-5.523 0-11.155 4.042-12.58 9.03l-20.554 71.94c-1.425 4.987 1.897 9.03 7.42 9.03h40c5.523 0 11.155-4.043 12.58-9.03l20.554-71.94c1.425-4.988-1.897-9.03-7.42-9.03Z"/><path fill="#E80000" d="M121 161h-20c-5.523 0-11.155 4.043-12.58 9.03l-14.84 51.94C72.155 226.957 75.477 231 81 231h20c5.523 0 11.155-4.043 12.58-9.03l14.84-51.94c1.425-4.987-1.897-9.03-7.42-9.03Z"/><path fill="#fff" stroke="#000" stroke-width="2.04" d="M173.857 121h-40c-5.523 0-11.155 4.042-12.58 9.03l-20.554 71.94c-1.425 4.987 1.897 9.03 7.42 9.03h40c5.522 0 11.155-4.043 12.58-9.03l20.554-71.94c1.425-4.988-1.897-9.03-7.42-9.03Z"/><path fill="#E80000" d="M161 131h-20c-5.523 0-11.155 4.043-12.58 9.03l-14.84 51.94c-1.425 4.987 1.897 9.03 7.42 9.03h20c5.523 0 11.155-4.043 12.58-9.03l14.84-51.94c1.425-4.987-1.897-9.03-7.42-9.03Z"/><path fill="#fff" fill-rule="evenodd" d="M35 51v10H25v10h10v10h10V71h10V61H45V51H35Z" clip-rule="evenodd"/><path fill="#fff" d="M81 31c-11.08 0-20 8.92-20 20v2h10v-2c0-5.54 4.46-10 10-10s10 4.46 10 10c0 2.255-1.871 6.68-3.825 8.218C76.565 67.568 76.677 66.188 61 77v14h40V77H91v4H73c12.38-8.718 13.285-8.506 22.986-17.188C99.094 61.032 101 55.51 101 51c0-11.08-8.92-20-20-20Z"/><path fill="#fff" fill-rule="evenodd" d="M207 311v-10h10v-9.999h-10V281h-10v10.001h-10V301h10v10h10Z" clip-rule="evenodd"/><path fill="#fff" d="M161 331c11.08 0 20-8.92 20-20v-2h-10v2c0 5.54-4.46 10-10 10s-10-4.46-10-10c0-2.254 1.871-6.68 3.825-8.218 10.61-8.349 10.498-6.97 26.175-17.782v-14h-40v14h10v-4h18c-12.38 8.718-13.285 8.507-22.986 17.188C142.906 300.97 141 306.49 141 311c0 11.08 8.92 20 20 20Z"/></svg>