<svg xmlns="http://www.w3.org/2000/svg" width="242" height="362" fill="none"><path fill="#fff" stroke="#000" stroke-width="2" d="M201 1H41C18.909 1 1 18.909 1 41v280c0 22.091 17.909 40 40 40h160c22.091 0 40-17.909 40-40V41c0-22.091-17.909-40-40-40Z"/><path fill="#FA0" d="M201 21H41c-11.046 0-20 8.954-20 20v280c0 11.046 8.954 20 20 20h160c11.046 0 20-8.954 20-20V41c0-11.046-8.954-20-20-20Z"/><path fill="#fff" fill-rule="evenodd" d="M181 81C92.634 81 21 152.634 21 241c0 22.091 17.909 40 40 40 88.366 0 160-71.634 160-160 0-22.091-17.909-40-40-40Z" clip-rule="evenodd"/><path fill="#FA0" fill-rule="evenodd" d="M121.125 121c-15.355-.02-30.769 5.8-42.5 17.5-23.462 23.401-23.526 61.413-.125 84.875 23.401 23.462 61.413 23.526 84.875.125 23.462-23.401 23.526-61.413.125-84.875-11.7-11.731-27.02-17.605-42.375-17.625ZM121 141c7 .008 14.031 1.84 20.25 5.5L86.5 201.25c-9.041-15.351-6.947-35.462 6.25-48.625 7.821-7.8 18.013-11.638 28.25-11.625Zm34.5 19.625c9.104 15.363 6.974 35.561-6.25 48.75-13.21 13.176-33.291 15.113-48.625 6l54.875-54.75Z" clip-rule="evenodd"/><path fill="#fff" fill-rule="evenodd" d="M61.062 31c-7.676-.012-15.381 2.9-21.246 8.75-11.728 11.699-11.76 30.703-.062 42.433s30.7 11.761 42.43.062c11.728-11.7 11.76-30.704.062-42.433A29.866 29.866 0 0 0 61.062 31ZM61 40.999c3.5.004 7.014.92 10.123 2.75L43.753 71.12c-4.52-7.675-3.473-17.73 3.124-24.31 3.91-3.9 9.005-5.819 14.123-5.812Zm17.247 9.811c4.55 7.681 3.486 17.78-3.125 24.373-6.604 6.588-16.642 7.556-24.308 3L78.247 50.81ZM181.062 271c-7.676-.012-15.381 2.9-21.246 8.749-11.728 11.699-11.76 30.704-.062 42.434 11.698 11.73 30.701 11.761 42.43.062 11.728-11.699 11.76-30.703.062-42.433-5.849-5.865-13.507-8.802-21.184-8.812Zm-.062 9.999c3.499.004 7.014.92 10.123 2.75l-27.37 27.372c-4.52-7.675-3.473-17.729 3.124-24.31 3.91-3.9 9.006-5.819 14.123-5.812Zm17.247 9.812c4.551 7.68 3.486 17.778-3.125 24.372-6.604 6.588-16.643 7.556-24.308 3l27.433-27.372Z" clip-rule="evenodd"/></svg>