<svg xmlns="http://www.w3.org/2000/svg" width="242" height="362" fill="none"><path fill="#fff" stroke="#000" stroke-width="2" d="M201 1H41C18.909 1 1 18.91 1 41v280c0 22.092 17.909 40 40 40h160c22.091 0 40-17.908 40-40V41c0-22.091-17.909-40-40-40z"/><path fill="#000" d="M201 21H41c-11.046 0-20 8.954-20 20v280c0 11.046 8.954 20 20 20h160c11.046 0 20-8.954 20-20V41c0-11.046-8.954-20-20-20z"/><path fill="#fff" fill-rule="evenodd" d="M181 81C92.634 81 21 152.634 21 241c0 22.091 17.909 40 40 40 88.366 0 160-71.634 160-160 0-22.091-17.909-40-40-40z" clip-rule="evenodd"/><path fill="#FA0" fill-rule="evenodd" d="M32.75 181C25.237 199.542 21 219.763 21 241c0 22.091 17.909 40 40 40l60-100H32.75z" clip-rule="evenodd"/><path fill="#5A5" fill-rule="evenodd" d="M121 181 61 281c67.129 0 124.502-41.389 148.25-100H121z" clip-rule="evenodd"/><path fill="#E80000" fill-rule="evenodd" d="M181 81c-67.129 0-124.502 41.389-148.25 100H121l60-100z" clip-rule="evenodd"/><path fill="#55F" fill-rule="evenodd" d="m181 81-60 100h88.25c7.513-18.542 11.75-38.763 11.75-60 0-22.091-17.909-40-40-40z" clip-rule="evenodd"/><path fill="#FA0" fill-rule="evenodd" d="M33.938 56A39.839 39.839 0 0 0 31 71c0 5.523 4.477 10 10 10l15-25H33.937z" clip-rule="evenodd"/><path fill="#5A5" fill-rule="evenodd" d="M56 56 41 81c16.782 0 31.126-10.347 37.063-25H56z" clip-rule="evenodd"/><path fill="#E80000" fill-rule="evenodd" d="M71 31c-16.782 0-31.126 10.347-37.063 25H56l15-25z" clip-rule="evenodd"/><path fill="#55F" fill-rule="evenodd" d="M71 31 56 56h22.063A39.84 39.84 0 0 0 81 41c0-5.523-4.477-10-10-10z" clip-rule="evenodd"/><path fill="#FA0" fill-rule="evenodd" d="M163.938 306A39.823 39.823 0 0 0 161 321c0 5.523 4.477 10 10 10l15-25h-22.062z" clip-rule="evenodd"/><path fill="#5A5" fill-rule="evenodd" d="m186 306-15 25c16.782 0 31.126-10.347 37.062-25H186z" clip-rule="evenodd"/><path fill="#E80000" fill-rule="evenodd" d="M201 281c-16.782 0-31.126 10.347-37.062 25H186l15-25z" clip-rule="evenodd"/><path fill="#55F" fill-rule="evenodd" d="m201 281-15 25h22.062A39.827 39.827 0 0 0 211 291c0-5.523-4.477-10-10-10z" clip-rule="evenodd"/><path stroke="#fff" stroke-width="4" d="M181 81c-67.129 0-124.502 41.389-148.25 100C25.237 199.542 21 219.763 21 241c0 22.091 17.909 40 40 40 67.129 0 124.502-41.389 148.25-100 7.513-18.542 11.75-38.763 11.75-60 0-22.091-17.909-40-40-40zM71 31c-16.782 0-31.126 10.347-37.063 25A39.84 39.84 0 0 0 31 71c0 5.523 4.477 10 10 10 16.782 0 31.126-10.347 37.063-25A39.84 39.84 0 0 0 81 41c0-5.523-4.477-10-10-10zm130 250c-16.782 0-31.126 10.347-37.062 25A39.823 39.823 0 0 0 161 321c0 5.523 4.477 10 10 10 16.782 0 31.126-10.347 37.062-25A39.823 39.823 0 0 0 211 291c0-5.523-4.477-10-10-10z"/></svg>