<svg xmlns="http://www.w3.org/2000/svg" width="242" height="362" fill="none"><path fill="#fff" stroke="#000" stroke-width="2" d="M201 1H41C18.909 1 1 18.909 1 41v280c0 22.091 17.909 40 40 40h160c22.091 0 40-17.909 40-40V41c0-22.091-17.909-40-40-40z"/><path fill="#E80000" d="M201 21H41c-11.046 0-20 8.954-20 20v280c0 11.046 8.954 20 20 20h160c11.046 0 20-8.954 20-20V41c0-11.046-8.954-20-20-20z"/><g clip-path="url(#a)"><path fill="#000" d="M206.765 207.842v-4.238a39.847 39.847 0 0 1-2.115-5.651c-1.407-2.026-3.052-2.34-4.934-.942a76.827 76.827 0 0 1 2.82 4.945c-2.265 3.369-5.241 5.88-8.929 7.534-6.66 1.431-13.239 1.039-19.738-1.177-.096.89.217 1.596.94 2.119l3.759 1.884a6.854 6.854 0 0 1-2.819 1.883c-4.307.613-8.458.064-12.454-1.648-.601.053-.993.368-1.175.942a11.527 11.527 0 0 0 4.7 2.59c-2.458.865-4.964.865-7.519 0a205.9 205.9 0 0 1-8.694-3.061c-.756.127-1.304.52-1.645 1.177.711.678.868 1.384.47 2.12-4.217 1.779-8.603 2.328-13.159 1.648a340.62 340.62 0 0 0-13.863-3.532 77.493 77.493 0 0 0-14.803 3.532c-3.748.56-7.507.716-11.28.471a11.671 11.671 0 0 1-5.873-1.649 68.402 68.402 0 0 1 2.114-4.002 1.619 1.619 0 0 0-.705-1.178 204.643 204.643 0 0 1-14.803 4.945c-1.88.314-3.76.314-5.64 0l-.47-.471c1.186-.244 2.126-.872 2.82-1.884l-.94-.941-7.049-.471a12.665 12.665 0 0 1-5.639-2.355 5.842 5.842 0 0 0 3.055-1.648c.21-.899-.181-1.449-1.175-1.648a117.006 117.006 0 0 1-13.159-1.413c-3.007-.873-5.514-2.443-7.519-4.709.458-1.14.771-2.318.94-3.532-1.154-2.315-2.642-2.472-4.464-.471-2.43 5.008-2.977 10.188-1.645 15.54h1.88a23.36 23.36 0 0 1 1.88-7.534 22.032 22.032 0 0 0 5.639 3.531 279.09 279.09 0 0 1 10.809 3.297 95.969 95.969 0 0 1 7.284 8.712 907.558 907.558 0 0 0 15.508 23.075c8.945 12.368 20.929 19.745 35.951 22.133 15.021 2.387 38.676-8.918 45.114-17.66a355.811 355.811 0 0 0 18.093-27.077 56.43 56.43 0 0 1 5.875-6.358c8.041.719 14.385-2.186 19.032-8.712l.705 5.651c.553.104 1.022-.053 1.41-.47a35.694 35.694 0 0 0 1.41-3.297z" opacity=".941"/><path fill="#fff" stroke="#000" stroke-width="3" d="M147 157.5c15.815 0 28.5-13.509 28.5-30s-12.685-30-28.5-30-28.5 13.509-28.5 30 12.685 30 28.5 30z"/><path fill="#fff" stroke="#000" stroke-width="3" d="M94 157.5c15.815 0 28.5-13.509 28.5-30s-12.685-30-28.5-30c-15.816 0-28.5 13.509-28.5 30s12.684 30 28.5 30z"/><circle cx="98" cy="127" r="11" fill="#0E0000"/><circle cx="144" cy="127" r="11" fill="#0E0000"/><path fill="#FA0" stroke="#000" stroke-width="3" d="M121.5 207.5c17.275 0 31-15.609 31-34.5s-13.725-34.5-31-34.5-31 15.609-31 34.5 13.725 34.5 31 34.5z"/></g><defs><clipPath id="a"><path fill="#fff" d="M35 96h172v170H35z"/></clipPath></defs></svg>