<svg xmlns="http://www.w3.org/2000/svg" width="1841" height="318" fill="none" viewBox="0 0 1841 318">
  <g clip-path="url(#a)">
    <path fill="#FBFBFB" d="M451.97 82.796c2.026-13.92 3.309-27.56 6.423-40.768 1.138-4.826 5.811-10.076 10.297-12.6 10.244-5.764 21.288-10.159 32.192-14.663 2.728-1.127 6.155-.715 9.262-.744 8.832-.083 17.667-.179 26.496.006 12.779.268 22.406 5.477 28.371 17.4 6.468 12.927 13.678 25.483 20.805 38.646 4.084-7.617 8.374-15.05 12.121-22.746 4.974-10.215 11.375-18.598 22.625-22.658 7.909-2.854 15.459-6.695 23.231-9.947 1.444-.605 3.182-.69 4.786-.7 9.832-.06 19.675.269 29.493-.104 12.859-.49 24.664 5.987 30.091 18.26 5.74-3.074 11.399-6.442 17.342-9.197 6.635-3.075 13.503-5.66 20.33-8.303 1.47-.57 3.197-.659 4.806-.66 46.826-.033 93.653-.092 140.479.01 16.466.035 30.416 12.973 29.953 29.774-.334 12.155-.194 24.33-.031 36.492.182 13.558-6.206 22.708-18.216 28.38-3.172 1.498-6.232 3.231-9.581 4.98 4.996 6.423 4.868 14.192 4.789 22.002-.106 10.498-.332 21.008.05 31.492.505 13.861-5.896 23.067-18.032 28.86-.849.405-1.686.832-2.549 1.984 5.961 0 11.935-.246 17.881.054 10.23.518 19.167 4.171 24.345 13.44 2.337 4.184 3.884 9.315 4.09 14.089.553 12.808.019 25.658.237 38.485.223 13.137-5.443 22.416-17.287 27.965-8.231 3.856-16.371 7.945-24.787 11.346-3.355 1.356-7.345 1.564-11.047 1.572-45.16.1-90.32.042-135.48.087-7.906.008-15.476-1.019-22.558-4.912-1.363-.75-3.855-.682-5.251.072-6.626 3.582-13.684 4.827-21.082 4.821-11.832-.01-23.672.288-35.492-.082-12.688-.397-22.92-5.516-27.945-17.852-1.789-4.394-2.42-9.344-3.047-14.109-1.551-11.791-2.794-23.623-4.196-35.74-9.527 8.752-21.502 12.784-32.724 18.23-12.035 5.841-27.919-.031-33.851-10.58-.129-.229-.523-.308-.769-.443-1.829 10.404-3.23 20.899-5.633 31.158-1.65 7.044-6.51 12.25-13.143 15.413-8.803 4.199-17.569 8.519-26.59 12.2-3.493 1.426-7.627 1.608-11.489 1.727-7.991.248-15.998.202-23.993.035-6.248-.131-12.486-.867-18.732-.914-17.472-.132-34.948-.246-52.417.019-13.485.204-23.818-8.88-27.537-19.921-3.628-10.773-7.299-21.533-11.166-32.22-.34-.937-2.257-1.787-3.475-1.837-4.978-.207-9.968-.086-14.882-.086-2.974 8.727-5.59 17.31-8.831 25.65-2.927 7.53-8.346 12.908-15.909 16.167-8.613 3.711-17.073 7.777-25.655 11.561-1.284.566-2.876.593-4.326.596-15.165.041-30.332.185-45.491-.088-3.767-.068-8.627-.346-11.033-2.605-5.454-5.124-10.785-3.382-16.329-1.68-14.278 4.382-28.778 7.582-43.712 8.355-10.903.563-21.894 1.627-32.729.844-19.775-1.429-38.568-6.831-56.01-16.715-11.298-6.402-21.513-14.057-30.347-23.516-12.377-13.253-21.493-28.454-28.261-45.348-9.688-24.184-11.496-49.413-9.58-74.732 2.272-30.036 12.893-57.23 32.38-80.857 15.56-18.866 36.045-30.23 57.396-40.685 16.148-7.908 32.91-14.396 50.833-15.684 14.481-1.041 29.158.047 43.716.805 15.727.82 30.948 4.608 45.714 9.977 7.666 2.788 15.524 5.597 20.293 13.029 4.032 6.282 6.07 12.833 4.684 20.557-1.325 7.38-1.151 15.023-2.38 22.427-1.618 9.75-.002 20.466-6.988 28.76-2.968 3.524-6.705 6.671-10.666 9.025-6.012 3.574-12.524 6.307-19.736 9.845 12.564 1.231 24.909-2.369 35.682 5.531 4.25-11.689 8.504-23.161 12.596-34.69 6.478-18.25 12.469-36.687 19.512-54.714 1.906-4.88 6.072-9.925 10.57-12.528 9.879-5.717 20.61-9.976 31.058-14.684 1.414-.637 3.206-.59 4.823-.595 11.832-.046 23.674.3 35.492-.103 17.002-.58 27.633 8.787 32.731 24.702 4.243 13.25 9.006 26.334 13.593 39.473 4.796 13.737 9.609 27.468 14.512 41.166 1.991 5.563 4.239 11.033 6.898 17.911.824-4.499 1.501-7.718 1.992-10.966a2582.17 2582.17 0 0 0 3.939-26.978c.747-5.315 1.363-10.65 2.056-16.426Zm-307.483 124.4c-10.381-6.817-16.681-16.465-19.956-28.329-3.789-13.729-4.127-27.648-2.076-41.596 1.49-10.136 4.899-19.652 11.345-27.901 2.425-3.104 5.254-4.652 9.24-4.964 21.537-1.686 42.084 2.372 61.963 10.367 5.372 2.161 10.639 2.77 15.942.189 7.031-3.422 14.037-6.901 20.973-10.511 5.057-2.632 8.192-6.935 8.883-12.566 1.601-13.046 3.116-26.109 4.292-39.198.728-8.099-2.48-13.551-10.01-16.645-30.335-12.462-61.916-16.916-94.398-12.565-28.888 3.87-54.114 17.33-77.589 33.638-9.518 6.613-18.23 15.437-24.877 24.952-29.205 41.804-32.542 87.623-16.39 134.782 13.428 39.203 41.22 64.65 81.331 75.844 25.64 7.156 51.498 5.25 77.14-.205 11.958-2.543 23.669-6.242 35.758-9.489 3.801 6.959 10.173 9.337 18.188 9.159 12.327-.273 24.669.115 36.994-.186 3.714-.091 7.61-1.03 11.044-2.478 6.12-2.58 11.923-5.9 17.911-8.804 5.235-2.539 8.653-6.489 10.518-12.031 2.97-8.829 6.322-17.53 9.237-26.376 1.025-3.108 2.285-4.509 5.873-4.369 8.487.331 17.004.324 25.491.003 3.568-.135 4.79 1.243 5.849 4.36 4.172 12.287 8.644 24.471 13.017 36.689 3.494 9.76 8.255 13.085 18.726 13.12 18.716.063 37.432.145 56.147.187 13.333.029 26.667.103 39.998-.072 2.921-.038 6.064-.523 8.699-1.707 6.974-3.135 13.767-6.686 20.552-10.225 5.563-2.902 8.591-7.536 9.325-13.866 1.416-12.229 3.035-24.436 4.63-36.644.946-7.246 2.006-14.478 3.081-22.183.881.797 1.2.972 1.352 1.24 5.073 8.989 10.117 17.994 15.194 26.981 5.245 9.286 13.547 12.044 23.283 7.548 5.894-2.72 11.604-5.837 17.478-8.599 5.026-2.364 8.667-5.912 11.262-10.861 3.992-7.617 8.339-15.047 12.978-23.348.504 1.723.827 2.456.925 3.219 3.102 24.257 6.158 48.52 9.276 72.776 1.373 10.676 7.025 15.698 17.599 15.74 8.833.035 17.7-.486 26.491.125 12.872.895 24.807-1.225 35.694-8.354.232-.152.621-.063 1.317-.115 3.359 5.481 8.29 8.407 15.122 8.395 48.331-.085 96.663-.015 144.994-.119 2.913-.006 6.056-.561 8.689-1.751 6.969-3.148 13.776-6.676 20.535-10.262 6.288-3.337 9.336-8.666 9.276-15.879-.102-12.166-.019-24.332-.031-36.499-.011-11.408-6.513-17.848-18.049-17.853-26.999-.012-53.998-.004-80.997-.004h-5.454v-14.235c7.372 0 14.563-.615 21.612.123 16.796 1.757 31.93-2.384 45.983-11.333.14-.089.294-.156.445-.228 7.236-3.437 10.636-9.175 10.58-17.168-.084-11.999.033-23.999-.037-35.999-.067-11.457-6.622-17.91-18.091-17.922-19.499-.018-38.998-.006-58.498-.022-.629-.001-1.257-.169-2.195-.304l.212-4.255h5.71c18.666-.001 37.333.096 55.997-.091 3.401-.033 7.035-.657 10.136-1.995 6.711-2.897 13.2-6.332 19.68-9.736 6.425-3.376 9.83-8.606 9.729-16.12-.16-11.997-.039-23.998-.044-35.998-.004-12.183-6.291-18.542-18.36-18.544-40.332-.006-80.676.574-120.99-.278-16.727-.354-31.992 2.13-46.052 11.204-.279.18-.588.312-.887.458-7.319 3.56-10.798 9.193-10.733 17.544.208 27.004.077 54.01.077 81.016a10.305 10.305 0 0 1-1.452-4.059c-4.293-30.47-8.531-60.947-12.844-91.414-1.3-9.189-7.435-14.47-16.688-14.508-10.666-.045-21.426-.9-31.975.213-13.337 1.408-24.558 8.516-34.96 16.677-1.223.96-1.837 2.746-2.62 4.209-6.757 12.625-13.477 25.269-20.234 37.893-1.666 3.114-3.425 6.179-5.43 9.784-1.179-2.094-2.009-3.51-2.786-4.956-9.704-18.034-19.445-36.05-29.072-54.126-2.867-5.382-7.035-9.412-13.099-9.542-21.166-.455-42.816-3.058-61.52 10.764-.132.097-.298.148-.449.217-6.575 3.034-10.23 8.012-11.221 15.326-4.596 33.95-9.374 67.876-14.094 101.809-1.42 10.213-2.862 20.422-4.49 32.023-1.16-2.72-1.804-4.036-2.293-5.407-7.161-20.062-14.295-40.133-21.447-60.199-9.832-27.585-19.653-55.174-29.522-82.746-3.08-8.605-8.095-12.051-17.323-12.096-5.833-.028-11.721.508-17.489-.103-16.73-1.773-31.982 1.99-46.022 11.084-.139.09-.303.14-.453.21-5.227 2.491-8.566 6.421-10.535 11.992-13.026 36.855-26.235 73.645-39.4 110.45-.456 1.276-1.078 2.492-1.623 3.735-.693-2.369-.688-4.529-.694-6.688-.035-12.781-5.938-18.777-18.559-18.795-14.666-.02-29.38.74-43.985-.203-16.385-1.057-31.351 1.931-45.104 10.885-.278.181-.591.31-.892.451-7.399 3.478-11.021 9.205-10.888 17.477.16 9.997-.08 20.001.099 29.997.069 3.843.816 7.674 1.286 11.4 0 0-.07.074-.281-.631Zm-7.524-78.786c-4.086 9.213-4.974 18.881-3.579 22.84 17.872-18.432 39.417-28.191 66.155-25.379-3.491-1.588-6.708-3.037-10.08-3.803-9.558-2.169-19.096-4.782-28.793-5.898-16.711-1.923-18.032-.932-23.529 10.464-.135.28-.091.645-.174 1.776ZM1417.17 301.035c-11.83-6.765-15.15-17.541-15.17-29.897-.03-24.161-.01-48.323-.01-73.703-6.25 17.699-12.13 34.265-17.97 50.848-3.39 9.656-6.17 19.581-10.3 28.905-2.1 4.732-5.82 9.731-10.17 12.274-9.33 5.454-19.44 9.633-29.45 13.814-3.33 1.392-7.32 1.611-11.01 1.659-14 .181-28 .257-42 0-7.8-.143-15.18-1.451-21.8-6.713-6.27-4.987-8.76-11.684-11.26-18.583-7.16-19.721-14.18-39.492-21.28-59.233-.27-.74-.82-1.376-1.2-1.993-5.07 11.687-11.06 22.946-19.88 32.267-7.65 8.08-15.49 16.15-24.21 22.994-7.12 5.583-15.5 9.661-23.61 13.836-9.23 4.747-18.51 9.639-28.27 13.03-9.81 3.409-20.13 5.816-30.42 7.247-9.77 1.359-19.81 1.374-29.71 1.113-17.45-.46-34.05-4.755-50.13-11.729-14.34-6.218-26.939-14.879-38.028-25.562-16.638-16.028-27.785-35.763-34.614-57.658-3.054-9.794-4.425-20.229-5.525-30.485-1.074-10.003-1.703-20.217-.925-30.213.849-10.908 3.201-21.745 5.502-32.483 3.683-17.191 11.761-32.608 21.906-46.664 11.855-16.426 26.98-29.592 45.354-38.531 12.77-6.217 25.57-12.488 38.77-17.705 13.23-5.228 27.21-7.302 41.57-6.962 13.64.324 27.31-.474 40.71 3.064a161.765 161.765 0 0 1 39.83 16.417c.97.562 1.66 1.625 1.94 1.91 7.28-3.85 14.55-7.209 21.33-11.374 12.12-7.458 25.43-7.293 38.84-6.919 9.07.254 18.17.289 27.21 1.049 13.68 1.15 20.51 10.265 24.85 22.239 6.61 18.21 13.52 36.309 20.26 54.47 1.82 4.912 3.5 9.878 5.28 14.906 5.31-14.235 10.64-28.446 15.93-42.671 2.17-5.848 4.53-11.644 6.34-17.607 2.57-8.525 7.46-15.11 15.42-19.027 8.34-4.105 16.82-7.966 25.43-11.472 3.2-1.306 6.93-1.744 10.44-1.819 10.66-.226 21.33-.169 32-.036 3.91.049 7.95.087 11.69 1.069 6.6 1.735 12.85 1.339 19.15-1.036 1.03-.386 2.31-.078 3.48-.078 46.67 0 93.33-.065 139.99.068 7.05.02 13.74 1.906 19.58 7.138 9.8-7.705 21.55-7.336 33.35-7.25 21.5.155 43 .163 64.5.006 17.73-.129 35.36 1.508 52.04 7.308 15.04 5.232 28.54 13.47 38.69 26.633 9.73 12.633 15.47 26.59 17.4 42.272 2.31 18.716 1.73 37.2-5.03 55.058-4.31 11.402-10.69 21.534-19.57 30.014-1.44 1.37-2.6 3.021-4.11 4.799 12.58 23.069 25.53 46.36 38.04 69.89 7.9 14.861 4.93 34.339-12.69 42.136-8.2 3.634-16.18 7.828-24.5 11.159-3.51 1.405-7.64 1.638-11.5 1.708-11.49.21-22.99.186-34.49.037-7.69-.1-15.37-.931-21.24-6.623-3.29-3.194-6.46-6.717-8.84-10.608-4.43-7.23-8.23-14.839-12.99-23.573.42 8.637-1.79 15.26-7.06 20.299-3.63 3.477-7.75 6.725-12.2 9.013-7.34 3.774-15.01 6.963-22.75 9.839-3.42 1.27-7.34 1.542-11.04 1.62-9.99.209-20 .037-30 .083-7.86.035-15.54-.605-22.43-4.989-.72-.46-2.25-.619-2.84-.174-5.81 4.333-12.75 4.989-19.42 5.023-46.99.242-93.99.252-140.99-.044-5.28-.033-10.54-2.445-16.19-3.8ZM974.074 86.585c-3.129 5.683-6.592 11.209-9.329 17.074-11.58 24.809-14.801 51.035-11.917 78.008 4.614 43.153 23.564 77.771 62.102 99.692 27.78 15.803 57.91 18.577 89.05 13.72 20.8-3.244 39.06-12.961 57.19-22.787 25.02-13.567 43.37-33.585 54.26-59.911 4.14-9.988 6.64-20.648 9.95-31.202.54 1.351 1.16 2.793 1.7 4.267 11.32 31.288 22.63 62.58 33.94 93.869 3.52 9.722 8.04 12.946 18.22 12.963 9.83.016 19.72-.683 29.48.16 15.9 1.374 30.15-2.318 43.77-10.419 6.08-3.615 10.23-7.854 12.58-14.614 13.86-39.918 27.99-79.742 42.04-119.594 2.24-6.337 4.53-12.653 6.8-18.979l.99.192v4.698c0 46.662-.01 93.324 0 139.986 0 12.783 5.8 18.567 18.61 18.57 41.33.009 82.65.023 123.98-.007 13.9-.01 28.22 2.068 40.36-8.726 4.78 8.502 12.11 8.963 19.91 8.799 11.5-.242 23 .086 34.49-.16 3.23-.069 6.65-.806 9.61-2.095 6.4-2.791 12.56-6.13 18.81-9.26 6.94-3.478 10.31-9.055 10.24-16.876-.11-12.831-.04-25.663-.02-38.495 0-1.375.15-2.748.3-5.269 1.39 2.287 2.18 3.496 2.88 4.752 10.72 19.186 21.48 38.35 32.11 57.584 3.65 6.602 8.83 9.954 16.56 9.819 13.33-.232 26.66.084 39.99-.17 3.38-.064 6.95-.917 10.07-2.262 6.25-2.701 12.31-5.883 18.35-9.059 10.16-5.345 12.95-14.191 7.61-24.233-8.93-16.751-17.97-33.437-26.96-50.153-5.34-9.914-10.66-19.831-16.04-29.845 17.1-13.898 29.14-30.587 31.67-52.458 1.23-10.651 1.59-21.668.36-32.288-2.96-25.399-15.83-44.485-39.29-55.746-14.37-6.9-29.77-9.637-45.5-9.912-23.99-.42-48.01.325-71.99-.329-13.99-.381-27.17.913-39.04 8.936-.36.24-.94.148-1.63.239-4.01-6.95-10.28-9.044-18.07-9.015-43.33.16-86.66.128-129.99.032-8.22-.018-16.36-.245-21.42 3.508-6.95-1.41-11.97-2.92-17.07-3.34-6.29-.516-12.71.39-18.98-.223-16.35-1.6-31.16 2.125-45.21 10.603-5.88 3.547-10.2 7.513-12.53 14.061-8.58 24.14-17.42 48.19-26.18 72.267-2.04 5.619-4.15 11.214-6.57 17.74-1.04-2.567-1.69-4.07-2.26-5.604-11.97-32.288-23.91-64.59-35.92-96.866-3.17-8.515-8.42-12.07-17.43-12.097-7-.02-14.05.542-20.99-.114-16.17-1.528-30.89 1.951-44.74 10.447-5.26 3.227-10.23 6.23-12.23 12.367-.51-.127-.86-.133-1.12-.293-.7-.44-1.38-.93-2.04-1.426-29.86-22.235-63.39-28.606-99.75-23.545-22.26 3.1-41.68 13.322-61.06 23.652-17.387 9.265-31.42 22.336-42.706 39.368Z"/>
    <path fill="#040404" d="M144.736 207.938c-.438-3.837-1.185-7.668-1.254-11.511-.179-9.996.061-20-.099-29.997-.133-8.272 3.489-13.999 10.888-17.477.301-.141.614-.27.892-.451 13.753-8.954 28.719-11.942 45.104-10.885 14.605.943 29.319.183 43.985.203 12.621.018 18.524 6.014 18.559 18.795.006 2.159.001 4.319.694 6.688.545-1.243 1.167-2.459 1.623-3.735 13.165-36.805 26.374-73.595 39.4-110.45 1.969-5.57 5.307-9.5 10.535-11.991.15-.072.314-.121.453-.211 14.04-9.095 29.292-12.857 46.022-11.084 5.768.611 11.656.075 17.489.103 9.228.045 14.243 3.491 17.323 12.096 9.869 27.572 19.69 55.161 29.522 82.746 7.152 20.066 14.286 40.137 21.447 60.199.489 1.371 1.133 2.687 2.293 5.407 1.628-11.601 3.07-21.81 4.49-32.023 4.72-33.933 9.498-67.859 14.094-101.809.991-7.314 4.646-12.292 11.221-15.326.151-.07.317-.12.449-.218 18.704-13.821 40.354-11.218 61.52-10.763 6.064.13 10.232 4.16 13.099 9.542 9.627 18.076 19.368 36.092 29.072 54.126.777 1.445 1.607 2.862 2.786 4.956 2.005-3.605 3.764-6.67 5.43-9.784 6.757-12.624 13.477-25.268 20.234-37.893.783-1.463 1.397-3.25 2.62-4.209 10.402-8.16 21.623-15.269 34.96-16.677 10.549-1.113 21.309-.258 31.975-.213 9.253.038 15.388 5.32 16.688 14.508 4.313 30.467 8.551 60.944 12.844 91.414a10.305 10.305 0 0 0 1.452 4.059c0-27.006.131-54.012-.077-81.017-.065-8.35 3.414-13.983 10.732-17.543.3-.146.609-.279.888-.458 14.06-9.074 29.325-11.558 46.052-11.204 40.314.852 80.658.272 120.99.278 12.069.002 18.356 6.36 18.36 18.544.005 12-.116 24 .044 35.998.101 7.514-3.304 12.744-9.729 16.12-6.48 3.404-12.969 6.839-19.68 9.736-3.101 1.338-6.735 1.962-10.136 1.995-18.664.187-37.331.09-55.997.091h-5.71l-.212 4.255c.937.135 1.566.303 2.195.304 19.5.016 38.999.004 58.498.022 11.469.012 18.024 6.465 18.091 17.922.07 12-.047 24 .037 35.999.056 7.993-3.344 13.731-10.58 17.168-.151.072-.305.139-.445.228-14.053 8.949-29.187 13.09-45.983 11.333-7.049-.738-14.24-.123-21.612-.123v14.235h5.454c26.999 0 53.998-.008 80.997.004 11.536.005 18.038 6.445 18.049 17.853.012 12.167-.071 24.333.031 36.499.06 7.213-2.988 12.542-9.276 15.879-6.76 3.586-13.566 7.114-20.535 10.262-2.633 1.19-5.777 1.745-8.689 1.751-48.331.104-96.663.034-144.994.119-6.833.012-11.763-2.914-15.122-8.395-.696.052-1.085-.037-1.317.115-10.887 7.129-22.822 9.249-35.694 8.354-8.791-.611-17.658-.09-26.491-.125-10.574-.042-16.226-5.064-17.599-15.74-3.118-24.256-6.174-48.519-9.276-72.776-.098-.763-.421-1.496-.925-3.219-4.639 8.301-8.986 15.731-12.978 23.348-2.595 4.949-6.236 8.497-11.262 10.861-5.875 2.762-11.584 5.879-17.478 8.599-9.736 4.496-18.038 1.738-23.284-7.548-5.076-8.987-10.12-17.992-15.193-26.981-.152-.269-.471-.443-1.352-1.24-1.075 7.705-2.135 14.937-3.082 22.183-1.594 12.208-3.213 24.415-4.63 36.644-.733 6.33-3.761 10.964-9.324 13.866-6.785 3.539-13.578 7.09-20.552 10.225-2.635 1.184-5.778 1.669-8.699 1.707-13.331.175-26.665.101-39.998.072-18.715-.042-37.431-.124-56.147-.187-10.471-.035-15.232-3.36-18.726-13.12-4.373-12.218-8.845-24.402-13.017-36.689-1.059-3.117-2.282-4.495-5.849-4.36-8.487.321-17.004.328-25.491-.003-3.588-.14-4.848 1.261-5.873 4.369-2.915 8.846-6.267 17.547-9.238 26.376-1.864 5.542-5.282 9.492-10.517 12.031-5.988 2.904-11.791 6.224-17.911 8.804-3.434 1.448-7.33 2.387-11.044 2.478-12.325.301-24.667-.087-36.994.186-8.015.178-14.387-2.2-18.188-9.159-12.089 3.247-23.8 6.946-35.758 9.489-25.642 5.455-51.5 7.361-77.14.205-40.112-11.194-67.903-36.641-81.33-75.844-16.153-47.159-12.816-92.978 16.389-134.781 6.648-9.516 15.359-18.34 24.877-24.953 23.475-16.308 48.701-29.768 77.589-33.638 32.482-4.35 64.063.103 94.397 12.565 7.531 3.094 10.739 8.546 10.011 16.645-1.176 13.09-2.691 26.152-4.292 39.198-.691 5.63-3.826 9.934-8.883 12.566-6.936 3.61-13.942 7.089-20.973 10.511-5.303 2.581-10.57 1.972-15.942-.189-19.879-7.995-40.426-12.053-61.963-10.367-3.986.312-6.815 1.86-9.24 4.964-6.446 8.249-9.855 17.765-11.345 27.901-2.051 13.948-1.713 27.867 2.076 41.596 3.275 11.864 9.575 21.512 20.308 28.5.445-.004.538-.178.631-.353l-.734.924Zm564.422 7.283c-1.994-14.159-4.018-28.315-5.978-42.48-5.903-42.669-11.821-85.335-17.601-128.02-.523-3.864-1.849-5.502-5.957-5.39-9.324.255-18.664.233-27.989.002-3.551-.088-5.302 1.313-6.898 4.347-10.461 19.89-21.117 39.676-31.715 59.493-6.096 11.398-12.204 22.789-18.611 34.754-1.143-1.993-1.99-3.389-2.762-4.825-15.996-29.768-32.032-59.515-47.905-89.35-1.718-3.23-3.693-4.545-7.367-4.42-7.656.262-15.327.08-22.992.079-10.048 0-9.888.021-11.264 10.075-5.436 39.709-10.988 79.402-16.484 119.103-4.334 31.301-8.582 62.615-13.048 93.898-.645 4.514.585 5.922 5.123 5.838 12.493-.234 24.995-.206 37.488-.002 3.601.058 5.087-1.22 5.522-4.672 5.051-40.101 10.164-80.194 15.274-120.287.656-5.146 1.387-10.284 2.083-15.425l1.499-.339c1.095 1.683 2.289 3.311 3.272 5.058 15.678 27.854 31.307 55.738 47.04 83.561 1.062 1.879 2.871 3.335 4.332 4.987 1.513-1.589 3.438-2.947 4.478-4.801 16.049-28.605 31.98-57.275 47.95-85.925.858-1.539 1.81-3.024 3.071-5.12.496 2.367.94 3.941 1.146 5.546 5.68 44.21 11.38 88.417 16.91 132.646.454 3.631 1.758 4.798 5.32 4.753 12.495-.159 24.993-.047 37.489-.068 5.369-.009 5.969-.82 5.203-6.194-2.181-15.313-4.309-30.633-6.629-46.822ZM241.534 55.275c2.226-6.306-2.355-7.748-6.695-9.25-24.352-8.43-49.368-12.54-75.111-10.173-35.573 3.271-64.837 18.562-83.467 49.554-23.777 39.556-24.668 81.513-7.337 123.676 11.458 27.875 32.202 46.925 60.629 57.282 18.355 6.687 37.32 7.925 56.612 5.852 20.273-2.18 40.103-6.1 58.782-14.661 2.705-1.239 4.547-2.667 4.531-6.265-.146-31.823-.128-63.647-.031-95.47.012-3.752-1.439-4.944-5.031-4.927-20.327.095-40.655.102-60.981-.006-3.831-.021-5.415 1.317-5.35 5.245.16 9.661.177 19.329-.007 28.989-.075 3.975 1.498 5.283 5.332 5.158 6.43-.209 12.871-.057 19.291-.057v36.253c-11.943.542-23.751 2.149-35.403 1.381-23.078-1.522-40.917-12.369-51.151-33.693-8.481-17.672-9.307-36.543-7.315-55.7 3.849-37.028 27.838-58.677 65.023-58.554 19.706.065 38.635 4.147 56.939 11.324 5.805 2.276 6.449 1.91 7.177-4.338 1.194-10.242 2.324-20.492 3.563-31.62ZM789.5 268.251c34.822 0 69.645-.061 104.467.081 4.169.017 5.497-1.277 5.411-5.416-.23-11.158-.295-22.331.023-33.485.137-4.796-1.303-6.272-6.168-6.241-30.989.201-61.98.103-92.97.103h-5.228v-51.579h5.553c22.493 0 44.986-.076 67.478.068 4.101.026 5.613-1.283 5.535-5.466-.21-11.326-.243-22.662.016-33.986.101-4.417-1.379-5.73-5.743-5.695-22.491.183-44.985.085-67.478.085h-5.23V84.6h5.819c29.824 0 59.648-.072 89.471.079 4.296.022 5.878-1.16 5.768-5.64-.276-11.323-.237-22.66-.013-33.986.079-4.035-1.015-5.515-5.295-5.502-46.152.133-92.304.12-138.456.016-3.918-.009-5.61 1.29-5.218 5.19.083.825.012 1.665.012 2.498v213.432c0 7.563.004 7.564 7.756 7.564h34.49Zm-474.043-160.33-4.028 11.274c-16.72 46.819-33.448 93.635-50.151 140.461-2.825 7.919-2.515 8.288 6.099 8.289 10.995.001 22.001-.291 32.98.129 5.149.197 7.201-1.739 8.771-6.421 5.335-15.912 11.161-31.661 16.788-47.437h70.781c5.802 16.279 11.705 32.36 17.194 48.582 1.381 4.083 3.379 5.329 7.537 5.239 11.989-.259 23.987-.072 35.981-.101 5.906-.014 6.525-.868 4.541-6.431-25.926-72.67-51.894-145.325-77.735-218.025-1.232-3.467-3.032-4.566-6.559-4.506-10.825.183-21.659.218-32.482-.016-3.774-.081-5.676 1.148-6.928 4.748-7.38 21.204-14.963 42.338-22.789 64.215ZM974.279 86.29c11.082-16.736 25.114-29.807 42.501-39.072 19.38-10.33 38.8-20.552 61.06-23.652 36.36-5.061 69.89 1.31 99.75 23.545.66.497 1.34.986 2.04 1.426.26.16.61.166 1.13.294 1.99-6.139 6.96-9.14 12.22-12.368 13.85-8.496 28.57-11.975 44.74-10.447 6.94.656 13.99.093 20.99.114 9.01.027 14.26 3.582 17.43 12.097 12.01 32.276 23.95 64.578 35.92 96.866.57 1.534 1.22 3.037 2.26 5.604 2.42-6.526 4.53-12.121 6.57-17.74 8.76-24.078 17.6-48.127 26.18-72.267 2.33-6.548 6.65-10.514 12.53-14.061 14.05-8.478 28.86-12.202 45.21-10.603 6.27.614 12.69-.293 18.98.223 5.1.42 10.12 1.93 17.07 3.34 5.06-3.753 13.2-3.526 21.42-3.508 43.33.096 86.66.128 129.99-.032 7.79-.029 14.06 2.066 18.07 9.015.69-.091 1.27 0 1.63-.24 11.87-8.022 25.05-9.316 39.04-8.935 23.98.654 48-.09 71.99.33 15.73.274 31.13 3.01 45.5 9.91 23.46 11.263 36.33 30.348 39.29 55.747 1.23 10.62.87 21.637-.36 32.288-2.53 21.871-14.57 38.56-31.67 52.458 5.38 10.014 10.7 19.931 16.04 29.845 8.99 16.716 18.03 33.402 26.96 50.153 5.34 10.042 2.55 18.888-7.61 24.233-6.04 3.176-12.1 6.358-18.35 9.059-3.12 1.345-6.69 2.198-10.07 2.262-13.33.254-26.66-.062-39.99.17-7.73.135-12.91-3.217-16.56-9.819-10.63-19.235-21.39-38.398-32.11-57.584-.7-1.256-1.49-2.465-2.88-4.752-.15 2.521-.29 3.894-.3 5.269-.01 12.832-.09 25.664.02 38.495.07 7.821-3.3 13.398-10.24 16.876-6.25 3.13-12.41 6.469-18.81 9.26-2.96 1.289-6.38 2.026-9.61 2.095-11.49.246-22.99-.082-34.49.16-7.8.164-15.12-.297-19.91-8.799-12.14 10.794-26.46 8.716-40.36 8.726-41.33.03-82.65.016-123.98.007-12.81-.003-18.61-5.787-18.61-18.57-.01-46.662 0-93.324 0-139.986v-4.698l-.99-.192c-2.27 6.326-4.56 12.642-6.8 18.979-14.05 39.852-28.18 79.676-42.04 119.594-2.35 6.76-6.5 10.999-12.58 14.614-13.62 8.101-27.87 11.793-43.77 10.419-9.76-.843-19.65-.144-29.48-.161-10.18-.016-14.7-3.24-18.22-12.962-11.31-31.289-22.62-62.581-33.94-93.869-.54-1.474-1.16-2.916-1.7-4.267-3.31 10.554-5.81 21.214-9.95 31.202-10.89 26.326-29.24 46.344-54.26 59.911-18.13 9.826-36.39 19.543-57.19 22.787-31.14 4.857-61.27 2.083-89.05-13.72-38.538-21.921-57.488-56.539-62.102-99.692-2.884-26.973.337-53.199 11.917-78.008 2.737-5.865 6.2-11.391 9.534-17.37Zm522.801 18.21V84.584h5.81c30 0 60-.077 89.99.084 4.41.023 5.8-1.38 5.71-5.742a770.516 770.516 0 0 1 0-33.995c.09-4.204-1.35-5.369-5.45-5.358-46 .122-92 .118-137.99.007-4.1-.01-5.55 1.224-5.54 5.416.09 72.663.09 145.326.02 217.988-.01 3.749 1.02 5.336 5.1 5.326 47.33-.112 94.66-.11 141.99-.001 4.02.01 5.18-1.437 5.12-5.266-.18-11.163-.33-22.341.06-33.493.18-5.284-1.77-6.369-6.63-6.339-30.83.191-61.66.097-92.49.097h-5.38V171.7h5.76c22.17 0 44.34-.11 66.5.088 4.69.042 6.58-1.172 6.43-6.177-.32-10.99-.29-22.001 0-32.993.12-4.667-1.46-6.015-6.04-5.975-22.5.197-45 .089-67.5.09h-5.47V104.5Zm-224.14 98.059c7.3 20.184 14.73 40.323 21.79 60.59 1.42 4.081 3.42 5.257 7.56 5.184 13.99-.244 28-.347 41.99.045 4.92.138 7-1.628 8.52-6.029 8.84-25.636 17.91-51.196 26.93-76.774 16.37-46.445 32.76-92.883 49.13-139.33 2.06-5.838 1.51-6.548-4.84-6.555-11.84-.013-23.67.203-35.5-.114-4.29-.115-6.05 1.422-7.46 5.338-14.91 41.319-30.01 82.566-45.06 123.833-4.11 11.25-8.21 22.5-12.72 34.874-2.07-5.523-3.7-9.853-5.3-14.191-17.92-48.369-35.87-96.728-53.7-145.13-1.19-3.23-2.57-4.787-6.34-4.71-12.66.256-25.33.152-37.99.064-4.06-.029-5.47 1.205-3.95 5.391a70686.929 70686.929 0 0 1 56.94 157.514Zm386.56 65.689c4 0 8.02-.297 11.98.075 4.92.461 6.32-1.429 6.28-6.237-.2-23.82-.09-47.643-.09-71.466v-5.448c11.28 0 21.76.181 32.22-.098 3.68-.097 5.54 1.094 7.3 4.301 13.81 25.083 27.88 50.019 41.74 75.078 1.58 2.873 3.4 3.921 6.66 3.87 12.16-.189 24.32-.066 36.49-.079 6.62-.007 7.27-1.063 4.19-6.788-10.16-18.911-20.34-37.816-30.51-56.725a60265.76 60265.76 0 0 1-17.2-31.986c2.82-2.065 5.26-3.787 7.63-5.604 15.85-12.159 26.67-27.439 28.59-47.819.7-7.425.91-15.008.27-22.427-2.03-23.693-13.16-41.618-35.93-50.1-10.12-3.772-21.23-6.339-31.98-6.706-29.79-1.016-59.63-.598-89.44-.724-6.63-.028-6.64.013-6.64 6.668v201.405c0 5.164.23 10.341-.07 15.489-.24 4.253 1.44 5.533 5.52 5.392 7.32-.254 14.66-.071 22.99-.071ZM1004.81 86.326c-21.919 38.593-23.74 78.772-8.09 119.68 10.69 27.944 30.68 47.585 58.51 58.841 18.9 7.643 38.62 9.694 58.81 7.466 43.57-4.806 73.69-27.898 90.34-68.049 9.65-23.277 10.66-47.888 7.06-72.661-3.25-22.419-11.76-42.635-26.83-59.701-20.21-22.894-45.99-34.734-76.29-36.349-43.51-2.319-78.9 12.595-103.51 50.773Zm585.68 16.418c-7.89 5.01-16.51 6.221-25.76 5.985-16.82-.428-33.65-.073-50.47-.163-3.23-.017-4.78.767-3.32 4.628h4.83c18.5 0 36.99-.014 55.48.005 11.21.011 17.8 6.432 17.86 17.504.06 12.327-.09 24.656.05 36.982.08 7.692-3.35 12.997-10.08 16.386-4.91 2.468-9.9 4.775-14.69 7.44-5.69 3.162-11.6 4.474-18.15 4.296-11.78-.32-23.58-.09-35.47-.09v13.889h84.89V100.297c-1.82.811-3.16 1.406-5.17 2.447Z"/>
    <path fill="#F7F6EF" d="M709.243 215.657c2.235 15.753 4.363 31.073 6.544 46.386.766 5.374.166 6.185-5.203 6.194-12.496.021-24.994-.091-37.489.068-3.562.045-4.866-1.122-5.32-4.753-5.53-44.229-11.23-88.436-16.91-132.646-.206-1.605-.65-3.179-1.146-5.546-1.261 2.096-2.213 3.581-3.071 5.12-15.97 28.65-31.901 57.32-47.95 85.925-1.04 1.854-2.965 3.212-4.478 4.801-1.461-1.652-3.27-3.108-4.332-4.987-15.733-27.823-31.362-55.707-47.04-83.561-.983-1.747-2.177-3.375-3.272-5.058l-1.499.339c-.696 5.141-1.427 10.279-2.083 15.425-5.11 40.093-10.223 80.186-15.274 120.287-.435 3.452-1.921 4.73-5.522 4.672-12.493-.204-24.995-.232-37.488.002-4.538.084-5.768-1.324-5.123-5.838 4.466-31.283 8.714-62.597 13.048-93.898 5.496-39.701 11.048-79.394 16.484-119.103 1.376-10.053 1.216-10.075 11.264-10.075 7.665 0 15.336.183 22.991-.078 3.675-.126 5.65 1.19 7.368 4.42 15.873 29.834 31.909 59.581 47.905 89.349.772 1.436 1.618 2.832 2.762 4.825 6.407-11.965 12.515-23.356 18.611-34.754 10.598-19.817 21.254-39.604 31.715-59.493 1.596-3.035 3.347-4.435 6.898-4.347 9.325.231 18.665.253 27.989-.001 4.108-.113 5.434 1.525 5.957 5.388 5.78 42.686 11.698 85.352 17.601 128.021 1.96 14.165 3.984 28.321 6.063 42.916Zm-136.782-41.618 21.826 38.794c1.271-2.201 2.11-3.614 2.91-5.048 16.809-30.113 33.589-60.242 50.482-90.307.947-1.685 2.826-2.846 4.271-4.25.953 1.76 2.505 3.436 2.765 5.293 2.173 15.482 4.127 30.995 6.11 46.503 4.029 31.518 8.01 63.042 12.153 94.546.155 1.174 1.776 3.066 2.743 3.085 11.295.217 22.596.139 34.2.139-.135-1.631-.175-2.76-.328-3.873-5.609-40.705-11.221-81.409-16.847-122.112-4.032-29.167-8.139-58.324-12.056-87.507-.486-3.618-1.913-4.667-5.452-4.511-6.487.285-13.006.302-19.491-.003-3.794-.178-5.89.927-7.753 4.456-16.096 30.495-32.403 60.879-48.759 91.236-1.25 2.32-3.355 4.179-5.063 6.252-1.674-2.171-3.684-4.16-4.97-6.541-16.544-30.633-32.958-61.336-49.537-91.95-.791-1.462-2.773-3.156-4.261-3.215-7.987-.317-15.997-.275-23.987-.013-1.172.039-3.122 1.795-3.296 2.967-3.125 21.06-6.054 42.148-8.979 63.237-5.987 43.173-11.948 86.349-17.916 129.525-.99 7.164-1.961 14.331-2.986 21.819h36.483c.37-1.334.821-2.431.967-3.568 2.451-19.141 4.86-38.288 7.286-57.433 3.494-27.566 6.95-55.136 10.582-82.684.249-1.885 1.827-3.594 2.787-5.385 1.468 1.382 3.383 2.51 4.338 4.186 10.553 18.528 20.958 37.141 31.778 56.362Z"/>
    <path fill="#F8F7F0" d="M241.493 55.716c-1.198 10.687-2.328 20.937-3.522 31.18-.728 6.248-1.372 6.613-7.177 4.337-18.304-7.177-37.233-11.259-56.939-11.324-37.185-.123-61.174 21.526-65.023 58.554-1.992 19.157-1.166 38.028 7.315 55.7 10.234 21.324 28.073 32.171 51.151 33.693 11.652.768 23.46-.839 35.404-1.381v-36.253c-6.421 0-12.862-.152-19.292.057-3.834.125-5.407-1.183-5.332-5.158.184-9.66.168-19.328.007-28.989-.065-3.928 1.519-5.266 5.35-5.245 20.327.108 40.654.101 60.981.006 3.592-.017 5.043 1.175 5.032 4.927-.098 31.823-.116 63.647.03 95.47.016 3.598-1.826 5.026-4.531 6.265-18.679 8.561-38.509 12.481-58.782 14.661-19.292 2.073-38.256.835-56.611-5.852-28.428-10.357-49.172-29.407-60.63-57.282-17.33-42.163-16.44-84.12 7.337-123.676 18.63-30.992 47.894-46.283 83.467-49.554 25.743-2.367 50.759 1.742 75.111 10.173 4.34 1.502 8.921 2.944 6.654 9.69Zm-74.469 177.867c-.657-.109-1.31-.258-1.971-.323-28.859-2.875-50.042-20.102-58.21-47.949-6.04-20.59-6.186-41.48-.513-62.133 8.06-29.342 29.335-46.32 59.54-48.383 20.582-1.406 40.443 2.096 59.857 8.706 2.106.717 4.229 1.387 6.73 2.206 1.198-10.076 2.127-19.332 3.475-28.526.547-3.731-.689-5.302-4.129-6.462-21.853-7.373-44.297-11.098-67.3-9.757-33.174 1.935-61.183 14.866-80.493 42.62-22.38 32.163-25.78 68.152-16.38 105.178 9.593 37.785 32.847 64.196 71.222 74.567 34.821 9.41 68.631 2.642 101.678-9.659 3.228-1.202 3.376-3.446 3.369-6.295-.067-28.49-.041-56.981-.041-85.471v-5.079h-59.513v28.092c6.744 0 13.064.104 19.377-.043 3.317-.077 4.998 1.083 4.984 4.557-.047 12.163.133 24.33-.196 36.483-.044 1.635-2.365 4.444-3.863 4.61-12.207 1.347-24.469 2.194-37.624 3.06Z"/>
    <path fill="#F5F4EB" d="M789 268.251h-33.99c-7.752 0-7.756-.001-7.756-7.564V47.255c0-.833.071-1.673-.012-2.498-.392-3.9 1.3-5.199 5.218-5.19 46.152.103 92.304.117 138.456-.016 4.28-.013 5.374 1.467 5.295 5.502-.224 11.326-.263 22.663.013 33.986.11 4.48-1.472 5.662-5.768 5.64-29.823-.151-59.647-.08-89.471-.08h-5.819v42.121h5.23c22.493 0 44.987.098 67.478-.085 4.364-.035 5.844 1.278 5.743 5.695-.259 11.324-.226 22.66-.016 33.986.078 4.183-1.434 5.492-5.535 5.466-22.492-.144-44.985-.068-67.478-.068h-5.553v51.579h5.228c30.991 0 61.981.098 92.97-.103 4.865-.031 6.305 1.445 6.168 6.241-.318 11.154-.253 22.327-.022 33.485.085 4.139-1.243 5.433-5.412 5.416-34.822-.142-69.645-.081-104.967-.081Zm59.5-189.272h41.881V45.391H753.264v217.092h140.257v-33.65h-5.897c-30.492-.001-60.985.003-91.477-.004-6.805-.001-6.912-.118-6.915-7.049-.005-16.496.141-32.994-.089-49.486-.068-4.824 1.525-6.393 6.35-6.35 22.326.199 44.655.093 66.982.077 1.744-.001 3.487-.151 5.036-.223v-33.725h-5.814c-22.328 0-44.656-.072-66.983.065-4.06.025-5.618-1.22-5.557-5.439.199-13.827.238-27.662-.015-41.487-.088-4.848 1.566-6.385 6.372-6.322 17.326.227 34.657.09 52.986.09Z"/>
    <path fill="#F7F6EE" d="M315.613 107.561c7.67-21.517 15.253-42.65 22.633-63.856 1.252-3.599 3.154-4.828 6.928-4.747 10.823.234 21.657.2 32.482.016 3.527-.06 5.327 1.039 6.559 4.506 25.841 72.7 51.809 145.355 77.735 218.025 1.984 5.563 1.365 6.417-4.541 6.431-11.994.029-23.992-.158-35.981.101-4.158.09-6.156-1.156-7.537-5.239-5.489-16.222-11.392-32.303-17.194-48.582h-70.781c-5.626 15.776-11.453 31.525-16.788 47.437-1.57 4.682-3.622 6.618-8.771 6.421-10.979-.42-21.985-.128-32.98-.129-8.614-.001-8.924-.37-6.099-8.289 16.703-46.826 33.431-93.642 50.151-140.461 1.343-3.758 2.685-7.516 4.184-11.634Zm20.234-40.202-69.651 195.059c11.374 0 21.516-.176 31.646.092 3.781.099 5.554-1.051 6.793-4.705 5.024-14.814 10.52-29.468 15.551-44.28 1.358-3.996 3.391-5.362 7.6-5.325 22.324.193 44.651.173 66.976.017 4.101-.029 6.251 1.158 7.633 5.263 5.047 14.982 10.452 29.846 15.887 44.694.588 1.607 2.216 4.002 3.416 4.035 11.284.309 22.579.183 34.606.183-.747-2.207-1.243-3.74-1.785-5.257-11.187-31.358-22.379-62.714-33.57-94.071-13.598-38.098-27.206-76.192-40.772-114.302-.814-2.288-1.406-4.165-4.598-4.095-9.492.206-18.995-.056-28.484.21-1.453.041-3.587 1.606-4.155 2.982-2.539 6.148-4.624 12.483-7.093 19.5Z"/>
    <path fill="#FBFBFB" d="M144.752 207.882c.229-.252.473-.56.718-.868-.093.175-.186.349-.526.705-.246.182-.177.108-.192.163Z"/>
    <path fill="#F8F8F1" d="M1497.08 105v21.733h5.47c22.5-.001 45 .107 67.5-.09 4.58-.04 6.16 1.308 6.04 5.975-.29 10.992-.32 22.003 0 32.993.15 5.005-1.74 6.219-6.43 6.177-22.16-.198-44.33-.088-66.5-.088h-5.76v51.608h5.38c30.83 0 61.66.094 92.49-.097 4.86-.03 6.81 1.055 6.63 6.339-.39 11.152-.24 22.33-.06 33.493.06 3.829-1.1 5.276-5.12 5.266-47.33-.109-94.66-.111-141.99.001-4.08.01-5.11-1.577-5.1-5.326.07-72.662.07-145.325-.02-217.988-.01-4.192 1.44-5.425 5.54-5.416 45.99.111 91.99.115 137.99-.007 4.1-.01 5.54 1.154 5.45 5.358a770.516 770.516 0 0 0 0 33.995c.09 4.362-1.3 5.765-5.71 5.742-29.99-.16-59.99-.084-89.99-.084h-5.81V105Zm-41.92-10.5v167.935h140.73v-33.623h-6.21c-30.66 0-61.31-.076-91.97.082-4.57.024-6.08-1.359-6.02-6.008.24-16.99.24-33.988.01-50.979-.07-4.728 1.65-5.973 6.12-5.938 22.16.173 44.32.079 66.48.079h5.53v-33.992h-5.81c-21.99 0-43.98-.109-65.97.087-4.67.041-6.48-1.156-6.37-6.139.31-13.321.1-26.654.11-39.983 0-7.011.01-7.023 6.85-7.024 29.49-.005 58.98-.002 88.47-.002h5.58V45.319h-137.53V94.5Z"/>
    <path fill="#F8F7F0" d="M1272.84 202.182c-19-52.635-37.88-104.901-56.84-157.137-1.52-4.186-.11-5.42 3.95-5.391 12.66.088 25.33.192 37.99-.065 3.77-.076 5.15 1.48 6.34 4.71 17.83 48.403 35.78 96.762 53.7 145.131 1.6 4.338 3.23 8.668 5.3 14.191 4.51-12.374 8.61-23.624 12.72-34.874 15.05-41.267 30.15-82.514 45.06-123.833 1.41-3.916 3.17-5.453 7.46-5.338 11.82.317 23.66.1 35.5.114 6.35.007 6.9.717 4.84 6.556-16.37 46.446-32.76 92.884-49.13 139.329-9.02 25.578-18.09 51.138-26.93 76.774-1.52 4.401-3.6 6.167-8.52 6.029-13.99-.392-28-.289-41.99-.045-4.14.073-6.14-1.103-7.56-5.184-7.06-20.267-14.49-40.406-21.89-60.967Zm-15.47-59.075c13.85 38.37 27.76 76.719 41.46 115.142 1.3 3.661 3.08 4.726 6.81 4.655 12.16-.231 24.33-.219 36.5-.001 3.4.061 4.86-.969 6-4.233 24.37-69.443 48.87-138.837 73.33-208.244.57-1.623 1.03-3.288 1.68-5.39-10.77 0-20.76.224-30.74-.107-4.23-.14-5.98 1.302-7.41 5.248-19.19 53.082-38.56 106.098-57.98 159.094-.67 1.832-2.35 3.294-3.56 4.928-1.36-1.662-3.28-3.115-4-5.02-5.98-15.717-11.73-31.523-17.57-47.294-13.92-37.634-27.84-75.273-41.88-112.867-.57-1.548-2.3-3.766-3.54-3.798-11.27-.295-22.55-.173-34.52-.173 11.88 32.898 23.51 65.115 35.42 98.06Z"/>
    <path fill="#F6F5ED" d="M1659 268.248c-7.83 0-15.17-.183-22.49.071-4.08.141-5.76-1.139-5.52-5.392.3-5.148.07-10.325.07-15.489V46.033c0-6.655.01-6.696 6.64-6.668 29.81.126 59.65-.292 89.44.724 10.75.367 21.86 2.934 31.98 6.706 22.77 8.482 33.9 26.407 35.93 50.1.64 7.419.43 15.002-.27 22.427-1.92 20.38-12.74 35.66-28.59 47.819-2.37 1.817-4.81 3.539-7.63 5.604a60265.76 60265.76 0 0 0 17.2 31.986c10.17 18.909 20.35 37.814 30.51 56.725 3.08 5.725 2.43 6.781-4.19 6.788-12.17.013-24.33-.11-36.49.079-3.26.051-5.08-.997-6.66-3.87-13.86-25.059-27.93-49.995-41.74-75.078-1.76-3.207-3.62-4.398-7.3-4.301-10.47.279-20.95.098-32.22.098v5.448c0 23.823-.11 47.646.09 71.466.04 4.808-1.37 6.698-6.28 6.237-3.96-.372-7.98-.075-12.48-.075Zm135.74-16.446c-13.41-24.938-26.83-49.872-40.23-74.816-3.33-6.206-3.36-6.305 2.46-10.051 23.12-14.88 34.26-35.792 33.2-63.499-1.17-30.32-15.82-48.916-45.51-55.43-8.72-1.91-17.79-2.855-26.72-2.993-25.49-.395-50.98-.152-76.48-.138-1.44 0-2.87.201-4.36.312v217.269h34.85v-5.772c0-23.662.1-47.325-.08-70.985-.04-4.615 1.49-6.149 6.06-6.053 11.49.241 23 .282 34.49-.024 4.32-.115 6.53 1.502 8.55 5.153 13.66 24.802 27.51 49.5 41.41 74.171.87 1.542 2.62 3.635 4.01 3.672 11.08.302 22.17.169 34.17.169-2.11-3.973-3.79-7.152-5.82-10.985Z"/>
    <path fill="#F7F7EF" d="M1004.99 86.01c24.43-37.862 59.82-52.776 103.33-50.457 30.3 1.615 56.08 13.455 76.29 36.349 15.07 17.066 23.58 37.282 26.83 59.701 3.6 24.773 2.59 49.384-7.06 72.661-16.65 40.151-46.77 63.243-90.34 68.049-20.19 2.228-39.91.177-58.81-7.466-27.83-11.256-47.82-30.897-58.51-58.841-15.65-40.908-13.83-81.087 8.27-119.995Zm109.17 180.878c41.04-5.035 69.67-26.785 85.15-64.926 9.49-23.371 10.42-47.954 6.13-72.717-3.76-21.708-12.52-41.122-27.99-56.969-25.68-26.324-57.62-35.057-93.26-30.482-40.54 5.206-68.71 27.416-83.42 65.575-11.83 30.701-11.593 62.038-.47 92.857 10.79 29.89 31.5 50.501 61.64 61.275 16.65 5.952 33.87 6.635 52.22 5.387Z"/>
    <path fill="#F9F9F9" d="M1590.83 102.521c1.67-.818 3.01-1.413 4.83-2.224v109.309h-84.89v-13.889c11.89 0 23.69-.23 35.47.09 6.55.178 12.46-1.134 18.15-4.296 4.79-2.665 9.78-4.972 14.69-7.44 6.73-3.389 10.16-8.694 10.08-16.386-.14-12.326.01-24.655-.05-36.982-.06-11.072-6.65-17.493-17.86-17.504-18.49-.019-36.99-.005-55.48-.005h-4.83c-1.46-3.861.09-4.645 3.32-4.628 16.82.09 33.65-.265 50.47.163 9.25.236 17.87-.975 26.1-6.208Z"/>
    <path fill="#FFEE03" d="M572.274 173.723c-10.633-18.905-21.037-37.518-31.591-56.046-.955-1.676-2.869-2.804-4.338-4.186-.96 1.791-2.538 3.5-2.787 5.385-3.632 27.548-7.088 55.118-10.581 82.684-2.427 19.145-4.836 38.292-7.287 57.433-.146 1.137-.597 2.234-.967 3.568H478.24c1.025-7.488 1.996-14.655 2.986-21.819 5.968-43.176 11.929-86.352 17.916-129.525 2.925-21.089 5.855-42.178 8.979-63.237.174-1.172 2.125-2.928 3.296-2.967 7.99-.262 16.001-.304 23.987.013 1.488.059 3.47 1.753 4.262 3.215 16.578 30.614 32.992 61.317 49.537 91.95 1.285 2.381 3.296 4.37 4.969 6.541 1.708-2.073 3.813-3.932 5.063-6.252 16.356-30.357 32.663-60.74 48.759-91.236 1.863-3.529 3.959-4.634 7.753-4.456 6.485.305 13.004.288 19.491.003 3.539-.156 4.966.894 5.452 4.511 3.917 29.183 8.024 58.34 12.056 87.507 5.626 40.703 11.238 81.407 16.847 122.112.153 1.113.193 2.242.328 3.873-11.604 0-22.905.078-34.2-.139-.967-.019-2.588-1.911-2.743-3.085-4.143-31.504-8.123-63.028-12.153-94.546-1.983-15.508-3.937-31.021-6.11-46.503-.26-1.857-1.812-3.533-2.765-5.293-1.445 1.404-3.324 2.565-4.27 4.25-16.894 30.065-33.674 60.194-50.483 90.307-.8 1.434-1.639 2.847-2.91 5.048-7.505-13.34-14.665-26.067-22.013-39.11ZM167.479 233.65c12.7-.933 24.962-1.78 37.169-3.127 1.498-.166 3.819-2.975 3.863-4.61.329-12.153.149-24.32.196-36.483.014-3.474-1.667-4.634-4.984-4.557-6.313.147-12.633.043-19.377.043v-28.092h59.513v5.079c0 28.49-.026 56.981.041 85.471.007 2.849-.141 5.093-3.369 6.295-33.047 12.301-66.857 19.069-101.678 9.659-38.375-10.371-61.63-36.782-71.222-74.567-9.4-37.027-6-73.016 16.379-105.18 19.31-27.753 47.319-40.684 80.493-42.619 23.003-1.341 45.447 2.384 67.3 9.756 3.44 1.161 4.676 2.732 4.129 6.463-1.348 9.194-2.277 18.45-3.475 28.526-2.501-.819-4.624-1.489-6.73-2.206-19.414-6.61-39.275-10.112-59.857-8.706-30.205 2.063-51.48 19.04-59.54 48.383-5.673 20.653-5.527 41.543.513 62.133 8.168 27.847 29.351 45.074 58.21 47.949.661.065 1.314.214 2.426.39Z"/>
    <path fill="#FFEE02" d="M848 78.98c-17.829 0-35.16.137-52.486-.09-4.806-.063-6.461 1.474-6.372 6.322.253 13.825.214 27.66.014 41.487-.061 4.219 1.497 5.464 5.558 5.439 22.327-.137 44.655-.065 66.983-.065h5.814v33.725c-1.549.072-3.292.222-5.036.223-22.327.016-44.656.122-66.982-.077-4.825-.043-6.418 1.526-6.35 6.35.23 16.492.084 32.99.089 49.486.003 6.931.11 7.048 6.915 7.049 30.492.007 60.984.003 91.477.004h5.897v33.65H753.264V45.391H890.38v33.588H848Z"/>
    <path fill="#FFEE03" d="M335.957 66.984c2.359-6.642 4.445-12.977 6.983-19.125.569-1.376 2.702-2.941 4.155-2.982 9.489-.266 18.992-.004 28.485-.21 3.191-.07 3.783 1.806 4.597 4.095 13.566 38.11 27.174 76.204 40.772 114.303a749044.68 749044.68 0 0 1 33.571 94.07c.541 1.517 1.037 3.05 1.785 5.257-12.027 0-23.323.126-34.606-.183-1.201-.033-2.828-2.428-3.417-4.035-5.435-14.848-10.839-29.712-15.886-44.694-1.383-4.105-3.533-5.292-7.634-5.263-22.325.156-44.652.176-66.976-.017-4.209-.037-6.242 1.329-7.6 5.325-5.031 14.812-10.527 29.466-15.551 44.28-1.239 3.654-3.012 4.804-6.793 4.705-10.13-.268-20.272-.092-31.646-.092a644587.28 644587.28 0 0 0 69.761-195.434Zm46.563 90.989c-.498-1.413-.991-2.827-1.494-4.238-5.47-15.358-10.894-30.732-16.489-46.044-.548-1.5-2.01-2.826-3.376-3.743-.311-.209-2.553 1.418-2.955 2.54-7.511 20.987-14.883 42.023-22.273 63.053-1.112 3.165-.036 4.784 3.404 4.78 14.651-.017 29.303-.015 43.955-.004 3.451.003 4.479-1.643 3.368-4.802a940.913 940.913 0 0 0-4.14-11.542ZM1455.16 94V45.319h137.53v33.676h-5.58c-29.49 0-58.98-.003-88.47.002-6.84.001-6.85.013-6.85 7.024-.01 13.329.2 26.662-.11 39.983-.11 4.983 1.7 6.18 6.37 6.139 21.99-.196 43.98-.087 65.97-.087h5.81v33.992h-5.53c-22.16 0-44.32.094-66.48-.079-4.47-.035-6.19 1.21-6.12 5.938.23 16.991.23 33.989-.01 50.979-.06 4.649 1.45 6.032 6.02 6.008 30.66-.158 61.31-.082 91.97-.082h6.21v33.623h-140.73V94Zm-197.93 48.743c-11.77-32.581-23.4-64.798-35.28-97.696 11.97 0 23.25-.122 34.52.173 1.24.032 2.97 2.25 3.54 3.798 14.04 37.594 27.96 75.233 41.88 112.867 5.84 15.771 11.59 31.577 17.57 47.294.72 1.905 2.64 3.358 4 5.02 1.21-1.634 2.89-3.096 3.56-4.928 19.42-52.996 38.79-106.012 57.98-159.093 1.43-3.947 3.18-5.389 7.41-5.248 9.98.33 19.97.106 30.74.106-.65 2.102-1.11 3.767-1.68 5.39-24.46 69.407-48.96 138.801-73.33 208.244-1.14 3.264-2.6 4.294-6 4.233-12.17-.218-24.34-.23-36.5.001-3.73.071-5.51-.994-6.81-4.655-13.7-38.423-27.61-76.772-41.6-115.506Z"/>
    <path fill="#FFEE02" d="M1794.91 252.129c1.86 3.506 3.54 6.685 5.65 10.658-12 0-23.09.133-34.17-.169-1.39-.037-3.14-2.13-4.01-3.672-13.9-24.671-27.75-49.369-41.41-74.171-2.02-3.651-4.23-5.268-8.55-5.153-11.49.306-23 .265-34.49.024-4.57-.096-6.1 1.438-6.06 6.053.18 23.66.08 47.323.08 70.985v5.772h-34.85V45.187c1.49-.11 2.93-.311 4.36-.312 25.5-.014 50.99-.257 76.48.138 8.93.138 18 1.082 26.72 2.993 29.69 6.514 44.34 25.11 45.51 55.43 1.06 27.707-10.08 48.619-33.2 63.499-5.82 3.746-5.79 3.845-2.46 10.051 13.4 24.944 26.82 49.878 40.4 75.143Zm-58.92-110.49c11.16-5.637 15.69-15.539 16.62-27.211 1.64-20.568-5.57-37.202-28.79-39.44-15.84-1.528-31.86-1.248-47.8-1.676-3.66-.098-4.1 2.475-4.1 5.466.06 20.972.09 41.943-.02 62.914-.02 3.81 1.2 5.399 5.17 5.336 11.65-.185 23.35.505 34.94-.319 7.84-.558 15.54-3.093 23.98-5.07Zm-622.3 125.301c-17.88 1.196-35.1.513-51.75-5.439-30.14-10.774-50.85-31.385-61.64-61.275-11.123-30.819-11.36-62.156.47-92.857 14.71-38.159 42.88-60.369 83.42-65.575 35.64-4.575 67.57 4.158 93.26 30.482 15.47 15.847 24.23 35.261 27.99 56.969 4.29 24.763 3.36 49.346-6.13 72.717-15.48 38.141-44.11 59.891-85.62 64.978Zm41.75-163.849c-11.55-18.374-28.5-26.842-49.87-28.531-32.33-2.555-58.86 14.418-68.79 45.214-6.55 20.301-6.72 40.945-2.03 61.608 6.56 28.868 27.04 49.589 57.92 52.237 27.51 2.359 53.28-8.125 66.53-35.132 8.25-16.813 9.79-34.746 8.82-53.07-.78-14.842-4.35-28.911-12.58-42.326Z"/>
    <path fill="#F8F7F1" d="M382.672 158.334c1.432 3.967 2.718 7.571 3.988 11.181 1.111 3.159.083 4.805-3.368 4.802-14.652-.011-29.304-.013-43.955.004-3.44.004-4.516-1.615-3.404-4.78 7.39-21.03 14.761-42.066 22.273-63.053.402-1.122 2.644-2.749 2.955-2.54 1.366.917 2.828 2.243 3.376 3.743 5.595 15.312 11.019 30.686 16.489 46.044.503 1.411.996 2.825 1.646 4.599Zm-38.718 5.091-1.756 5.217h38.297l-19.318-54.059c-5.98 16.891-11.502 32.489-17.223 48.842Z"/>
    <path fill="#F4F3EB" d="M1735.65 141.802c-8.1 1.814-15.8 4.349-23.64 4.907-11.59.824-23.29.134-34.94.319-3.97.063-5.19-1.525-5.17-5.336.11-20.971.08-41.942.02-62.914 0-2.991.44-5.564 4.1-5.466 15.94.428 31.96.148 47.8 1.676 23.22 2.238 30.43 18.872 28.79 39.44-.93 11.672-5.46 21.574-16.96 27.374Zm11.45-32.305c-.09-15.952-5.45-24.622-18.12-27.955-16.83-4.424-34.01-1.933-51.06-2.57v61.311c14.49 0 28.83.952 42.98-.24 17.93-1.51 25.97-11.5 26.2-30.546Z"/>
    <path fill="#F6F6EF" d="M1155.64 103.398c8.03 13.108 11.6 27.177 12.38 42.019.97 18.324-.57 36.257-8.82 53.07-13.25 27.007-39.02 37.491-66.53 35.132-30.88-2.648-51.36-23.369-57.92-52.237-4.69-20.663-4.52-41.307 2.03-61.608 9.93-30.796 36.46-47.769 68.79-45.214 21.37 1.69 38.32 10.156 50.07 28.838Zm-74.61-21.139c-20.93 6.392-33.55 20.837-39.68 41.358-5.3 17.757-5.49 35.805-1.87 53.861 2.49 12.425 7.4 23.862 16.26 33.204 12.95 13.657 29.28 18.284 47.61 17.543 23.15-.936 41.02-10.982 50.67-32.18 12.72-27.958 12.46-56.614-.32-84.616-7.34-16.083-20.2-26.255-37.68-29.934-11.39-2.398-22.84-2.263-34.99.764Z"/>
    <path fill="#060606" d="M344.053 163.048a26908.031 26908.031 0 0 1 17.124-48.465l19.318 54.059h-38.297c.612-1.819 1.184-3.518 1.855-5.594Z"/>
    <path fill="#030303" d="M1747.1 109.965c-.23 18.578-8.27 28.568-26.2 30.078-14.15 1.192-28.49.24-42.98.24V78.972c17.05.637 34.23-1.854 51.06 2.57 12.67 3.333 18.03 12.003 18.12 28.423Zm-35.08 5.977c-1.44-9.787-4.19-11.469-20.81-12.548v24.799c3.78 0 7.24.002 10.7 0 10.95-.005 10.95-.005 10.11-12.251Z"/>
    <path fill="#040404" d="M1081.43 82.177c11.75-2.945 23.2-3.08 34.59-.682 17.48 3.679 30.34 13.851 37.68 29.934 12.78 28.002 13.04 56.658.32 84.616-9.65 21.198-27.52 31.244-50.67 32.18-18.33.741-34.66-3.886-47.61-17.543-8.86-9.342-13.77-20.779-16.26-33.204-3.62-18.056-3.43-36.104 1.87-53.861 6.13-20.521 18.75-34.966 40.08-41.44Zm32.4 129.281c2.88-4.834 6.6-9.362 8.5-14.556 7.83-21.381 8-43.017-.14-64.367-6.53-17.11-18.97-27.043-37.55-28.177-18.61-1.136-20.13-1.339-28.29 17.203-7.44 16.898-7.7 34.973-3.81 52.898 6.4 29.49 24.15 42.578 54.13 40.227 2.26-.178 4.42-1.766 7.16-3.228Z"/>
    <path fill="#F9F9F9" d="M1712.05 116.392c.81 11.796.81 11.796-10.14 11.801-3.46.002-6.92 0-10.7 0v-24.799c16.62 1.079 19.37 2.761 20.84 12.998Z"/>
    <path fill="#FBFBFB" d="M1113.56 211.723c-2.47 1.197-4.63 2.785-6.89 2.963-29.98 2.351-47.73-10.737-54.13-40.227-3.89-17.925-3.63-36 3.81-52.898 8.16-18.542 9.68-18.339 28.29-17.203 18.58 1.134 31.02 11.067 37.55 28.177 8.14 21.35 7.97 42.986.15 64.367-1.91 5.194-5.63 9.722-8.78 14.821Zm-23.49-94.692c-4.9-.341-9.81-.76-14.72-.963-1.11-.046-2.82.321-3.27 1.08-2.52 4.287-5.54 8.517-6.91 13.2-3.74 12.873-4.31 26.096-2.15 39.365 1.57 9.577 4.91 18.641 11.87 25.42 8.04 7.816 18.61 8.612 29.26 7.763.94-.075 1.98-1.306 2.63-2.24 7.17-10.277 8.47-22.251 9.04-34.191.3-6.283-.69-12.743-1.92-18.959-2.73-13.698-8.31-25.5-23.83-30.475Z"/>
  </g>
  <defs>
    <clipPath id="a">
      <path fill="#fff" d="M0 0h1841v318H0z"/>
    </clipPath>
  </defs>
</svg>
