<svg xmlns="http://www.w3.org/2000/svg" width="898" height="307" fill="none"><path fill="#fff" fill-rule="evenodd" d="M268.934 301.296h-.095l-16.217.023 16.312-.023zM765.21 136.141c4.825 16.465 4.6 32.694-1.052 48.629-2.715 7.657-4.698 8.861-5.006 9.035-.437.246-2.686 1.276-10.903-.169-11.95-2.101-19.138-8.322-23.119-19.619-6.054-17.177-6.02-34.397.031-51.644.857-2.443 2.45-5.019 5.251-9.265l.668-.056c9.833-.779 16.937 1.227 21.984 4.642 5.016 3.393 9.417 9.135 12.146 18.447z" clip-rule="evenodd"/><path fill="#fff" fill-rule="evenodd" d="M214.4 10.98a31.31 31.31 0 0 0-4.763-2.688c-5.814-2.645-11.806-3.281-16.993-3.256-6.823.033-13.645.073-20.458.114h-.005c-33.052.197-65.874.391-98.641-.293-18.576-.387-36.32 2.786-53.561 12.826-5.28 3.075-10.485 7.152-14.238 13.045C1.875 36.798.338 43.544.38 50.594c.165 27.652.14 55.314.113 83.23v.002C.483 144.182.473 154.572.473 165c0 9.766.024 19.489.046 29.163v.009c.057 24.262.113 48.21-.188 72.134-.114 9.1 2.404 18.408 9.272 25.443 6.92 7.088 16.247 9.814 25.566 9.713 43.046-.465 86.113-.437 129.181-.009 9.829.098 20.886-.53 31.823-4.938 7.149 4.354 15.118 4.846 20.553 4.842 11.966-.008 23.932-.022 35.896-.038l16.217-.023h.416c41.692-.059 83.349-.117 125.002-.012.79.002 1.607.02 2.601.042h.006l.27.007c2.206.05 5.367.123 8.633-.201 3.21-.318 8.338-.958 13.335-3.211 5.876-2.651 11.563-5.572 16.861-8.294l.152-.078c1.12-.576 2.224-1.143 3.326-1.706 9.876-5.046 16.293-13.791 17.689-25.208.711-5.819 1.459-11.64 2.219-17.495 3.38 3.484 7.53 6.278 12.495 7.894 8.276 2.692 16.661 1.408 24.007-1.962.925-.425 1.861-.848 2.842-1.291l.394-.178c4.853-2.194 10.871-4.914 16.49-8.566a55.393 55.393 0 0 0 6.658-5.093c1.563 12.288 3.117 24.571 4.648 36.856.935 7.493 3.918 14.963 10.061 20.547 6.191 5.628 13.991 7.885 21.746 7.92 13.672.062 27.441.099 41.233-.055 3.833-.043 9.147-.58 14.27-2.909 7.479-3.399 14.789-7.086 21.921-10.948 4.297-2.327 8.065-5.445 10.969-9.334 32.166 24.717 70.078 31.725 110.771 26.414 29.094-3.797 53.762-17.267 75.581-30.901 24.742-15.462 42.146-37.628 52.605-64.399 11.2-28.664 13.396-58.233 8.858-87.781C882.044 37.644 811.061-8.699 732.146 2.46c-25.353 3.585-47.181 14.88-66.594 25.28-15.876 8.506-29.07 19.493-39.809 32.577a7516.48 7516.48 0 0 0-3.908-27.953c-1.785-12.561-11.647-26.926-28.586-27.086-3.083-.03-6.214-.137-9.569-.253l-1.417-.05c-16.164-.572-37.748-1.337-57.125 12.31-8.502 3.79-14.298 10.063-18.145 17.464-3.942 7.584-7.958 15.138-12.014 22.72-6.183-11.46-12.235-22.713-18.194-34.006-2.771-5.25-6.69-10.198-12.335-13.692-5.717-3.539-12.051-4.874-18.424-4.742-4.759.098-9.551.08-14.559.059h-.095c-5.127-.021-10.486-.043-15.874.08-4.628.105-9.921 1.003-14.87 3.2-6.048 2.684-11.885 5.676-17.294 8.45h-.001l-.169.087c-1.151.59-2.283 1.17-3.413 1.746-9.597 4.892-16.037 13.427-17.583 24.527a78986.782 78986.782 0 0 0-9.461 68.195l-.056.401-.019.135c-1.709 12.348-3.419 24.694-5.131 37.039-1.677 12.084-3.363 24.169-5.046 36.234l-.01.074-.473 3.39h-35.444l.003-33.112v-.002c.003-39.051.007-78.108-.018-117.167-.005-8.521-2.32-17.43-9.048-24.17-6.727-6.737-15.618-9.05-24.081-9.069-2.412-.005-4.801.04-7.011.083l-.071.001c-4.875.093-8.918.159-12.814-.135-12.917-.974-26.279.182-39.088 5.904zm496.607 106.428c1.601-4.565 4.372-8.759 7.1-12.887.486-.735.97-1.467 1.445-2.199.731-1.124 2.024-1.883 3.316-2.642.591-.347 1.181-.694 1.718-1.076l1.426-.141c1.557-.155 2.719-.271 3.882-.364 24.954-1.978 42.679 9.827 49.711 33.824 5.663 19.324 5.454 38.791-1.309 57.861-6.216 17.526-14.333 21.845-32.644 18.625-17.358-3.052-28.913-13.071-34.67-29.407-7.199-20.429-7.145-41.16.025-61.594z" clip-rule="evenodd"/><path fill="#040404" fill-rule="evenodd" d="M15.493 133.838c-.01 10.357-.02 20.741-.02 31.162 0 9.749.023 19.458.046 29.137.057 24.243.113 48.302-.189 72.358-.158 12.639 6.95 20.106 19.677 19.968 43.16-.466 86.331-.439 129.492-.009 11.974.119 23.182-1.024 33.385-7.657.135-.088.336-.073.652-.049a9.1 9.1 0 0 0 .705.031c3.853 6.454 10.217 7.584 17.475 7.578 17.506-.012 35.012-.037 52.518-.061 41.687-.059 83.374-.117 125.061-.012.966.002 1.934.024 2.902.046h.001c2.372.054 4.745.107 7.089-.125 2.929-.29 6.001-.764 8.648-1.958 5.526-2.492 10.927-5.267 16.325-8.04 1.119-.575 2.237-1.149 3.356-1.721 5.582-2.852 8.853-7.358 9.624-13.67.912-7.461 1.883-14.914 2.853-22.367l.001-.007.399-3.06.361-2.778c.914-7.052 1.837-14.103 2.817-21.591l.003-.019.635-4.855.735-5.623c1.884 3.347 3.694 6.568 5.454 9.702l.003.005c3.869 6.886 7.501 13.35 11.163 19.797 5.149 9.066 13.396 11.793 22.932 7.418.969-.445 1.943-.885 2.917-1.325 5.105-2.309 10.236-4.628 14.889-7.653 4.153-2.699 8.073-6.386 10.812-10.49 3.385-5.073 6.291-10.464 9.338-16.117a521.016 521.016 0 0 1 4.06-7.436c.186.897.361 1.671.518 2.368.291 1.296.522 2.322.655 3.359l.405 3.165c2.883 22.542 5.766 45.084 8.578 67.635 1.217 9.756 7.161 15.279 16.989 15.323 13.666.062 27.333.099 40.998-.054 2.764-.031 5.752-.438 8.231-1.565 7.115-3.234 14.111-6.76 20.985-10.483 7.52-4.072 10.469-11.06 8.715-19.387-.241-1.146-.383-2.314-.556-3.749-.091-.75-.191-1.574-.318-2.505.61.537 1.103.956 1.515 1.306.7.595 1.166.991 1.582 1.435 31.711 33.846 71.217 44.141 116.004 38.296 25.731-3.358 48.106-15.333 69.573-28.748 21.791-13.617 37.202-33.126 46.583-57.136 10.121-25.905 12.192-52.767 8.003-80.046-11.51-74.963-74.4-116.419-145.825-106.319-22.404 3.168-42.087 13.19-61.611 23.65-24.715 13.241-42.157 33.225-53.504 58.71-.35.785-.755 1.545-1.306 2.58l-.002.003c-.309.58-.665 1.247-1.082 2.053-.207-1.427-.395-2.705-.568-3.886l-.001-.007-.002-.012c-.335-2.284-.617-4.203-.883-6.124-.862-6.214-1.718-12.429-2.574-18.643-1.891-13.724-3.782-27.447-5.73-41.162-1.106-7.783-6.675-14.129-13.877-14.197-3.303-.031-6.623-.146-9.946-.261-17.389-.602-34.842-1.207-50.267 10.167-.33.244-.723.408-1.111.57l-.003.002c-.076.031-.151.063-.225.095-5.112 2.193-8.669 5.847-11.253 10.818-5.541 10.66-11.219 21.248-16.896 31.837l-.004.007-.004.007c-1.873 3.494-3.747 6.99-5.616 10.487-.531.993-1.105 1.962-1.771 3.085-.338.573-.701 1.184-1.093 1.86-3.089-5.743-6.149-11.41-9.183-17.029-7.56-14.002-14.954-27.696-22.216-41.459-3.738-7.083-9.104-10.604-17.183-10.438-4.975.103-9.953.083-14.93.063-5.19-.021-10.379-.042-15.566.076-3.069.07-6.338.676-9.127 1.913-5.662 2.514-11.185 5.345-16.705 8.176-1.148.588-2.296 1.177-3.445 1.763-5.415 2.76-8.696 7.185-9.538 13.231a82187.832 82187.832 0 0 0-9.46 68.184c-1.735 12.526-3.469 25.052-5.206 37.578-1.678 12.091-3.365 24.181-5.048 36.246-.763 5.47-1.526 10.934-2.286 16.391h-63.497v-5.777l.003-42.339c.003-39.051.007-78.103-.018-117.155-.007-11.908-6.373-18.224-18.16-18.249a318.13 318.13 0 0 0-6.765.081c-4.754.09-9.508.181-14.228-.175-14.171-1.068-27.51.89-39.571 8.907-.239.16-.559.197-.939.242a8.058 8.058 0 0 0-.64.095c-4.089-7.189-10.503-9.279-18.494-9.24-6.815.033-13.63.073-20.445.114-33.019.196-66.042.393-99.044-.296-16.53-.345-31.39 2.458-45.7 10.791-8.106 4.72-12.204 10.369-12.147 19.86.165 27.712.14 55.425.113 83.333zM722.868 99.68c.591-.347 1.181-.694 1.718-1.076l1.426-.141c1.557-.155 2.719-.271 3.882-.364 24.954-1.978 42.679 9.827 49.711 33.824 5.663 19.324 5.454 38.791-1.309 57.861-6.216 17.526-14.333 21.845-32.644 18.625-17.358-3.052-28.913-13.071-34.67-29.407-7.199-20.429-7.145-41.16.025-61.594 1.601-4.565 4.372-8.759 7.1-12.887.486-.735.97-1.467 1.446-2.199.73-1.124 2.023-1.883 3.315-2.642z" clip-rule="evenodd"/><path fill="#040404" fill-rule="evenodd" d="M15.493 133.838c-.01 10.357-.02 20.741-.02 31.162 0 9.749.023 19.458.046 29.137.057 24.243.113 48.302-.189 72.358-.158 12.639 6.95 20.106 19.677 19.968 43.16-.466 86.331-.439 129.492-.009 11.974.119 23.182-1.024 33.385-7.657.135-.088.336-.073.652-.049a9.1 9.1 0 0 0 .705.031c3.853 6.454 10.217 7.584 17.475 7.578 17.506-.012 35.012-.037 52.518-.061 41.687-.059 83.374-.117 125.061-.012.966.002 1.934.024 2.902.046h.001c2.372.054 4.745.107 7.089-.125 2.929-.29 6.001-.764 8.648-1.958 5.526-2.492 10.927-5.267 16.325-8.04 1.119-.575 2.237-1.149 3.356-1.721 5.582-2.852 8.853-7.358 9.624-13.67.912-7.461 1.883-14.914 2.853-22.367l.001-.007.399-3.06.361-2.778c.914-7.052 1.837-14.103 2.817-21.591l.003-.019.635-4.855.735-5.623c1.884 3.347 3.694 6.568 5.454 9.702l.003.005c3.869 6.886 7.501 13.35 11.163 19.797 5.149 9.066 13.396 11.793 22.932 7.418.969-.445 1.943-.885 2.917-1.325 5.105-2.309 10.236-4.628 14.889-7.653 4.153-2.699 8.073-6.386 10.812-10.49 3.385-5.073 6.291-10.464 9.338-16.117a521.016 521.016 0 0 1 4.06-7.436c.186.897.361 1.671.518 2.368.291 1.296.522 2.322.655 3.359l.405 3.165c2.883 22.542 5.766 45.084 8.578 67.635 1.217 9.756 7.161 15.279 16.989 15.323 13.666.062 27.333.099 40.998-.054 2.764-.031 5.752-.438 8.231-1.565 7.115-3.234 14.111-6.76 20.985-10.483 7.52-4.072 10.469-11.06 8.715-19.387-.241-1.146-.383-2.314-.556-3.749-.091-.75-.191-1.574-.318-2.505.61.537 1.103.956 1.515 1.306.7.595 1.166.991 1.582 1.435 31.711 33.846 71.217 44.141 116.004 38.296 25.731-3.358 48.106-15.333 69.573-28.748 21.791-13.617 37.202-33.126 46.583-57.136 10.121-25.905 12.192-52.767 8.003-80.046-11.51-74.963-74.4-116.419-145.825-106.319-22.404 3.168-42.087 13.19-61.611 23.65-24.715 13.241-42.157 33.225-53.504 58.71-.35.785-.755 1.545-1.306 2.58l-.002.003c-.309.58-.665 1.247-1.082 2.053-.207-1.427-.395-2.705-.568-3.886l-.001-.007-.002-.012c-.335-2.284-.617-4.203-.883-6.124-.862-6.214-1.718-12.429-2.574-18.643-1.891-13.724-3.782-27.447-5.73-41.162-1.106-7.783-6.675-14.129-13.877-14.197-3.303-.031-6.623-.146-9.946-.261-17.389-.602-34.842-1.207-50.267 10.167-.33.244-.723.408-1.111.57l-.003.002c-.076.031-.151.063-.225.095-5.112 2.193-8.669 5.847-11.253 10.818-5.541 10.66-11.219 21.248-16.896 31.837l-.004.007-.004.007c-1.873 3.494-3.747 6.99-5.616 10.487-.531.993-1.105 1.962-1.771 3.085-.338.573-.701 1.184-1.093 1.86-3.089-5.743-6.149-11.41-9.183-17.029-7.56-14.002-14.954-27.696-22.216-41.459-3.738-7.083-9.104-10.604-17.183-10.438-4.975.103-9.953.083-14.93.063-5.19-.021-10.379-.042-15.566.076-3.069.07-6.338.676-9.127 1.913-5.662 2.514-11.185 5.345-16.705 8.176-1.148.588-2.296 1.177-3.445 1.763-5.415 2.76-8.696 7.185-9.538 13.231a82187.832 82187.832 0 0 0-9.46 68.184c-1.735 12.526-3.469 25.052-5.206 37.578-1.678 12.091-3.365 24.181-5.048 36.246-.763 5.47-1.526 10.934-2.286 16.391h-63.497v-5.777l.003-42.339c.003-39.051.007-78.103-.018-117.155-.007-11.908-6.373-18.224-18.16-18.249a318.13 318.13 0 0 0-6.765.081c-4.754.09-9.508.181-14.228-.175-14.171-1.068-27.51.89-39.571 8.907-.239.16-.559.197-.939.242a8.058 8.058 0 0 0-.64.095c-4.089-7.189-10.503-9.279-18.494-9.24-6.815.033-13.63.073-20.445.114-33.019.196-66.042.393-99.044-.296-16.53-.345-31.39 2.458-45.7 10.791-8.106 4.72-12.204 10.369-12.147 19.86.165 27.712.14 55.425.113 83.333zM196.897 175.5V94.057c-.929.433-1.79.807-2.595 1.158-1.602.696-2.986 1.298-4.26 2.08-6.899 4.236-14.284 5.608-22.385 5.432-10.984-.239-21.973-.203-32.962-.168h-.003c-6.499.021-12.999.042-19.498.007-3.482-.02-5.012.855-3.411 4.626h5.606c5.443 0 10.887-.004 16.331-.007h.006c13.042-.009 26.084-.018 39.126.025 10.184.033 16.938 6.727 16.999 16.835.04 6.74.032 13.481.024 20.222-.007 6.084-.014 12.168.014 18.252.024 5.176-1.506 10.165-5.841 12.603-2.04 1.147-4.059 2.349-6.079 3.552-10.166 6.056-20.355 12.125-33.334 11.178-6.893-.503-13.834-.37-20.773-.237-2.9.056-5.801.112-8.698.121-.863.003-1.726.118-2.559.229-.375.05-.745.099-1.105.137v13.567h85.397V175.5zm525.971-75.82c.591-.347 1.181-.694 1.718-1.076l1.426-.141c1.557-.155 2.719-.271 3.882-.364 24.954-1.978 42.679 9.827 49.711 33.824 5.663 19.324 5.454 38.791-1.309 57.861-6.216 17.526-14.333 21.845-32.644 18.625-17.358-3.052-28.913-13.071-34.67-29.407-7.199-20.429-7.145-41.16.025-61.594 1.601-4.565 4.372-8.759 7.1-12.887.486-.735.97-1.467 1.446-2.199.73-1.124 2.023-1.883 3.315-2.642z" clip-rule="evenodd"/><path fill="#fff" d="M104.263 262.104c30.489 0 60.978.001 91.467-.002 6.522-.001 6.526-.009 6.529-6.723.004-10.496.004-20.993 0-31.489-.002-6.728-.006-6.74-6.532-6.741-30.823-.004-61.645-.001-92.468-.001h-5.356v-51.582h5.704c22.159 0 44.318.003 66.477-.003 6.157-.001 6.376-.221 6.384-6.525.014-10.83-.163-21.663.083-32.487.102-4.492-1.207-6.123-5.943-6.076-22.49.223-44.984.099-67.476.099H97.95V78.451h5.817c29.823 0 59.646-.062 89.468.07 4.193.02 5.978-1.016 5.863-5.59a659.27 659.27 0 0 1 .006-33.983c.122-4.585-1.6-5.55-5.815-5.538-45.817.125-91.635.122-137.452.004-4.25-.01-5.844 1.136-5.837 5.63.115 72.475.11 144.949.009 217.424-.006 4.371 1.387 5.782 5.772 5.722 15.825-.22 31.654-.086 48.482-.086zm252.967-44.93h-79.148v-53.549c0-41.314-.068-82.63.092-123.944.019-4.82-1.436-6.358-6.268-6.23-11.653.31-23.323.263-34.98.017-4.236-.09-5.324 1.39-5.318 5.467.105 72.634.098 145.268.014 217.902-.004 3.751.88 5.331 4.996 5.319 42.814-.122 85.628-.113 128.442-.008 3.905.009 5.325-1.236 5.239-5.176-.202-9.325-.003-18.657-.081-27.986-.115-13.629 1.871-11.642-12.988-11.812zm209.267-35.485c1.021 7.916 2.054 15.831 3.059 23.749 2.158 17 4.382 33.992 6.396 51.008.501 4.233 2.055 5.894 6.62 5.767 12.322-.341 24.66-.177 36.991-.081 3.747.03 5.346-.769 4.71-5.195-5.576-38.851-10.916-77.736-16.311-116.614-4.709-33.939-9.493-67.868-13.982-101.836-.592-4.483-2.486-5.381-6.451-5.288-8.994.21-18 .22-26.992-.009-3.63-.093-5.68 1.076-7.411 4.359-12.97 24.593-26.136 49.082-39.243 73.601-3.572 6.681-7.154 13.356-11.06 20.647-1.149-1.979-1.91-3.207-2.593-4.476-15.84-29.477-31.77-58.907-47.398-88.496-2.288-4.333-4.891-5.895-9.694-5.669-8.313.392-16.679.46-24.983-.021-5.105-.296-6.578 1.835-7.187 6.354-3.909 29.009-7.999 57.993-12.011 86.989-5.996 43.33-11.933 86.668-18.029 129.984-.591 4.201.438 5.763 4.81 5.699 12.662-.184 25.329-.168 37.992 0 3.62.048 4.808-1.238 5.255-4.808 4.568-36.476 9.318-72.929 14.032-109.387 1.197-9.26 2.448-18.514 3.838-29 1.503 2.548 2.351 3.927 3.144 5.337 16.166 28.73 32.305 57.476 48.539 86.168.985 1.74 2.708 3.063 4.088 4.58 1.425-1.436 3.259-2.643 4.214-4.344 16.219-28.9 32.327-57.863 48.472-86.804.759-1.36 1.642-2.649 3.151-5.065 2.743 21.537 5.318 41.752 8.034 62.851z"/><path fill="#fff" fill-rule="evenodd" d="M714.072 260.092c18.045 6.426 36.6 8.097 55.578 6.056 38.964-4.191 68.113-23.62 85.49-58.442 17.341-34.75 17.685-71.29 4.797-107.667-9.849-27.802-28.56-48.152-55.428-60.61-19.32-8.958-39.713-11.796-60.865-9.842-35.348 3.266-63.496 18.866-82.673 49.068-17.979 28.316-22.257 59.616-17.118 92.166 6.674 42.272 28.733 73.075 70.219 89.271zm85.005-169.38c-19.94-23.033-75.568-26.183-96.422 12.132-10.272 19.138-11.609 39.333-9.346 60.008.575 5.253 1.728 10.515 3.258 15.579 8.658 28.641 28.992 43.641 58.787 43.634 29.168-.007 49.745-15.094 58.325-42.975 5.189-16.862 5.647-34.074 2.674-51.344-2.383-13.845-7.94-26.248-17.276-37.033z" clip-rule="evenodd"/><path fill="#FFEE02" d="M674.013 225.971c-16.47-19.813-24.266-42.589-25.869-67.679-1.401-21.919 1.221-43.213 10.598-63.33 15.621-33.51 41.745-53.478 78.272-58.796 36.896-5.372 69.891 3.243 96.425 30.72 15.767 16.327 24.437 36.384 27.842 58.618 3.954 25.821 2.623 51.428-8.562 75.342-17.907 38.286-48.544 58.37-90.87 60.467-23.928 1.185-46.554-3.259-66.589-16.805-7.632-5.16-14.043-12.127-21.247-18.537zm61.453-155.1c-20.158 5.755-33.77 18.729-41.493 37.995-7.243 18.071-8.369 36.908-5.861 55.972 4.518 34.347 24.673 59.707 60.186 62.796 27.821 2.421 54.541-8.141 66.914-36.751 12.421-28.724 12.262-58.12-.543-86.737-8.645-19.323-23.921-31.126-45.219-34.57-11.161-1.805-22.2-1.453-33.984 1.295zM387.955 248.905c3.956-28.608 7.84-56.78 11.743-84.95 4.428-31.959 8.87-63.917 13.315-95.874 1.327-9.543 2.683-19.083 4.105-29.194 9.3 0 18.426-.19 27.527.191 1.486.063 3.309 2.416 4.228 4.115 16.321 30.178 32.496 60.435 48.81 90.617 1.356 2.509 3.475 4.605 5.24 6.893 1.784-2.248 3.955-4.288 5.295-6.776 16.268-30.207 32.472-60.449 48.507-90.78 1.732-3.275 3.631-4.491 7.3-4.36 7.98.282 15.978.086 24.561.086l30.224 217.648h-36.828c-1.345-10.266-2.714-20.589-4.049-30.917-4.243-32.823-8.474-65.648-12.708-98.472-.638-4.949-1.12-9.925-1.979-14.835-.307-1.757-1.516-3.355-2.313-5.026-1.513 1.294-3.544 2.296-4.461 3.925-14.545 25.832-28.945 51.746-43.382 77.639-3.207 5.752-6.432 11.495-10.111 18.068-4.954-8.781-9.432-16.699-13.893-24.628-13.311-23.66-26.587-47.341-39.986-70.951-.879-1.549-2.676-2.578-4.046-3.848-.938 1.749-2.485 3.418-2.726 5.259-6.215 47.499-12.294 95.017-18.407 142.529-.041.316-.239.611-.493 1.232h-36.535c.362-2.599.68-4.877 1.062-7.591zM272.864 201c0 5.166-.002 9.833 0 14.499.004 7.276.005 7.29 7.086 7.293 19.332.007 38.664.002 57.997.003h26.665v33.664H237.573V39.329h35.291V201zM67.03 256.807H56.352V39.332h137.112v33.65h-5.429c-29.663 0-59.325-.004-88.988.003-6.473.002-6.766.291-6.773 6.774-.015 13.164-.014 26.329 0 39.494.006 6.66.157 6.812 6.641 6.814 21.997.008 43.994.003 65.991.003h5.785v33.965h-5.088c-22.33 0-44.661.113-66.99-.091-4.805-.044-6.48 1.503-6.42 6.314.2 16.662.067 33.328.082 49.992.005 6.213.35 6.571 6.456 6.574 30.663.012 61.325.005 91.987.005h5.837v33.978H67.03z"/></svg>