<svg xmlns="http://www.w3.org/2000/svg" width="898" height="307" fill="none" viewBox="0 0 898 307">
  <mask id="a" width="897" height="306" x=".328" y=".811" fill="#000" maskUnits="userSpaceOnUse">
    <path fill="#fff" d="M.328.811h897v306h-897z"/>
    <path fill-rule="evenodd" d="M15.493 133.838c-.01 10.357-.02 20.741-.02 31.162 0 9.749.023 19.458.046 29.137.057 24.243.113 48.302-.189 72.358-.158 12.639 6.95 20.106 19.677 19.968 43.16-.466 86.331-.439 129.492-.009 11.974.119 23.182-1.024 33.385-7.657.135-.088.336-.073.652-.049a9.1 9.1 0 0 0 .705.031c3.853 6.454 10.217 7.583 17.475 7.578 17.506-.012 35.012-.037 52.518-.061 41.687-.059 83.374-.117 125.061-.012.966.002 1.934.024 2.902.046h.001c2.372.054 4.745.107 7.089-.125 2.929-.291 6.001-.764 8.648-1.958 5.526-2.492 10.927-5.267 16.325-8.04 1.119-.575 2.237-1.149 3.356-1.721 5.582-2.852 8.853-7.358 9.624-13.67.912-7.461 1.883-14.914 2.853-22.367l.001-.007.399-3.06.361-2.778c.914-7.052 1.837-14.103 2.817-21.591l.003-.019.635-4.855.735-5.623c1.884 3.347 3.694 6.568 5.454 9.702l.003.005c3.869 6.886 7.501 13.35 11.163 19.797 5.149 9.066 13.396 11.793 22.932 7.418.969-.445 1.943-.885 2.917-1.325 5.105-2.309 10.236-4.628 14.889-7.653 4.153-2.699 8.073-6.386 10.812-10.49 3.385-5.073 6.291-10.464 9.338-16.117a526.534 526.534 0 0 1 4.06-7.437c.186.898.361 1.672.518 2.369.291 1.296.522 2.322.655 3.359l.405 3.165c2.883 22.542 5.766 45.084 8.578 67.635 1.217 9.756 7.161 15.279 16.989 15.323 13.666.062 27.333.099 40.998-.054 2.764-.031 5.752-.438 8.231-1.565 7.115-3.234 14.111-6.76 20.985-10.483 7.52-4.072 10.469-11.06 8.715-19.387-.241-1.146-.383-2.314-.556-3.749-.091-.75-.191-1.574-.318-2.505.61.537 1.103.956 1.515 1.306.7.595 1.166.991 1.582 1.435 31.711 33.846 71.217 44.141 116.004 38.296 25.731-3.358 48.106-15.333 69.573-28.748 21.791-13.617 37.202-33.126 46.583-57.136 10.121-25.905 12.192-52.767 8.003-80.046-11.51-74.963-74.4-116.419-145.825-106.319-22.404 3.168-42.087 13.19-61.611 23.65-24.715 13.241-42.157 33.225-53.504 58.71-.35.785-.755 1.545-1.306 2.58l-.002.003c-.309.58-.665 1.247-1.082 2.053-.207-1.427-.395-2.705-.568-3.886l-.001-.007-.002-.012c-.335-2.284-.617-4.203-.883-6.124a19505.27 19505.27 0 0 1-2.574-18.643c-1.891-13.724-3.782-27.447-5.73-41.162-1.106-7.783-6.675-14.129-13.877-14.197-3.303-.031-6.623-.146-9.946-.261-17.389-.602-34.842-1.207-50.267 10.167-.33.244-.723.408-1.111.57l-.003.002c-.076.031-.151.063-.225.095-5.112 2.193-8.669 5.847-11.253 10.818-5.541 10.66-11.219 21.248-16.896 31.837l-.004.007-.004.007c-1.873 3.494-3.747 6.99-5.616 10.487-.531.993-1.105 1.962-1.771 3.085-.338.573-.701 1.184-1.093 1.86-3.089-5.743-6.149-11.41-9.183-17.029-7.56-14.002-14.954-27.696-22.216-41.459-3.738-7.084-9.104-10.604-17.183-10.438-4.975.103-9.953.083-14.93.063-5.19-.021-10.379-.042-15.566.076-3.069.07-6.338.676-9.127 1.913-5.662 2.514-11.185 5.345-16.705 8.176-1.148.588-2.296 1.177-3.445 1.763-5.415 2.76-8.696 7.185-9.538 13.231a82187.832 82187.832 0 0 0-9.46 68.184c-1.735 12.526-3.469 25.052-5.206 37.578-1.678 12.091-3.365 24.181-5.048 36.246-.763 5.47-1.526 10.934-2.286 16.391h-63.497v-5.777l.003-42.339c.003-39.051.007-78.103-.018-117.155-.007-11.908-6.373-18.224-18.16-18.249a318.13 318.13 0 0 0-6.765.081c-4.754.09-9.508.181-14.228-.175-14.171-1.068-27.51.89-39.571 8.907-.239.16-.559.197-.939.242a8.058 8.058 0 0 0-.64.095c-4.089-7.19-10.503-9.279-18.494-9.24-6.815.032-13.63.073-20.445.114-33.019.196-66.042.393-99.044-.296-16.53-.345-31.39 2.458-45.7 10.791-8.106 4.72-12.204 10.369-12.147 19.86.165 27.712.14 55.425.113 83.333ZM196.897 175.5V94.057c-.929.433-1.79.807-2.595 1.158-1.602.696-2.986 1.298-4.26 2.08-6.899 4.236-14.284 5.608-22.385 5.432-10.984-.239-21.973-.203-32.962-.168h-.003c-6.499.021-12.999.042-19.498.007-3.482-.02-5.012.855-3.411 4.626h5.606c5.443 0 10.887-.004 16.331-.007h.006c13.042-.009 26.084-.018 39.126.025 10.184.033 16.938 6.727 16.999 16.835.04 6.74.032 13.481.024 20.222-.007 6.084-.014 12.168.014 18.252.024 5.176-1.506 10.165-5.841 12.603-2.04 1.147-4.059 2.349-6.079 3.552-10.166 6.056-20.355 12.125-33.334 11.178-6.893-.503-13.834-.37-20.773-.237-2.9.056-5.801.112-8.698.121-.863.003-1.726.118-2.559.229-.375.05-.745.099-1.105.137v13.567h85.397V175.5Zm525.971-75.82c.591-.347 1.181-.694 1.718-1.076l1.426-.141c1.557-.156 2.719-.271 3.882-.364 24.954-1.978 42.679 9.827 49.711 33.824 5.663 19.324 5.454 38.791-1.309 57.861-6.216 17.526-14.333 21.845-32.644 18.625-17.358-3.052-28.913-13.071-34.67-29.407-7.199-20.429-7.145-41.16.025-61.594 1.601-4.565 4.372-8.759 7.1-12.887.486-.735.97-1.467 1.446-2.199.73-1.124 2.023-1.883 3.315-2.642Z" clip-rule="evenodd"/>
  </mask>
  <path fill="#040404" fill-rule="evenodd" d="M15.493 133.838c-.01 10.357-.02 20.741-.02 31.162 0 9.749.023 19.458.046 29.137.057 24.243.113 48.302-.189 72.358-.158 12.639 6.95 20.106 19.677 19.968 43.16-.466 86.331-.439 129.492-.009 11.974.119 23.182-1.024 33.385-7.657.135-.088.336-.073.652-.049a9.1 9.1 0 0 0 .705.031c3.853 6.454 10.217 7.583 17.475 7.578 17.506-.012 35.012-.037 52.518-.061 41.687-.059 83.374-.117 125.061-.012.966.002 1.934.024 2.902.046h.001c2.372.054 4.745.107 7.089-.125 2.929-.291 6.001-.764 8.648-1.958 5.526-2.492 10.927-5.267 16.325-8.04 1.119-.575 2.237-1.149 3.356-1.721 5.582-2.852 8.853-7.358 9.624-13.67.912-7.461 1.883-14.914 2.853-22.367l.001-.007.399-3.06.361-2.778c.914-7.052 1.837-14.103 2.817-21.591l.003-.019.635-4.855.735-5.623c1.884 3.347 3.694 6.568 5.454 9.702l.003.005c3.869 6.886 7.501 13.35 11.163 19.797 5.149 9.066 13.396 11.793 22.932 7.418.969-.445 1.943-.885 2.917-1.325 5.105-2.309 10.236-4.628 14.889-7.653 4.153-2.699 8.073-6.386 10.812-10.49 3.385-5.073 6.291-10.464 9.338-16.117a526.534 526.534 0 0 1 4.06-7.437c.186.898.361 1.672.518 2.369.291 1.296.522 2.322.655 3.359l.405 3.165c2.883 22.542 5.766 45.084 8.578 67.635 1.217 9.756 7.161 15.279 16.989 15.323 13.666.062 27.333.099 40.998-.054 2.764-.031 5.752-.438 8.231-1.565 7.115-3.234 14.111-6.76 20.985-10.483 7.52-4.072 10.469-11.06 8.715-19.387-.241-1.146-.383-2.314-.556-3.749-.091-.75-.191-1.574-.318-2.505.61.537 1.103.956 1.515 1.306.7.595 1.166.991 1.582 1.435 31.711 33.846 71.217 44.141 116.004 38.296 25.731-3.358 48.106-15.333 69.573-28.748 21.791-13.617 37.202-33.126 46.583-57.136 10.121-25.905 12.192-52.767 8.003-80.046-11.51-74.963-74.4-116.419-145.825-106.319-22.404 3.168-42.087 13.19-61.611 23.65-24.715 13.241-42.157 33.225-53.504 58.71-.35.785-.755 1.545-1.306 2.58l-.002.003c-.309.58-.665 1.247-1.082 2.053-.207-1.427-.395-2.705-.568-3.886l-.001-.007-.002-.012c-.335-2.284-.617-4.203-.883-6.124a19505.27 19505.27 0 0 1-2.574-18.643c-1.891-13.724-3.782-27.447-5.73-41.162-1.106-7.783-6.675-14.129-13.877-14.197-3.303-.031-6.623-.146-9.946-.261-17.389-.602-34.842-1.207-50.267 10.167-.33.244-.723.408-1.111.57l-.003.002c-.076.031-.151.063-.225.095-5.112 2.193-8.669 5.847-11.253 10.818-5.541 10.66-11.219 21.248-16.896 31.837l-.004.007-.004.007c-1.873 3.494-3.747 6.99-5.616 10.487-.531.993-1.105 1.962-1.771 3.085-.338.573-.701 1.184-1.093 1.86-3.089-5.743-6.149-11.41-9.183-17.029-7.56-14.002-14.954-27.696-22.216-41.459-3.738-7.084-9.104-10.604-17.183-10.438-4.975.103-9.953.083-14.93.063-5.19-.021-10.379-.042-15.566.076-3.069.07-6.338.676-9.127 1.913-5.662 2.514-11.185 5.345-16.705 8.176-1.148.588-2.296 1.177-3.445 1.763-5.415 2.76-8.696 7.185-9.538 13.231a82187.832 82187.832 0 0 0-9.46 68.184c-1.735 12.526-3.469 25.052-5.206 37.578-1.678 12.091-3.365 24.181-5.048 36.246-.763 5.47-1.526 10.934-2.286 16.391h-63.497v-5.777l.003-42.339c.003-39.051.007-78.103-.018-117.155-.007-11.908-6.373-18.224-18.16-18.249a318.13 318.13 0 0 0-6.765.081c-4.754.09-9.508.181-14.228-.175-14.171-1.068-27.51.89-39.571 8.907-.239.16-.559.197-.939.242a8.058 8.058 0 0 0-.64.095c-4.089-7.19-10.503-9.279-18.494-9.24-6.815.032-13.63.073-20.445.114-33.019.196-66.042.393-99.044-.296-16.53-.345-31.39 2.458-45.7 10.791-8.106 4.72-12.204 10.369-12.147 19.86.165 27.712.14 55.425.113 83.333ZM196.897 175.5V94.057c-.929.433-1.79.807-2.595 1.158-1.602.696-2.986 1.298-4.26 2.08-6.899 4.236-14.284 5.608-22.385 5.432-10.984-.239-21.973-.203-32.962-.168h-.003c-6.499.021-12.999.042-19.498.007-3.482-.02-5.012.855-3.411 4.626h5.606c5.443 0 10.887-.004 16.331-.007h.006c13.042-.009 26.084-.018 39.126.025 10.184.033 16.938 6.727 16.999 16.835.04 6.74.032 13.481.024 20.222-.007 6.084-.014 12.168.014 18.252.024 5.176-1.506 10.165-5.841 12.603-2.04 1.147-4.059 2.349-6.079 3.552-10.166 6.056-20.355 12.125-33.334 11.178-6.893-.503-13.834-.37-20.773-.237-2.9.056-5.801.112-8.698.121-.863.003-1.726.118-2.559.229-.375.05-.745.099-1.105.137v13.567h85.397V175.5Zm525.971-75.82c.591-.347 1.181-.694 1.718-1.076l1.426-.141c1.557-.156 2.719-.271 3.882-.364 24.954-1.978 42.679 9.827 49.711 33.824 5.663 19.324 5.454 38.791-1.309 57.861-6.216 17.526-14.333 21.845-32.644 18.625-17.358-3.052-28.913-13.071-34.67-29.407-7.199-20.429-7.145-41.16.025-61.594 1.601-4.565 4.372-8.759 7.1-12.887.486-.735.97-1.467 1.446-2.199.73-1.124 2.023-1.883 3.315-2.642Z" clip-rule="evenodd"/>
  <path fill="#fff" d="M291.528 203.646h-7.5v7.5h7.5v-7.5Zm-180.028.023H104v7.5h7.5v-7.5Zm85.397 0v7.5h7.5v-7.5h-7.5Zm419.276-103.254-7.421 1.089 7.421-1.089ZM503.402 73.512l-6.61-3.544 6.61 3.544ZM284.028 197.869v5.777h15v-5.777h-15Zm7.5 13.277h63.497v-15h-63.497v15ZM204.397 175.5V94.057h-15V175.5h15Zm-92.614-60.808h5.605l.001-15h-5.606v15ZM104 190.102v13.567h15v-13.567h-15Zm7.5 21.067h85.397v-15H111.5v15Zm92.897-7.5V175.5h-15v28.169h15Zm336.232-1.312-.405-3.164-14.878 1.903.404 3.164 14.879-1.903Zm83.814-96.575a5.877 5.877 0 0 1-.078.142l-.057.1-.035.059-.008.015-.003.005v-.001l.001-.001.002-.003a.147.147 0 0 1 .009-.015l.035-.06.058-.101.077-.142-13.237-7.056.078-.142.057-.1.035-.059.009-.015.002-.004a.016.016 0 0 0-.003.005l-.009.015-.035.06-.057.1c-.023.04-.049.088-.078.143l13.237 7.055ZM462.04 206.549l.016.029.004.006.001.002-.002-.003-.004-.008-.018-.031-13.077 7.347-.016-.028-.004-.007-.001-.002.002.003.004.008.018.031 13.077-7.347Zm-20.803 3.472-.002.013-.001.008v.002-.004l14.874 1.947.001-.014.001-.008.001-.002-.001.005-14.873-1.947Zm93.436-172.347-.044.018-.01.005a.015.015 0 0 1-.004.001h.001l.004-.002a12.499 12.499 0 0 0 .057-.024l-5.787-13.838.044-.018.01-.005a.015.015 0 0 1 .004-.001h-.001l-.003.002a12.499 12.499 0 0 0-.058.024l5.787 13.838Zm74.078 63.818-.001-.002.002.014 14.841-2.178.001.002-.002-.014-14.841 2.178Zm.001.012.005.032.001.008.001.004v-.002l-.001-.006-.005-.029 14.841-2.178-.004-.032-.002-.009v-.003.002l.001.006.004.029-14.841 2.178ZM437.657 237.473l.001-.004-.002.012 14.875 1.937-.001.004.002-.012-14.875-1.937ZM133.725 114.685h-.004.01l-.01-15h.005-.011l.01 15Zm376.283-37.622a.02.02 0 0 1 .003-.005l.001-.002-13.22-7.088-.002.005-.001.002 13.219 7.088Zm.004-.007.006-.012-.002.005-13.22-7.088-.006.012.002-.005 13.22 7.088Zm214.574 21.548-1.473-14.927-3.967.391-3.249 2.31 8.689 12.226Zm-5.033 3.718 12.577 8.173-12.577-8.173Zm-8.546 15.086 14.154 4.966v-.001l-14.154-4.965Zm-.025 61.594 14.148-4.985v-.001l-14.148 4.986Zm34.67 29.407-2.598 14.774 2.598-14.774Zm32.644-18.625-14.138-5.014 14.138 5.014Zm1.309-57.861-14.394 4.218 14.394-4.218Zm-49.711-33.824-1.185-14.953 1.185 14.953ZM15.474 165h15-15ZM15.38 50.504l15-.09-15 .09Zm12.147-19.859L19.98 17.683l7.548 12.962Zm45.7-10.791-.313 14.997.313-14.997Zm119.489.182-.072-15 .072 15Zm18.494 9.24-13.038 7.417 5.356 9.413 10.62-2.12-2.938-14.71Zm1.579-.337-8.304-12.492 8.304 12.492Zm39.571-8.907-1.127 14.958 1.127-14.958Zm20.993.094-.032 15 .032-15Zm18.16 18.249-15 .01 15-.01Zm.015 159.494h15-15Zm0 5.777h-15v15h15v-15Zm63.497 0v15h13.054l1.802-12.929-14.856-2.071Zm7.334-52.637 14.857 2.061-14.857-2.061Zm14.666-105.762 14.856 2.07-14.856-2.07Zm9.538-13.231-6.812-13.365 6.812 13.365Zm20.15-9.938-6.085-13.71 6.085 13.71Zm9.127-1.914-.342-14.996.342 14.996Zm30.496-.139.309 14.997-.309-14.996Zm17.183 10.438-13.266 7 13.266-7Zm31.399 58.487-13.209 7.107 12.705 23.616 13.473-23.187-12.969-7.536Zm2.864-4.944-13.23-7.07 13.23 7.07Zm22.52-42.338 13.309 6.918h.001l-13.31-6.918Zm11.253-10.818-5.914-13.785 5.914 13.785Zm1.339-.667 8.901 12.074h.001l-8.902-12.074Zm60.213-9.906-.143 15 .143-15Zm13.877 14.197 14.851-2.11-14.851 2.11Zm8.304 59.805-14.858 2.06 14.858-2.06Zm1.454 10.029-14.844 2.156 6.706 46.169 21.457-41.426-13.319-6.899Zm2.39-4.636 13.703 6.102-13.703-6.102Zm53.504-58.71 7.084 13.222-7.084-13.222Zm61.611-23.65 2.1 14.852-2.1-14.852Zm145.825 106.319 14.826-2.277-14.826 2.277Zm-8.003 80.046 13.971 5.458-13.971-5.458Zm-46.583 57.136 7.949 12.721-7.949-12.721Zm-69.573 28.748 1.941 14.874-1.941-14.874Zm-116.004-38.296 10.946-10.256-10.946 10.256Zm-3.097-2.741 9.909-11.261-30.228-26.602 5.457 39.896 14.862-2.033Zm.874 6.254 14.678-3.091v-.001l-14.678 3.092Zm-8.715 19.387-7.143-13.19 7.143 13.19Zm-20.985 10.483-6.207-13.656 6.207 13.656Zm-8.231 1.565-.168-14.999.168 14.999Zm-40.998.054-.067 15 .067-15Zm-16.989-15.323 14.885-1.856-14.885 1.856Zm-8.983-70.8 14.879-1.902v-.001l-14.879 1.903Zm-1.173-5.728 14.686-3.05-8.166-39.32-19.61 35.046 13.09 7.324Zm-13.398 23.554 12.477 8.325-12.477-8.325Zm-10.812 10.49 8.175 12.577-8.175-12.577Zm-17.806 8.978-6.254-13.634 6.254 13.634Zm-22.932-7.418-13.043 7.408 13.043-7.408Zm-16.62-29.504 13.071-7.358-22.106-39.27-5.838 44.684 14.873 1.944Zm-4.19 32.088 14.875 1.929-14.875-1.929Zm-3.614 28.212 14.89 1.819-14.89-1.819Zm-9.624 13.67 6.825 13.357-6.825-13.357Zm-19.681 9.761 6.167 13.674-6.167-13.674Zm-8.648 1.958-1.479-14.927h-.001l1.48 14.927Zm-9.992.079.038-15-.038 15Zm-177.579.073.01 15-.01-15Zm-17.475-7.578 12.88-7.688-4.364-7.312h-8.516v15Zm-1.357.018 8.176 12.576.001-.001-8.177-12.575Zm-33.385 7.657-.149 14.999.149-14.999Zm-129.492.009.163 14.999-.163-14.999ZM15.33 266.495l15 .188-15-.188ZM196.897 94.057h15V70.515l-21.338 9.947 6.338 13.595Zm-6.855 3.238 7.849 12.783-7.849-12.783Zm-22.385 5.432.326-14.997-.326 14.997Zm-52.463-.161-.082 14.999.082-14.999Zm-3.411 4.626-13.807 5.862 3.88 9.138h9.927v-15Zm5.606 0v-15 15Zm55.463.018-.049 15 .049-15Zm16.999 16.835 14.999-.09-14.999.09Zm.038 38.474 15-.07-15 .07Zm-5.841 12.603-7.352-13.075 7.352 13.075Zm-39.413 14.73 1.092-14.961-1.092 14.961Zm-29.471-.116.048 15-.048-15Zm-3.664.366-1.562-14.918L96.5 176.59v13.512h15Zm0 13.567h-15v15h15v-15Zm85.397 0v15h15v-15h-15Zm336.293-.36-14.879 1.902v.001l14.879-1.903ZM15.493 133.838l-15-.014 15 .014Zm.026 60.299-15 .035 15-.035Zm183.017 84.611-1.114 14.958h.002l1.112-14.958Zm70.698 7.548-.021-15 .021 15Zm127.963.034-.339 14.996.169.004h.17v-15Zm.001 0 .339-14.996-.17-.004h-.169v15Zm32.062-10.123 6.855 13.342-6.855-13.342Zm15.833-37.758-14.873-1.947-.001.01 14.874 1.937Zm.001-.007 14.873 1.947.002-.01-14.875-1.937Zm.399-3.06-14.875-1.935 14.875 1.935Zm3.178-24.369 14.873 1.947.001-.008.001-.008-14.875-1.931Zm.003-.019-14.874-1.947-.001.008-.001.008 14.876 1.931Zm.635-4.855 14.873 1.946-14.873-1.946Zm6.189 4.079 13.107-7.295-.014-.026-.015-.027-13.078 7.348Zm.003.005-13.107 7.294.015.027.015.026 13.077-7.347Zm37.012 25.89 6.18 13.668-6.18-13.668Zm35.039-34.26 13.204 7.118-13.204-7.118Zm4.578-5.068 14.633-3.295-14.633 3.295Zm105 54.244-14.892 1.801v.001l14.892-1.802Zm1.197-1.199-9.715 11.429h.001l9.714-11.429Zm-20.501-147.578 12.998 7.487.123-.215.117-.218-13.238-7.054Zm-.002.003-12.998-7.487-.123.213-.116.218 13.237 7.056Zm-1.65-1.833 14.841-2.178-.004-.027-.004-.027-14.833 2.232Zm-.001-.007-14.843 2.167.005.033.005.032 14.833-2.232Zm-.002-.012 14.843-2.167-.002-.01-14.841 2.177Zm-3.457-24.767 14.859-2.048-14.859 2.048Zm-29.553-55.62-.519 14.99.519-14.99Zm-51.378 10.737 5.708 13.872.04-.017.04-.016-5.788-13.839Zm-.003.002-5.708-13.872-.041.017-.04.017 5.789 13.838Zm-28.374 42.75-13.22-7.088-.006.01 13.226 7.078Zm-.004.007 13.221 7.086.005-.009-13.226-7.077Zm-.004.007 13.22 7.088.001-.002-13.221-7.086Zm-7.387 13.572 12.906 7.646-12.906-7.646Zm-10.276-15.169-13.199 7.127 13.199-7.127Zm-54.329-51.834.061-15-.061 15Zm-41.398 10.165-6.844-13.348 6.844 13.348Zm-22.443 83.178-14.858-2.058 14.858 2.058Zm-10.254 73.824 14.856 2.073v-.001l-14.856-2.072Zm-65.78-31.725 15 .002-15-.002ZM266.588 20.207l-.286-14.997.286 14.997Zm-54.738 8.974 1.769 14.896-1.769-14.896Zm-39.579-9.031.089 15-.089-15Zm22.031 75.065 5.982 13.755-5.982-13.755Zm-59.607 7.344v15h.049l-.049-15Zm-.003 0v-15h-.048l.048 15Zm-.972 4.626v-15h-.01l.01 15Zm.006 0v15h.01l-.01-15Zm56.149 37.082-15-.018v.001l15 .017Zm-11.906 34.407-7.676-12.887 7.676 12.887Zm-54.107 10.941-.288-14.997.288 14.997Zm-11.257.35-1.984-14.868 1.984 14.868ZM722.868 99.68l7.595 12.935-7.595-12.935Zm3.144-1.217 1.489 14.926-1.489-14.926Zm-7.905 6.058-12.514-8.27 12.514 8.27Zm-21.254 7.921c-8.288 23.622-8.364 47.864-.018 71.546l28.295-9.972c-6.054-17.176-6.02-34.396.031-51.642l-28.308-9.932Zm-.018 71.546c7.533 21.374 23.454 35.192 46.219 39.195l5.195-29.547c-11.95-2.101-19.138-8.322-23.119-19.619l-28.295 9.971Zm46.219 39.195c10.094 1.774 21.06 2.255 30.813-3.235 9.882-5.563 15.066-15.281 18.566-25.15l-28.275-10.028c-2.715 7.657-4.698 8.861-5.006 9.035-.437.246-2.686 1.276-10.903-.169l-5.195 29.547Zm49.379-28.385c7.875-22.205 8.068-44.91 1.567-67.093l-28.789 8.436c4.824 16.465 4.599 32.694-1.053 48.629l28.275 10.028ZM794 127.705c-4.303-14.685-12.28-26.844-24.124-34.858-11.812-7.992-26.047-10.9-41.167-9.7l2.371 29.905c9.834-.779 16.937 1.227 21.984 4.642 5.016 3.393 9.417 9.135 12.147 18.447L794 127.705ZM30.38 50.415c-.015-2.441.469-3.264.664-3.571.308-.484 1.206-1.59 4.032-3.236L19.979 17.683C14.7 20.758 9.494 24.835 5.741 30.728 1.875 36.798.338 43.544.38 50.594l29.998-.18Zm4.696-6.807c11.378-6.626 23.354-9.06 37.838-8.757l.626-29.994C54.964 4.47 37.22 7.643 19.98 17.683l15.096 25.925Zm157.713-8.572c2.803-.014 4.013.375 4.427.563.161.074.236.13.306.196.078.072.317.311.65.898l26.076-14.834c-3.53-6.206-8.484-10.78-14.611-13.567-5.814-2.645-11.806-3.281-16.993-3.256l.145 30Zm28.304 6.395c8.415-5.594 18.091-7.35 30.14-6.441l2.255-29.915c-16.294-1.228-33.296.931-49.003 11.372l16.608 24.984Zm52.228-6.305c3.324.007 3.51.863 2.915.267-.597-.598.275-.395.277 2.991l30-.019c-.005-8.521-2.32-17.43-9.048-24.17-6.727-6.737-15.618-9.05-24.081-9.069l-.063 30Zm118.56 12.19c.114-.817.31-1.069.336-1.105.038-.052.281-.384 1.157-.831l-13.623-26.73c-9.597 4.892-16.037 13.427-17.583 24.527l29.713 4.139Zm20.918-11.528c.628-.28 1.872-.594 3.383-.628l-.684-29.992c-4.628.105-9.921 1.003-14.87 3.2l12.171 27.42Zm33.846-.766c.898-.018 1.423.072 1.678.134.232.057.313.108.337.123.031.02.176.112.431.403.269.31.674.858 1.162 1.782l26.532-14.001c-2.77-5.25-6.69-10.198-12.334-13.692-5.718-3.539-12.052-4.874-18.424-4.742l.618 29.993Zm86.967 13.564c1.245-2.395 2.41-3.33 3.857-3.951l-11.828-27.57c-8.777 3.765-14.725 10.138-18.648 17.684l26.619 13.837Zm59.352-13.31a2.877 2.877 0 0 1-1.162-.26c-.297-.139-.401-.26-.364-.221.04.042.181.208.335.539.153.326.289.75.36 1.25l29.702-4.22c-1.785-12.561-11.647-26.926-28.586-27.086l-.285 29.998Zm39.871 70.498c10.127-22.744 25.383-40.07 46.885-51.59L665.552 27.74c-27.929 14.963-47.555 37.604-60.123 65.831l27.406 12.203Zm46.885-51.59c19.636-10.52 37.173-19.269 56.627-22.02l-4.2-29.704c-25.354 3.585-47.182 14.88-66.595 25.28l14.168 26.444Zm56.627-22.02c63.936-9.04 118.732 27.53 128.899 93.743l29.652-4.553C882.044 37.644 811.061-8.699 732.147 2.46l4.2 29.704Zm128.899 93.743c3.84 25.01 1.894 49.165-7.149 72.311l27.943 10.917c11.2-28.664 13.396-58.233 8.858-87.781l-29.652 4.553Zm-7.149 72.311c-8.302 21.249-21.72 38.101-40.56 49.875l15.898 25.441c24.742-15.462 42.146-37.628 52.605-64.399l-27.943-10.917Zm-40.56 49.875c-21.115 13.194-41.197 23.675-63.565 26.594l3.882 29.748c29.094-3.797 53.763-17.267 75.581-30.901l-15.898-25.441Zm-63.565 26.594c-40.954 5.345-75.316-4.005-103.117-33.678l-21.892 20.512c35.621 38.02 80.272 49.259 128.891 42.914l-3.882-29.748Zm-130.964-16.818c.177.842.183 1.401.159 1.713-.023.297-.076.41-.079.418-.002.003-.022.061-.145.188-.133.139-.457.431-1.115.787l14.286 26.38c6.283-3.403 11.438-8.499 14.411-15.221 2.946-6.664 3.244-13.775 1.839-20.447l-29.356 6.182Zm-1.18 3.106c-6.616 3.583-13.298 6.949-20.049 10.017l12.414 27.311c7.479-3.399 14.79-7.086 21.921-10.948l-14.286-26.38Zm-20.049 10.017c.17-.077.073-.007-.399.076-.453.079-1.061.138-1.793.146l.336 29.998c3.833-.043 9.147-.58 14.27-2.909l-12.414-27.311Zm-2.192.222c-13.537.151-27.103.115-40.762.054l-.135 29.999c13.672.062 27.441.099 41.233-.055l-.336-29.998Zm-40.762.054c-1.069-.005-1.62-.157-1.8-.22-.147-.05-.057-.041.098.1.15.137.132.188.024-.042-.12-.259-.352-.881-.494-2.018l-29.769 3.712c.934 7.493 3.917 14.963 10.06 20.547 6.191 5.628 13.991 7.885 21.746 7.92l.135-29.999Zm-53.088-61.624c-1.464 2.193-3.832 4.499-6.509 6.239l16.349 25.154c5.628-3.658 11.1-8.726 15.114-14.742l-24.954-16.651Zm-22.395 14.16c-1.114.511-1.808.639-2.11.669-.266.026-.257-.017-.106.032.15.049.124.086-.087-.101-.237-.21-.728-.729-1.333-1.792l-26.085 14.816c3.955 6.964 9.961 12.917 18.223 15.605 8.276 2.693 16.661 1.409 24.007-1.961l-12.509-27.268Zm-55.991 35.192c-.12.984-.346 1.264-.353 1.273-.016.023-.246.369-1.207.86l13.65 26.714c9.877-5.046 16.293-13.791 17.689-25.208l-29.779-3.639Zm-20.582 11.577c-.299.135-1.313.442-3.961.705l2.959 29.854c3.21-.318 8.338-.958 13.335-3.211l-12.333-27.348Zm-190.064.784c-1.457.001-2.555-.057-3.411-.162-.848-.104-1.281-.234-1.446-.294-.126-.046-.017-.022.166.127.194.156.215.243.107.063l-25.759 15.377c8.222 13.773 22.171 14.895 30.364 14.889l-.021-30Zm-26.997-5.136c-6.407 4.165-13.924 5.345-25.059 5.234l-.299 29.998c12.812.128 27.711-.979 41.71-10.08l-16.352-25.152Zm-25.059 5.234c-43.254-.431-86.53-.459-129.804.009l.325 29.998c43.045-.465 86.112-.437 129.18-.009l.299-29.998Zm-129.804.009c-1.72.019-2.742-.227-3.25-.408a2.294 2.294 0 0 1-.446-.205c-.057-.036-.076-.055-.08-.059-.004-.005-.033-.034-.082-.116a2.85 2.85 0 0 1-.24-.545c-.201-.592-.44-1.69-.418-3.448l-29.998-.377c-.114 9.1 2.404 18.408 9.273 25.443 6.92 7.088 16.246 9.814 25.566 9.713l-.325-29.998ZM182.194 84.512c-3.785 2.324-8.106 3.351-14.211 3.218l-.652 29.993c10.097.22 20.546-1.496 30.56-7.645l-15.697-25.566Zm-66.917 3.054c-1.334-.008-3.396.048-5.634.557-2.174.494-6.023 1.752-9.219 5.31-3.534 3.934-4.416 8.565-4.258 12.111.14 3.159 1.087 5.806 1.81 7.51l27.614-11.724a6.266 6.266 0 0 1 .212.645c.11.406.287 1.18.334 2.231.104 2.322-.478 6.029-3.395 9.275-2.579 2.871-5.492 3.678-6.45 3.896-1.022.232-1.587.186-1.179.188l.165-30Zm57.526 34.644c.907.003 1.421.151 1.635.233.2.077.21.119.153.063-.057-.057-.027-.06.039.108.071.182.216.657.221 1.52l29.999-.179c-.05-8.455-2.975-16.649-9.146-22.762-6.163-6.105-14.37-8.956-22.803-8.983l-.098 30Zm2.087 40.379a7.6 7.6 0 0 1-.085 1.249c-.047.278-.085.33-.036.212a3.58 3.58 0 0 1 .564-.876c.365-.432.835-.83 1.363-1.127l14.704 26.15c11.415-6.419 13.523-18.471 13.489-25.748l-29.999.14Zm101.638 35.28v5.777h30v-5.777h-30Zm15 20.777h63.497v-30h-63.497v30Zm265.125 50.442c-2.815-22.578-5.702-45.144-8.585-67.682l-29.757 3.806c2.884 22.546 5.764 45.065 8.573 67.588l29.769-3.712Zm-8.585-67.682-.404-3.164-29.758 3.805.405 3.164 29.757-3.805ZM181.897 94.057V175.5h30V94.057h-30Zm0 81.443v28.169h30V175.5h-30Zm15 13.169H111.5v30h85.397v-30Zm-70.397 15v-13.567h-30v13.567h30Zm-9.111-111.477h-5.606v30h5.605l.001-30ZM.493 133.824C.483 144.18.473 154.571.473 165h30c0-10.413.01-20.789.02-31.148l-30-.028ZM.473 165c0 9.769.024 19.496.046 29.172l30-.07c-.022-9.682-.045-19.373-.045-29.102h-30Zm.046 29.172c.057 24.262.113 48.209-.188 72.134l29.998.377c.303-24.186.247-48.357.19-72.581l-30 .07Zm205.542 97.2a14.521 14.521 0 0 1-7.322 2.347c-.941.037-1.783-.047-1.317-.013l2.228-29.917c-.034-.002-.29-.022-.563-.036a16.97 16.97 0 0 0-1.542-.01c-1.26.05-4.491.302-7.837 2.478l16.353 25.151Zm-8.637 2.334c.207.016.926.073 1.817.073v-30c.324 0 .58.023.408.01l-2.225 29.917Zm19.302 7.651c17.512-.012 35.024-.037 52.529-.061l-.042-30c-17.507.024-35.008.049-52.508.061l.021 30Zm52.529-.061c41.692-.059 83.349-.117 125.002-.012l.076-30c-41.722-.105-83.438-.047-125.12.012l.042 30Zm125.002-.012c.79.002 1.607.02 2.601.042l.678-29.992c-.943-.021-2.061-.047-3.203-.05l-.076 30Zm2.94.046h.001v-30h-.001v30Zm-.338-.004c2.214.05 5.504.143 8.908-.194l-2.96-29.854c-1.284.127-2.739.113-5.27.056l-.678 29.992Zm22.243-3.405c5.932-2.676 11.672-5.628 17.013-8.372l-13.709-26.684c-5.455 2.802-10.517 5.399-15.637 7.708l12.333 27.348Zm17.013-8.372c1.121-.576 2.224-1.143 3.326-1.706l-13.65-26.714c-1.137.58-2.269 1.162-3.385 1.736l13.709 26.684Zm21.015-26.914c.903-7.391 1.866-14.786 2.838-22.249l-29.749-3.874c-.969 7.443-1.948 14.955-2.868 22.484l29.779 3.639Zm2.836-22.238.001-.008-29.746-3.895-.001.008 29.746 3.895Zm.003-.018.398-3.062-29.749-3.87-.398 3.057 29.749 3.875Zm.398-3.062.362-2.784-29.751-3.858-.36 2.772 29.749 3.87Zm.362-2.784c.913-7.042 1.835-14.084 2.815-21.573l-29.746-3.894c-.98 7.487-1.904 14.547-2.82 21.609l29.751 3.858Zm2.817-21.589.003-.019-29.751-3.862-.002.019 29.75 3.862Zm.001-.003.635-4.856-29.746-3.892-.636 4.854 29.747 3.894Zm.635-4.856.736-5.626-29.747-3.887-.735 5.621 29.746 3.892Zm-27.209-.211c1.88 3.34 3.687 6.556 5.448 9.691l26.155-14.695c-1.76-3.133-3.573-6.359-5.461-9.712l-26.142 14.716Zm5.418 9.638.003.005 26.214-14.589-.003-.005-26.214 14.589Zm.033.058c3.866 6.881 7.515 13.376 11.197 19.858l26.085-14.816c-3.641-6.411-7.255-12.844-11.127-19.736l-26.155 14.694Zm53.427 33.502c.925-.425 1.861-.848 2.842-1.291l-12.36-27.336c-.968.438-1.979.895-2.991 1.359l12.509 27.268Zm2.842-1.291c4.919-2.225 11.112-4.993 16.884-8.744l-16.349-25.154c-3.535 2.298-7.604 4.17-12.895 6.562l12.36 27.336Zm31.998-23.486c3.844-5.76 7.079-11.786 10.065-17.324l-26.408-14.235c-3.108 5.766-5.686 10.524-8.611 14.908l24.954 16.651Zm10.065-17.324a510.493 510.493 0 0 1 3.946-7.23l-26.18-14.649a537.228 537.228 0 0 0-4.174 7.644l26.408 14.235Zm-23.831-11.504c.215 1.034.415 1.92.571 2.613l29.267-6.59c-.157-.7-.307-1.364-.465-2.124l-29.373 6.101Zm.571 2.613c.328 1.457.384 1.763.41 1.968l29.758-3.807c-.24-1.871-.645-3.615-.901-4.751l-29.267 6.59Zm134.868 51.606c-.082-.388-.152-.878-.343-2.459l-29.783 3.604c.156 1.289.369 3.134.77 5.039l29.356-6.184Zm-.343-2.458a169.82 169.82 0 0 0-.348-2.737l-29.723 4.066c.11.802.197 1.519.288 2.273l29.783-3.602Zm-25.119 10.556c.715.63 1.293 1.121 1.71 1.475l19.429-22.859a95.964 95.964 0 0 1-1.32-1.137l-19.819 22.521Zm1.711 1.475.421.36.193.168c.049.043-.075-.064-.264-.266l21.892-20.512c-1.117-1.192-2.3-2.172-2.814-2.609l-19.428 22.859ZM605.429 93.571c-.092.206-.226.472-.841 1.626l26.476 14.109c.487-.915 1.163-2.168 1.771-3.532l-27.406-12.203Zm-.601 1.194-.002.003 25.996 14.973.002-.002-25.996-14.974Zm-.241.434c-.31.581-.702 1.317-1.164 2.21l26.638 13.798c.373-.72.691-1.317 1-1.897l-26.474-14.111Zm26.999 6.953c-.209-1.439-.398-2.728-.571-3.908l-29.682 4.356.565 3.864 29.688-4.312Zm-.579-3.962-.001-.007-29.666 4.464.001.007 29.666-4.464Zm.008.057-.001-.011-29.685 4.335.001.011 29.685-4.335Zm-.003-.022c-.337-2.296-.61-4.155-.866-6.006l-29.716 4.12c.276 1.99.567 3.97.9 6.243l29.682-4.357Zm-.866-6.006c-.861-6.207-1.716-12.415-2.573-18.63l-29.719 4.094c.856 6.214 1.713 12.435 2.576 18.656l29.716-4.12Zm-2.573-18.63c-1.89-13.719-3.785-27.473-5.738-41.225l-29.702 4.22c1.943 13.678 3.83 27.37 5.721 41.099l29.719-4.095ZM593.249 5.277c-3.083-.03-6.214-.137-9.569-.253l-1.038 29.982c3.29.114 6.799.236 10.322.27l.285-30Zm-9.569-.253c-16.617-.576-39.45-1.837-59.688 13.085l17.804 24.146c10.613-7.825 22.686-7.878 40.846-7.25l1.038-29.981ZM523.993 18.11a11.52 11.52 0 0 1 1.785-1.09c.271-.132.481-.215.218-.105l11.575 27.677c.059-.025 2.189-.835 4.224-2.335L523.993 18.11Zm2.083-1.229-.004.002 11.415 27.744.004-.002-11.415-27.744Zm-.085.036c-.069.028-.204.085-.35.148l11.828 27.57a38.39 38.39 0 0 0 .099-.042l-11.577-27.676Zm-18.998 17.832c-5.49 10.56-11.122 21.065-16.807 31.668l26.439 14.176c5.67-10.575 11.394-21.248 16.986-32.007L506.993 34.75ZM490.18 66.428l-.003.007 26.451 14.154.003-.007-26.451-14.154Zm.002-.002-.004.006 26.441 14.173.004-.007-26.441-14.172Zm-.003.005c-1.873 3.493-3.752 6.997-5.627 10.505l26.459 14.14c1.864-3.487 3.732-6.973 5.607-10.47l-26.439-14.175Zm-5.627 10.505c-.347.65-.746 1.33-1.446 2.51l25.811 15.29c.631-1.064 1.38-2.324 2.094-3.66l-26.459-14.14Zm-1.446 2.51c-.336.568-.729 1.231-1.157 1.968l25.938 15.072c.357-.612.689-1.173 1.03-1.75l-25.811-15.29Zm25.021 2.397c-3.095-5.753-6.16-11.43-9.193-17.047l-26.398 14.253c3.034 5.62 6.089 11.278 9.173 17.008l26.418-14.214Zm-9.193-17.047c-7.566-14.013-14.925-27.644-22.149-41.333l-26.532 14c7.301 13.837 14.729 27.594 22.283 41.586l26.398-14.253ZM446.027 5.029c-4.76.098-9.552.08-14.56.059l-.122 30c4.947.02 10.109.041 15.3-.066l-.618-29.993Zm-14.56.059c-5.156-.021-10.547-.044-15.969.08l.683 29.992c4.952-.113 9.941-.093 15.164-.072l.122-30Zm-30.839 3.28c-6.111 2.712-12.007 5.739-17.464 8.537l13.688 26.696c5.583-2.863 10.733-5.5 15.947-7.813l-12.171-27.42Zm-17.464 8.537c-1.151.59-2.282 1.17-3.413 1.746l13.623 26.729c1.168-.595 2.332-1.192 3.478-1.78l-13.688-26.695Zm-20.996 26.273a79041.3 79041.3 0 0 0-9.461 68.195l29.716 4.115a81636.06 81636.06 0 0 1 9.458-68.171l-29.713-4.14Zm-9.461 68.195c-1.735 12.527-3.469 25.051-5.206 37.575l29.715 4.122c1.738-12.528 3.473-25.056 5.207-37.582l-29.716-4.115Zm-5.206 37.575c-1.676 12.084-3.363 24.169-5.046 36.234l29.712 4.145c1.683-12.063 3.371-24.159 5.049-36.257l-29.715-4.122Zm-5.046 36.234-2.287 16.394 29.713 4.141 2.286-16.389-29.712-4.146Zm-35.927 12.687.003-42.337-30-.003c-.002 14.113-.003 28.227-.003 42.34h30Zm.003-42.337c.003-39.051.007-78.109-.018-117.167l-30 .02c.025 39.045.021 78.091.018 117.144l30 .003ZM273.384 5.126c-2.437-.005-4.852.042-7.082.084l.571 29.995c2.283-.044 4.38-.083 6.448-.079l.063-30Zm-7.082.084c-4.875.093-8.918.159-12.814-.135l-2.255 29.915c5.544.418 11.007.303 15.64.215l-.571-29.995Zm-61.817 11.237a13.798 13.798 0 0 1 4.628-1.986c.724-.161 1.348-.22.967-.175l3.539 29.79c.059-.007.327-.038.616-.079.304-.043.802-.12 1.396-.252a16.2 16.2 0 0 0 5.462-2.314l-16.608-24.984Zm5.595-2.161c-.143.017-.918.103-1.807.28l5.875 29.42a9.307 9.307 0 0 1-.522.089c-.075.01-.126.016-.007.002l-3.539-29.791Zm-17.436-9.25c-6.825.033-13.649.073-20.463.114l.179 30c6.817-.041 13.624-.082 20.429-.114l-.145-30Zm-20.463.114c-33.052.197-65.874.391-98.641-.293l-.626 29.994c33.237.694 66.461.495 99.446.298l-.179-29.999ZM.381 50.594c.164 27.652.138 55.314.112 83.23l30 .028c.026-27.899.053-55.664-.113-83.437l-30 .179Zm190.178 29.868c-.728.34-1.419.64-2.24.997l11.965 27.511c.791-.344 1.82-.791 2.95-1.317l-12.675-27.191Zm-2.239.997c-1.395.607-3.791 1.62-6.126 3.053l15.697 25.566c.212-.13.584-.321 2.393-1.108L188.32 81.46Zm-20.337 6.271c-11.202-.243-22.378-.206-33.337-.17l.098 29.999c11.02-.036 21.822-.07 32.587.164l.652-29.993Zm-33.288-.17h-.003v29.999h.003v-30Zm-.051 0c-6.511.02-12.945.041-19.367.006l-.165 29.999c6.575.036 13.14.015 19.629-.006l-.097-30Zm-17.256 34.632c5.45 0 10.899-.004 16.342-.007l-.02-30c-5.445.003-10.883.007-16.321.007l-.001 30Zm16.332-.007h.006v-30h-.006v30Zm.016 0c13.047-.009 26.059-.018 39.067.025l.098-30a9943.113 9943.113 0 0 0-39.185-.025l.02 30Zm41.115 1.949c.04 6.678.032 13.366.024 20.115l30 .035c.008-6.732.016-13.526-.025-20.329l-29.999.179Zm.024 20.116c-.007 6.076-.014 12.204.015 18.339l29.999-.14c-.028-6.033-.021-12.074-.014-18.165l-30-.034Zm1.821 17.797c-2.23 1.254-4.41 2.553-6.403 3.74l15.352 25.774c2.048-1.219 3.906-2.325 5.755-3.364l-14.704-26.15Zm-6.403 3.74c-10.731 6.392-16.979 9.658-24.566 9.104l-2.184 29.921c18.371 1.341 32.501-7.531 42.102-13.251l-15.352-25.774Zm-24.566 9.104c-7.698-.561-15.332-.404-22.153-.273l.576 29.994c7.058-.135 13.305-.244 19.393.2l2.184-29.921Zm-22.153-.273c-2.921.056-5.701.109-8.457.118l.095 30a552.8 552.8 0 0 0 8.938-.124l-.576-29.994Zm-8.457.118c-1.998.006-3.823.271-4.496.361l3.968 29.736.508-.067.277-.032c.122-.012.042.001-.162.002l-.095-30Zm-4.496.361a35.12 35.12 0 0 1-.683.087l3.123 29.836c.609-.063 1.194-.142 1.529-.187l-3.969-29.736Zm619.842-62.482c.48-.282 1.65-.958 2.813-1.784l-17.379-24.453c.088-.063.103-.068-.016.005-.131.081-.289.174-.608.362l15.19 25.87Zm-4.403.917 1.441-.143-2.977-29.852-1.411.14 2.947 29.855Zm1.441-.143c1.594-.159 2.596-.259 3.579-.337l-2.371-29.906c-1.345.107-2.666.24-4.186.39l2.978 29.853Zm-2.34 8.984c.878-2.503 2.53-5.146 5.461-9.583l-25.029-16.539c-2.525 3.821-6.416 9.566-8.74 16.191l28.308 9.931Zm5.461-9.583c.48-.726.996-1.506 1.508-2.295l-25.155-16.347c-.439.676-.892 1.36-1.382 2.103l25.029 16.539Zm1.508-2.295c-.973 1.498-1.999 2.272-2.223 2.438-.139.102-.191.13-.08.06.126-.078.284-.172.636-.378l-15.19-25.87c-.453.266-5.263 2.733-8.298 7.403l25.155 16.347Z" mask="url(#a)"/>
  <path fill="#fff" d="M104.263 262.103c30.489 0 60.978.002 91.467-.001 6.522-.001 6.526-.009 6.529-6.723.004-10.496.004-20.993 0-31.489-.002-6.728-.006-6.74-6.532-6.741-30.823-.004-61.645-.002-92.468-.002h-5.356v-51.581h5.704c22.159 0 44.318.003 66.477-.003 6.157-.001 6.376-.221 6.384-6.525.014-10.83-.163-21.663.083-32.487.102-4.492-1.207-6.123-5.943-6.076-22.49.223-44.984.099-67.476.099H97.95V78.451h5.817c29.823 0 59.646-.062 89.468.07 4.193.02 5.978-1.016 5.863-5.59a659.27 659.27 0 0 1 .006-33.983c.122-4.585-1.6-5.55-5.815-5.538-45.817.125-91.635.122-137.452.004-4.25-.01-5.844 1.136-5.837 5.63.115 72.475.11 144.949.009 217.423-.006 4.372 1.387 5.783 5.772 5.723 15.825-.22 31.654-.087 48.482-.087Zm252.967-44.929h-79.148v-53.549c0-41.314-.068-82.63.092-123.944.019-4.82-1.436-6.358-6.268-6.23-11.653.31-23.323.263-34.98.017-4.236-.09-5.324 1.39-5.318 5.467.105 72.634.098 145.268.014 217.902-.004 3.751.88 5.331 4.996 5.319 42.814-.122 85.628-.113 128.442-.008 3.905.009 5.325-1.236 5.239-5.176-.202-9.325-.003-18.657-.081-27.986-.115-13.629 1.871-11.642-12.988-11.812Zm209.267-35.485c1.021 7.916 2.054 15.831 3.059 23.749 2.158 17 4.382 33.992 6.396 51.008.501 4.233 2.055 5.894 6.62 5.767 12.322-.341 24.66-.177 36.991-.081 3.747.03 5.346-.769 4.71-5.195-5.576-38.851-10.916-77.736-16.311-116.614-4.709-33.939-9.493-67.868-13.982-101.836-.592-4.483-2.486-5.381-6.451-5.288-8.994.21-18 .22-26.992-.009-3.63-.093-5.68 1.076-7.411 4.359-12.97 24.592-26.136 49.081-39.243 73.601-3.572 6.681-7.154 13.356-11.06 20.647-1.149-1.979-1.91-3.207-2.593-4.476-15.84-29.477-31.77-58.907-47.398-88.496-2.288-4.333-4.891-5.895-9.694-5.669-8.313.392-16.679.46-24.983-.021-5.105-.296-6.578 1.835-7.187 6.354-3.909 29.009-7.999 57.993-12.011 86.989-5.996 43.33-11.933 86.668-18.029 129.984-.591 4.201.438 5.763 4.81 5.699 12.662-.184 25.329-.168 37.992 0 3.62.048 4.808-1.238 5.255-4.808 4.568-36.476 9.318-72.929 14.032-109.387 1.197-9.26 2.448-18.514 3.838-29 1.503 2.548 2.351 3.927 3.144 5.337 16.166 28.73 32.305 57.476 48.539 86.168.985 1.74 2.708 3.063 4.088 4.58 1.425-1.436 3.259-2.643 4.214-4.344 16.219-28.9 32.327-57.863 48.472-86.804.759-1.36 1.642-2.649 3.151-5.065 2.743 21.537 5.318 41.752 8.034 62.851Z"/>
  <path fill="#fff" fill-rule="evenodd" d="M714.072 260.092c18.045 6.426 36.6 8.097 55.578 6.056 38.964-4.191 68.113-23.62 85.49-58.442 17.341-34.75 17.685-71.29 4.797-107.667-9.849-27.802-28.56-48.152-55.428-60.61-19.32-8.958-39.713-11.796-60.865-9.842-35.348 3.266-63.496 18.866-82.673 49.068-17.979 28.316-22.257 59.616-17.118 92.166 6.674 42.272 28.733 73.075 70.219 89.271Zm85.005-169.38c-19.94-23.033-75.568-26.183-96.422 12.132-10.272 19.138-11.609 39.333-9.346 60.007.575 5.254 1.728 10.516 3.258 15.58 8.658 28.641 28.992 43.641 58.787 43.634 29.168-.007 49.745-15.094 58.325-42.975 5.189-16.862 5.647-34.074 2.674-51.344-2.383-13.845-7.94-26.248-17.276-37.034Z" clip-rule="evenodd"/>
  <path fill="#FFEE02" d="M674.013 225.971c-16.47-19.813-24.266-42.589-25.869-67.68-1.401-21.918 1.221-43.212 10.598-63.328 15.621-33.511 41.745-53.48 78.272-58.797 36.896-5.372 69.891 3.243 96.425 30.72 15.767 16.327 24.437 36.384 27.842 58.618 3.954 25.821 2.623 51.428-8.562 75.342-17.907 38.286-48.544 58.37-90.87 60.467-23.928 1.185-46.554-3.259-66.589-16.805-7.632-5.16-14.043-12.127-21.247-18.537Zm61.453-155.1c-20.158 5.755-33.77 18.729-41.493 37.995-7.243 18.071-8.369 36.908-5.861 55.972 4.518 34.347 24.673 59.707 60.186 62.796 27.821 2.421 54.541-8.141 66.914-36.751 12.421-28.724 12.262-58.12-.543-86.737-8.645-19.323-23.921-31.126-45.219-34.57-11.161-1.805-22.2-1.453-33.984 1.295ZM387.955 248.905c3.956-28.608 7.84-56.78 11.743-84.95 4.428-31.959 8.87-63.917 13.315-95.874 1.327-9.543 2.683-19.083 4.105-29.194 9.3 0 18.426-.19 27.527.191 1.486.063 3.309 2.416 4.228 4.115 16.321 30.178 32.496 60.435 48.81 90.617 1.356 2.509 3.475 4.605 5.24 6.893 1.784-2.248 3.955-4.288 5.295-6.776 16.268-30.207 32.472-60.449 48.507-90.78 1.732-3.275 3.631-4.491 7.3-4.361 7.98.283 15.978.087 24.561.087l30.224 217.648h-36.828c-1.345-10.266-2.714-20.589-4.049-30.917-4.243-32.823-8.474-65.648-12.708-98.472-.638-4.949-1.12-9.925-1.979-14.835-.307-1.757-1.516-3.355-2.313-5.026-1.513 1.294-3.544 2.296-4.461 3.925-14.545 25.832-28.945 51.746-43.382 77.639-3.207 5.752-6.432 11.495-10.111 18.068-4.954-8.781-9.432-16.699-13.893-24.628-13.311-23.66-26.587-47.341-39.986-70.951-.879-1.549-2.676-2.578-4.046-3.848-.938 1.749-2.485 3.418-2.726 5.259-6.215 47.499-12.294 95.017-18.407 142.529-.041.316-.239.611-.493 1.232h-36.535c.362-2.599.68-4.877 1.062-7.591ZM272.864 201c0 5.166-.002 9.833 0 14.499.004 7.276.005 7.29 7.086 7.293 19.332.007 38.664.002 57.997.003h26.665v33.664H237.573V39.329h35.291V201ZM67.03 256.807H56.352V39.332h137.112v33.65h-5.429c-29.663 0-59.325-.004-88.988.003-6.473.002-6.766.291-6.773 6.773-.015 13.165-.014 26.33 0 39.495.006 6.66.157 6.812 6.641 6.814 21.997.008 43.994.003 65.991.003h5.785v33.965h-5.088c-22.33 0-44.661.113-66.99-.091-4.805-.044-6.48 1.503-6.42 6.314.2 16.662.067 33.328.082 49.992.005 6.213.35 6.571 6.456 6.574 30.663.012 61.325.005 91.987.005h5.837v33.978H67.03Z"/>
</svg>
