<svg xmlns="http://www.w3.org/2000/svg" width="554" height="488" fill="none"><path fill="#fff" stroke="#000" stroke-width="2" d="M278.054 37.567 119.611 59.835c-21.877 3.074-37.119 23.3-34.044 45.177l38.968 277.275c3.075 21.877 23.302 37.119 45.178 34.044l158.443-22.268c21.876-3.074 37.118-23.301 34.044-45.177L323.231 71.611c-3.074-21.877-23.301-37.119-45.177-34.044z"/><path fill="#5A5" d="M280.837 57.372 122.394 79.64c-10.938 1.537-18.559 11.65-17.022 22.589l38.969 277.275c1.537 10.938 11.65 18.559 22.589 17.022l158.442-22.268c10.939-1.537 18.56-11.651 17.022-22.589L303.426 74.394c-1.537-10.938-11.651-18.559-22.589-17.022z"/><path fill="#fff" fill-rule="evenodd" d="M269.382 119.572c-87.506 12.298-148.473 93.205-136.175 180.71 3.074 21.877 23.301 37.119 45.178 34.044 87.505-12.298 148.473-93.205 136.175-180.71-3.075-21.877-23.302-37.119-45.178-34.044z" clip-rule="evenodd"/><path fill="#5A5" d="M215.533 167.533c-16.407 2.306-27.839 17.476-25.533 33.883l19.805-2.783c-.768-5.469 3.042-10.526 8.511-11.295 5.469-.768 10.526 3.042 11.295 8.511.768 5.469-3.042 10.526-8.511 11.295l-11.883 1.67L212 228.619l11.883-1.67a19.957 19.957 0 0 1 22.589 17.022 19.957 19.957 0 0 1-17.022 22.589 19.957 19.957 0 0 1-22.589-17.022l-19.805 2.783c3.084 21.945 23.233 37.128 45.178 34.044 21.944-3.084 37.128-23.233 34.043-45.177-1.833-13.048-9.731-23.596-20.421-29.445 3.071-5.51 4.506-11.949 3.56-18.677-2.306-16.407-17.476-27.839-33.883-25.533z"/><path fill="#fff" d="M133.689 88.151c-8.204 1.153-13.92 8.738-12.767 16.942l9.903-1.392a5 5 0 1 1 5.647 4.255l-5.942.835 1.392 9.903 5.942-.835a9.978 9.978 0 0 1 11.294 8.511 9.978 9.978 0 0 1-8.511 11.294 9.978 9.978 0 0 1-11.294-8.511l-9.903 1.392a19.957 19.957 0 0 0 22.589 17.022 19.957 19.957 0 0 0 17.022-22.589c-.917-6.524-4.866-11.798-10.211-14.722 1.535-2.755 2.253-5.974 1.78-9.339-1.153-8.203-8.738-13.919-16.941-12.766zm180.389 277.596c8.204-1.153 13.919-8.738 12.766-16.941l-9.902 1.391a5.001 5.001 0 0 1-9.903 1.392 5 5 0 0 1 4.256-5.647l5.941-.835-1.392-9.903-5.941.835a9.979 9.979 0 0 1-11.295-8.511 9.978 9.978 0 0 1 8.511-11.294 9.979 9.979 0 0 1 11.295 8.511l9.902-1.392a19.956 19.956 0 0 0-22.588-17.022 19.956 19.956 0 0 0-17.022 22.589c.917 6.524 4.866 11.798 10.211 14.722-1.536 2.755-2.253 5.974-1.781 9.339 1.153 8.203 8.738 13.919 16.942 12.766z"/><path fill="#fff" stroke="#000" stroke-width="2" d="M454.156 60.835 295.713 38.567c-21.876-3.075-42.103 12.167-45.178 34.044l-38.968 277.275c-3.075 21.876 12.167 42.103 34.044 45.177l158.443 22.268c21.876 3.075 42.103-12.167 45.177-34.044L488.2 106.012c3.074-21.876-12.168-42.103-34.044-45.177z"/><path fill="#FA0" d="M451.372 80.64 292.93 58.372c-10.939-1.537-21.052 6.084-22.589 17.022L231.372 352.67c-1.537 10.938 6.084 21.052 17.022 22.589l158.443 22.268c10.938 1.537 21.052-6.084 22.589-17.022l38.968-277.275c1.538-10.938-6.083-21.052-17.022-22.589z"/><path fill="#fff" fill-rule="evenodd" d="M423.217 137.273c-87.506-12.298-168.413 48.669-180.711 136.175-3.074 21.876 12.168 42.103 34.044 45.177 87.506 12.299 168.412-48.669 180.711-136.175 3.074-21.876-12.168-42.103-34.044-45.177z" clip-rule="evenodd"/><path fill="#FA0" d="m353.481 167.865-49.953 73.766-2.783 19.805 47.532 6.68-2.783 19.806 19.805 2.783 2.784-19.805 11.883 1.67 2.784-19.805-11.884-1.67 5.567-39.611-19.805-2.784-5.567 39.611-26.935-3.785 49.952-73.766-20.597-2.895z"/><path fill="#fff" d="m300.648 69.555-24.976 36.883-1.392 9.903 23.767 3.34-1.392 9.903 9.903 1.392 1.392-9.903 5.941.835 1.392-9.903-5.942-.835 2.784-19.805-9.903-1.392-2.783 19.805-13.468-1.892 24.976-36.883-10.299-1.448zm97.678 316.676 24.976-36.883 1.392-9.902-23.766-3.341 1.391-9.902-9.902-1.392-1.392 9.903-5.942-.835-1.391 9.902 5.941.836-2.783 19.805 9.902 1.391 2.784-19.805 13.467 1.893-24.976 36.883 10.299 1.447z"/><path fill="#fff" stroke="#000" stroke-width="2" d="M192.252 84.025 38.45 128.127c-21.235 6.09-33.514 28.241-27.425 49.476l77.179 269.154c6.09 21.235 28.24 33.514 49.476 27.425l153.802-44.102c21.235-6.09 33.514-28.241 27.425-49.476L241.728 111.45c-6.089-21.235-28.24-33.514-49.476-27.425z"/><path fill="#000" d="M197.765 103.251 43.963 147.353c-10.618 3.044-16.757 14.12-13.712 24.738l77.178 269.153c3.045 10.618 14.12 16.757 24.738 13.712l153.802-44.102c10.618-3.044 16.757-14.12 13.713-24.738l-77.179-269.153c-3.045-10.618-14.12-16.757-24.738-13.712z"/><path fill="#fff" fill-rule="evenodd" d="M195.078 166.439c-84.942 24.357-134.057 112.962-109.7 197.904 6.09 21.236 28.241 33.514 49.476 27.425 84.943-24.357 134.057-112.961 109.7-197.904-6.089-21.235-28.24-33.514-49.476-27.425z" clip-rule="evenodd"/><path fill="#fff" d="m84.786 146.05-7.816 43.853 2.757 9.613 23.07-6.616 2.756 9.613 9.613-2.756-2.756-9.613 5.767-1.654-2.756-9.612-5.768 1.653-5.513-19.225-9.612 2.757 5.513 19.225-13.074 3.748 7.816-43.853-9.997 2.867z"/><path fill="#fff" fill-rule="evenodd" d="m46.465 177.844 2.756 9.613-9.612 2.756 2.756 9.613 9.612-2.757 2.757 9.613 9.613-2.756-2.757-9.613 9.613-2.756-2.757-9.613-9.612 2.757-2.757-9.613-9.612 2.756z" clip-rule="evenodd"/><path fill="#fff" d="m245.147 412.157 7.815-43.853-2.756-9.612-23.071 6.615-2.756-9.613-9.613 2.757 2.757 9.612-5.768 1.654 2.756 9.613 5.768-1.654 5.513 19.225 9.612-2.756-5.512-19.226 13.073-3.748-7.815 43.853 9.997-2.867z"/><path fill="#fff" fill-rule="evenodd" d="m283.467 380.363-2.756-9.613 9.613-2.756-2.757-9.613-9.612 2.757-2.757-9.613-9.612 2.756 2.756 9.613-9.612 2.757 2.756 9.612 9.612-2.756 2.757 9.612 9.612-2.756z" clip-rule="evenodd"/><path fill="#fff" stroke="#000" stroke-width="2.04" d="m153.931 230.252-38.451 11.026c-5.309 1.522-9.608 6.961-9.604 12.148l.072 74.819c.005 5.186 4.312 8.157 9.621 6.634l38.451-11.025c5.309-1.522 9.608-6.961 9.603-12.148l-.071-74.819c-.005-5.186-4.312-8.157-9.621-6.635z"/><path fill="#E80000" d="m144.328 243.409-19.225 5.513c-5.309 1.522-9.609 6.961-9.604 12.147l.051 54.019c.005 5.187 4.313 8.157 9.622 6.635l19.225-5.513c5.309-1.522 9.609-6.961 9.604-12.147l-.051-54.019c-.005-5.187-4.313-8.157-9.622-6.635z"/><path fill="#fff" stroke="#000" stroke-width="2.04" d="m184.112 190.389-38.45 11.026c-5.309 1.522-9.609 6.961-9.604 12.147l.071 74.819c.005 5.187 4.313 8.157 9.622 6.635l38.45-11.025c5.309-1.523 9.609-6.961 9.604-12.148l-.071-74.819c-.005-5.187-4.313-8.157-9.622-6.635z"/><path fill="#55F" d="m174.509 203.546-19.225 5.513c-5.309 1.522-9.609 6.961-9.604 12.147l.052 54.019c.005 5.186 4.313 8.157 9.621 6.635l19.226-5.513c5.308-1.522 9.608-6.961 9.603-12.148l-.051-54.018c-.005-5.187-4.313-8.157-9.622-6.635z"/><path fill="#fff" stroke="#000" stroke-width="2.04" d="m191.038 250.821-38.451 11.026c-5.309 1.522-9.608 6.961-9.604 12.147l.072 74.819c.005 5.187 4.312 8.157 9.621 6.635l38.451-11.025c5.309-1.523 9.608-6.961 9.603-12.148l-.071-74.819c-.005-5.187-4.312-8.157-9.621-6.635z"/><path fill="#FA0" d="m181.435 263.978-19.225 5.513c-5.309 1.522-9.609 6.961-9.604 12.147l.051 54.019c.005 5.187 4.313 8.157 9.622 6.635l19.225-5.513c5.309-1.522 9.609-6.961 9.604-12.148l-.052-54.018c-.004-5.187-4.312-8.157-9.621-6.635z"/><path fill="#fff" stroke="#000" stroke-width="2.04" d="m221.219 210.958-38.45 11.026c-5.309 1.522-9.609 6.961-9.604 12.147l.071 74.819c.005 5.187 4.313 8.158 9.622 6.635l38.45-11.025c5.309-1.523 9.609-6.961 9.604-12.148l-.071-74.819c-.005-5.186-4.313-8.157-9.622-6.635z"/><path fill="#5A5" d="m211.616 224.115-19.225 5.513c-5.309 1.522-9.608 6.961-9.604 12.147l.052 54.019c.005 5.186 4.313 8.157 9.621 6.635l19.226-5.513c5.309-1.522 9.608-6.961 9.603-12.148l-.051-54.018c-.005-5.187-4.313-8.157-9.622-6.635z"/><path fill="#fff" stroke="#000" stroke-width="2" d="M515.482 130.127 361.68 86.025c-21.236-6.089-43.387 6.19-49.476 27.425l-77.179 269.154c-6.089 21.235 6.19 43.386 27.425 49.476l153.802 44.102c21.236 6.089 43.387-6.19 49.476-27.425l77.179-269.154c6.089-21.235-6.19-43.386-27.425-49.476z"/><path fill="#000" d="m509.969 149.353-153.802-44.102c-10.618-3.045-21.693 3.094-24.738 13.712l-77.178 269.153c-3.045 10.618 3.094 21.694 13.712 24.738l153.802 44.102c10.618 3.045 21.693-3.094 24.738-13.712l77.179-269.153c3.044-10.618-3.095-21.694-13.713-24.738z"/><path fill="#fff" fill-rule="evenodd" d="M474.206 201.516c-84.943-24.357-173.547 24.757-197.904 109.7-6.09 21.235 6.189 43.386 27.425 49.475 84.942 24.357 173.547-24.757 197.904-109.699 6.089-21.236-6.19-43.387-27.425-49.476z" clip-rule="evenodd"/><path fill="#FA0" fill-rule="evenodd" d="M304.135 256.779c-12.333 15.752-21.98 34.023-27.833 54.436-6.09 21.236 6.189 43.387 27.425 49.476l85.239-79.587-84.831-24.325z" clip-rule="evenodd"/><path fill="#5A5" fill-rule="evenodd" d="m388.966 281.104-85.239 79.587c64.528 18.504 131.087-5.468 170.07-55.262l-84.831-24.325z" clip-rule="evenodd"/><path fill="#E80000" fill-rule="evenodd" d="M474.206 201.516c-64.529-18.504-131.088 5.468-170.071 55.263l84.831 24.325 85.24-79.588z" clip-rule="evenodd"/><path fill="#55F" fill-rule="evenodd" d="m474.206 201.516-85.24 79.588 84.831 24.325c12.333-15.753 21.98-34.023 27.834-54.437 6.089-21.236-6.19-43.387-27.425-49.476z" clip-rule="evenodd"/><path fill="#FA0" fill-rule="evenodd" d="M339.731 136.948a39.836 39.836 0 0 0-6.958 13.609c-1.523 5.309 1.547 10.847 6.856 12.369l21.31-19.897-21.208-6.081z" clip-rule="evenodd"/><path fill="#5A5" fill-rule="evenodd" d="m360.939 143.029-21.31 19.897c16.132 4.626 32.772-1.367 42.518-13.816l-21.208-6.081z" clip-rule="evenodd"/><path fill="#E80000" fill-rule="evenodd" d="M382.249 123.132c-16.132-4.626-32.772 1.367-42.518 13.816l21.208 6.081 21.31-19.897z" clip-rule="evenodd"/><path fill="#55F" fill-rule="evenodd" d="m382.249 123.132-21.31 19.897 21.208 6.081a39.827 39.827 0 0 0 6.958-13.609c1.522-5.309-1.547-10.846-6.856-12.369z" clip-rule="evenodd"/><path fill="#FA0" fill-rule="evenodd" d="M395.786 413.096a39.851 39.851 0 0 0-6.959 13.61c-1.522 5.308 1.548 10.846 6.857 12.369l21.31-19.897-21.208-6.082z" clip-rule="evenodd"/><path fill="#5A5" fill-rule="evenodd" d="m416.994 419.178-21.31 19.897c16.132 4.625 32.772-1.368 42.517-13.816l-21.207-6.081z" clip-rule="evenodd"/><path fill="#E80000" fill-rule="evenodd" d="M438.303 399.281c-16.132-4.626-32.772 1.367-42.517 13.815l21.208 6.082 21.309-19.897z" clip-rule="evenodd"/><path fill="#55F" fill-rule="evenodd" d="m438.303 399.281-21.309 19.897 21.207 6.081a39.855 39.855 0 0 0 6.959-13.609c1.522-5.309-1.548-10.847-6.857-12.369z" clip-rule="evenodd"/><path stroke="#fff" stroke-width="4" d="M474.206 201.516c-64.529-18.504-131.088 5.468-170.071 55.262-12.333 15.753-21.98 34.023-27.833 54.437-6.089 21.236 6.189 43.387 27.425 49.476 64.528 18.504 131.088-5.468 170.07-55.263 12.333-15.752 21.98-34.023 27.834-54.436 6.089-21.236-6.19-43.387-27.425-49.476zm-91.957-78.384c-16.132-4.625-32.772 1.367-42.518 13.816a39.836 39.836 0 0 0-6.958 13.609c-1.523 5.309 1.547 10.847 6.856 12.369 16.132 4.626 32.772-1.367 42.518-13.815a39.858 39.858 0 0 0 6.958-13.61c1.522-5.309-1.547-10.846-6.856-12.369zm56.054 276.149c-16.132-4.626-32.772 1.367-42.517 13.815a39.843 39.843 0 0 0-6.959 13.61c-1.522 5.309 1.548 10.846 6.857 12.369 16.132 4.625 32.772-1.368 42.517-13.816a39.855 39.855 0 0 0 6.959-13.609c1.522-5.309-1.548-10.847-6.857-12.369z"/><path fill="#fff" stroke="#000" stroke-width="2" d="M362 98H202c-22.091 0-40 17.909-40 40v280c0 22.091 17.909 40 40 40h160c22.091 0 40-17.909 40-40V138c0-22.091-17.909-40-40-40z"/><path fill="#E80000" d="M362 118H202c-11.046 0-20 8.954-20 20v280c0 11.046 8.954 20 20 20h160c11.046 0 20-8.954 20-20V138c0-11.046-8.954-20-20-20z"/><g clip-path="url(#a)"><path fill="#000" d="M367.765 304.842v-4.238a39.847 39.847 0 0 1-2.115-5.651c-1.407-2.026-3.052-2.34-4.934-.942a76.827 76.827 0 0 1 2.82 4.945c-2.265 3.369-5.241 5.88-8.929 7.534-6.66 1.431-13.239 1.039-19.738-1.177-.096.89.217 1.596.94 2.119l3.759 1.884a6.854 6.854 0 0 1-2.819 1.883c-4.307.613-8.458.064-12.454-1.648-.601.053-.993.368-1.175.942a11.527 11.527 0 0 0 4.7 2.59c-2.458.865-4.964.865-7.519 0a205.9 205.9 0 0 1-8.694-3.061c-.756.127-1.304.52-1.645 1.177.711.678.868 1.384.47 2.12-4.217 1.779-8.603 2.328-13.159 1.648a340.62 340.62 0 0 0-13.863-3.532 77.493 77.493 0 0 0-14.803 3.532 52.9 52.9 0 0 1-11.279.471 11.668 11.668 0 0 1-5.874-1.649 68.743 68.743 0 0 1 2.114-4.002 1.618 1.618 0 0 0-.705-1.178 204.489 204.489 0 0 1-14.803 4.945c-1.88.314-3.759.314-5.639 0l-.47-.471c1.185-.244 2.125-.872 2.819-1.884l-.939-.941-7.05-.471a12.668 12.668 0 0 1-5.639-2.355 5.842 5.842 0 0 0 3.055-1.648c.21-.899-.181-1.449-1.175-1.648a117.04 117.04 0 0 1-13.159-1.413c-3.007-.873-5.514-2.443-7.519-4.709.458-1.14.771-2.318.94-3.532-1.154-2.315-2.642-2.472-4.464-.471-2.429 5.008-2.977 10.188-1.645 15.54h1.88a23.367 23.367 0 0 1 1.879-7.534 22.036 22.036 0 0 0 5.64 3.531 278.523 278.523 0 0 1 10.808 3.297 96.076 96.076 0 0 1 7.285 8.712 908.082 908.082 0 0 0 15.508 23.075c8.945 12.368 20.929 19.745 35.951 22.133 15.021 2.387 38.676-8.918 45.114-17.66a355.811 355.811 0 0 0 18.093-27.077 56.43 56.43 0 0 1 5.875-6.358c8.041.719 14.385-2.186 19.032-8.712l.705 5.651c.553.104 1.022-.053 1.41-.47a35.694 35.694 0 0 0 1.41-3.297z" opacity=".941"/><path fill="#fff" stroke="#000" stroke-width="3" d="M308 254.5c15.815 0 28.5-13.509 28.5-30s-12.685-30-28.5-30-28.5 13.509-28.5 30 12.685 30 28.5 30z"/><path fill="#fff" stroke="#000" stroke-width="3" d="M255 254.5c15.815 0 28.5-13.509 28.5-30s-12.685-30-28.5-30-28.5 13.509-28.5 30 12.685 30 28.5 30z"/><circle cx="259" cy="224" r="11" fill="#0E0000"/><circle cx="305" cy="224" r="11" fill="#0E0000"/><path fill="#FA0" stroke="#000" stroke-width="3" d="M282.5 304.5c17.275 0 31-15.609 31-34.5s-13.725-34.5-31-34.5-31 15.609-31 34.5 13.725 34.5 31 34.5z"/></g><defs><clipPath id="a"><path fill="#fff" d="M196 193h172v170H196z"/></clipPath></defs></svg>