<svg width="554" height="488" viewBox="0 0 554 488" fill="none" xmlns="http://www.w3.org/2000/svg">
<path d="M278.054 37.567L119.611 59.8347C97.7343 62.9092 82.4924 83.1359 85.5669 105.012L124.535 382.287C127.61 404.164 147.837 419.406 169.713 416.331L328.156 394.063C350.032 390.989 365.274 370.762 362.2 348.886L323.231 71.6108C320.157 49.7344 299.93 34.4924 278.054 37.567Z" fill="white" stroke="black" stroke-width="2"/>
<path d="M280.837 57.3723L122.394 79.64C111.456 81.1773 103.835 91.2906 105.372 102.229L144.341 379.504C145.878 390.442 155.991 398.063 166.93 396.526L325.372 374.258C336.311 372.721 343.932 362.607 342.394 351.669L303.426 74.3942C301.889 63.456 291.775 55.835 280.837 57.3723Z" fill="#55AA55"/>
<path fill-rule="evenodd" clip-rule="evenodd" d="M269.382 119.572C181.876 131.87 120.909 212.777 133.207 300.282C136.281 322.159 156.508 337.401 178.385 334.326C265.89 322.028 326.858 241.121 314.56 153.616C311.485 131.739 291.258 116.497 269.382 119.572Z" fill="white"/>
<path d="M215.533 167.533C199.126 169.839 187.694 185.009 190 201.416L209.805 198.633C209.037 193.164 212.847 188.107 218.316 187.338C223.785 186.57 228.842 190.38 229.611 195.849C230.379 201.318 226.569 206.375 221.1 207.144L209.217 208.814L212 228.619L223.883 226.949C234.855 225.407 244.93 232.999 246.472 243.971C248.014 254.943 240.422 265.018 229.45 266.56C218.478 268.102 208.403 260.51 206.861 249.538L187.056 252.321C190.14 274.266 210.289 289.449 232.234 286.365C254.178 283.281 269.362 263.132 266.277 241.188C264.444 228.14 256.546 217.592 245.856 211.743C248.927 206.233 250.362 199.794 249.416 193.066C247.11 176.659 231.94 165.227 215.533 167.533Z" fill="#55AA55"/>
<path d="M133.689 88.151C125.485 89.3039 119.769 96.8889 120.922 105.093L130.825 103.701C130.44 100.966 132.346 98.4379 135.08 98.0536C137.815 97.6693 140.343 99.5745 140.727 102.309C141.112 105.044 139.207 107.572 136.472 107.956L130.53 108.791L131.922 118.694L137.864 117.859C143.35 117.088 148.387 120.884 149.158 126.37C149.929 131.856 146.133 136.893 140.647 137.664C135.161 138.435 130.124 134.639 129.353 129.153L119.45 130.545C120.992 141.517 131.067 149.109 142.039 147.567C153.011 146.025 160.603 135.95 159.061 124.978C158.144 118.454 154.195 113.18 148.85 110.256C150.385 107.501 151.103 104.282 150.63 100.917C149.477 92.7137 141.892 86.998 133.689 88.151Z" fill="white"/>
<path d="M314.078 365.747C322.282 364.594 327.997 357.009 326.844 348.806L316.942 350.197C317.326 352.932 315.421 355.46 312.686 355.845C309.952 356.229 307.423 354.324 307.039 351.589C306.655 348.855 308.56 346.326 311.295 345.942L317.236 345.107L315.844 335.204L309.903 336.039C304.417 336.81 299.379 333.014 298.608 327.528C297.837 322.042 301.633 317.005 307.119 316.234C312.605 315.463 317.643 319.259 318.414 324.745L328.316 323.353C326.774 312.381 316.7 304.789 305.728 306.331C294.755 307.873 287.164 317.948 288.706 328.92C289.623 335.444 293.572 340.718 298.917 343.642C297.381 346.397 296.664 349.616 297.136 352.981C298.289 361.184 305.874 366.9 314.078 365.747Z" fill="white"/>
<path d="M454.156 60.8346L295.713 38.5669C273.837 35.4924 253.61 50.7343 250.535 72.6107L211.567 349.886C208.492 371.762 223.734 391.989 245.611 395.063L404.054 417.331C425.93 420.406 446.157 405.164 449.231 383.287L488.2 106.012C491.274 84.1359 476.032 63.9091 454.156 60.8346Z" fill="white" stroke="black" stroke-width="2"/>
<path d="M451.372 80.64L292.93 58.3723C281.991 56.835 271.878 64.456 270.341 75.3942L231.372 352.669C229.835 363.607 237.456 373.721 248.394 375.258L406.837 397.526C417.775 399.063 427.889 391.442 429.426 380.504L468.394 103.229C469.932 92.2906 462.311 82.1773 451.372 80.64Z" fill="#FFAA00"/>
<path fill-rule="evenodd" clip-rule="evenodd" d="M423.217 137.273C335.711 124.975 254.804 185.942 242.506 273.448C239.432 295.324 254.674 315.551 276.55 318.625C364.056 330.924 444.962 269.956 457.261 182.45C460.335 160.574 445.093 140.347 423.217 137.273Z" fill="white"/>
<path d="M353.481 167.865L303.528 241.631L300.745 261.436L348.277 268.116L345.494 287.922L365.299 290.705L368.083 270.9L379.966 272.57L382.75 252.765L370.866 251.095L376.433 211.484L356.628 208.7L351.061 248.311L324.126 244.526L374.078 170.76L353.481 167.865Z" fill="#FFAA00"/>
<path d="M300.648 69.5554L275.672 106.438L274.28 116.341L298.047 119.681L296.655 129.584L306.558 130.976L307.95 121.073L313.891 121.908L315.283 112.005L309.341 111.17L312.125 91.3648L302.222 89.9731L299.439 109.778L285.971 107.886L310.947 71.0028L300.648 69.5554Z" fill="white"/>
<path d="M398.326 386.231L423.302 349.348L424.694 339.446L400.928 336.105L402.319 326.203L392.417 324.811L391.025 334.714L385.083 333.879L383.692 343.781L389.633 344.617L386.85 364.422L396.752 365.813L399.536 346.008L413.003 347.901L388.027 384.784L398.326 386.231Z" fill="white"/>
<path d="M192.252 84.0255L38.4505 128.127C17.2149 134.217 4.93628 156.368 11.0255 177.603L88.204 446.757C94.2932 467.992 116.444 480.271 137.68 474.182L291.482 430.08C312.717 423.99 324.996 401.839 318.907 380.604L241.728 111.45C235.639 90.2148 213.488 77.9363 192.252 84.0255Z" fill="white" stroke="black" stroke-width="2"/>
<path d="M197.765 103.251L43.9632 147.353C33.3454 150.397 27.2061 161.473 30.2507 172.091L107.429 441.244C110.474 451.862 121.549 458.001 132.167 454.956L285.969 410.854C296.587 407.81 302.726 396.734 299.682 386.116L222.503 116.963C219.458 106.345 208.383 100.206 197.765 103.251Z" fill="black"/>
<path fill-rule="evenodd" clip-rule="evenodd" d="M195.078 166.439C110.136 190.796 61.0213 279.401 85.3782 364.343C91.4674 385.579 113.619 397.857 134.854 391.768C219.797 367.411 268.911 278.807 244.554 193.864C238.465 172.629 216.314 160.35 195.078 166.439Z" fill="white"/>
<path d="M84.7856 146.05L76.9703 189.903L79.7267 199.516L102.797 192.9L105.553 202.513L115.166 199.757L112.41 190.144L118.177 188.49L115.421 178.878L109.653 180.531L104.14 161.306L94.5279 164.063L100.041 183.288L86.9673 187.036L94.7827 143.183L84.7856 146.05Z" fill="white"/>
<path fill-rule="evenodd" clip-rule="evenodd" d="M46.4648 177.844L49.2211 187.457L39.6085 190.213L42.3648 199.826L51.9774 197.069L54.7339 206.682L64.3465 203.926L61.5901 194.313L71.2027 191.557L68.4464 181.944L58.8337 184.701L56.0774 175.088L46.4648 177.844Z" fill="white"/>
<path d="M245.147 412.157L252.962 368.304L250.206 358.692L227.135 365.307L224.379 355.694L214.766 358.451L217.523 368.063L211.755 369.717L214.511 379.33L220.279 377.676L225.792 396.901L235.404 394.145L229.892 374.919L242.965 371.171L235.15 415.024L245.147 412.157Z" fill="white"/>
<path fill-rule="evenodd" clip-rule="evenodd" d="M283.467 380.363L280.711 370.75L290.324 367.994L287.567 358.381L277.955 361.138L275.198 351.525L265.586 354.281L268.342 363.894L258.73 366.651L261.486 376.263L271.098 373.507L273.855 383.119L283.467 380.363Z" fill="white"/>
<path d="M153.931 230.252L115.48 241.278C110.171 242.8 105.872 248.239 105.876 253.426L105.948 328.245C105.953 333.431 110.26 336.402 115.569 334.879L154.02 323.854C159.329 322.332 163.628 316.893 163.623 311.706L163.552 236.887C163.547 231.701 159.24 228.73 153.931 230.252Z" fill="white" stroke="black" stroke-width="2.03962"/>
<path d="M144.328 243.409L125.103 248.922C119.794 250.444 115.494 255.883 115.499 261.069L115.55 315.088C115.555 320.275 119.863 323.245 125.172 321.723L144.397 316.21C149.706 314.688 154.006 309.249 154.001 304.063L153.95 250.044C153.945 244.857 149.637 241.887 144.328 243.409Z" fill="#E80000"/>
<path d="M184.112 190.389L145.662 201.415C140.353 202.937 136.053 208.376 136.058 213.562L136.129 288.381C136.134 293.568 140.442 296.538 145.751 295.016L184.201 283.991C189.51 282.468 193.81 277.03 193.805 271.843L193.734 197.024C193.729 191.837 189.421 188.867 184.112 190.389Z" fill="white" stroke="black" stroke-width="2.03962"/>
<path d="M174.509 203.546L155.284 209.059C149.975 210.581 145.675 216.02 145.68 221.206L145.732 275.225C145.737 280.411 150.045 283.382 155.353 281.86L174.579 276.347C179.887 274.825 184.187 269.386 184.182 264.199L184.131 210.181C184.126 204.994 179.818 202.024 174.509 203.546Z" fill="#5555FF"/>
<path d="M191.038 250.821L152.587 261.847C147.278 263.369 142.979 268.808 142.983 273.994L143.055 348.813C143.06 354 147.367 356.97 152.676 355.448L191.127 344.423C196.436 342.9 200.735 337.462 200.73 332.275L200.659 257.456C200.654 252.269 196.347 249.299 191.038 250.821Z" fill="white" stroke="black" stroke-width="2.03962"/>
<path d="M181.435 263.978L162.21 269.491C156.901 271.013 152.601 276.452 152.606 281.638L152.657 335.657C152.662 340.844 156.97 343.814 162.279 342.292L181.504 336.779C186.813 335.257 191.113 329.818 191.108 324.631L191.056 270.613C191.052 265.426 186.744 262.456 181.435 263.978Z" fill="#FFAA00"/>
<path d="M221.219 210.958L182.769 221.984C177.46 223.506 173.16 228.945 173.165 234.131L173.236 308.95C173.241 314.137 177.549 317.108 182.858 315.585L221.308 304.56C226.617 303.037 230.917 297.599 230.912 292.412L230.841 217.593C230.836 212.407 226.528 209.436 221.219 210.958Z" fill="white" stroke="black" stroke-width="2.03962"/>
<path d="M211.616 224.115L192.391 229.628C187.082 231.15 182.783 236.589 182.787 241.775L182.839 295.794C182.844 300.98 187.152 303.951 192.46 302.429L211.686 296.916C216.995 295.394 221.294 289.955 221.289 284.768L221.238 230.75C221.233 225.563 216.925 222.593 211.616 224.115Z" fill="#55AA55"/>
<path d="M515.482 130.127L361.68 86.0255C340.444 79.9363 318.293 92.2149 312.204 113.45L235.025 382.604C228.936 403.839 241.215 425.99 262.45 432.08L416.252 476.182C437.488 482.271 459.639 469.992 465.728 448.757L542.907 179.603C548.996 158.368 536.717 136.217 515.482 130.127Z" fill="white" stroke="black" stroke-width="2"/>
<path d="M509.969 149.353L356.167 105.251C345.549 102.206 334.474 108.345 331.429 118.963L254.251 388.116C251.206 398.734 257.345 409.81 267.963 412.854L421.765 456.956C432.383 460.001 443.458 453.862 446.503 443.244L523.682 174.091C526.726 163.473 520.587 152.397 509.969 149.353Z" fill="black"/>
<path fill-rule="evenodd" clip-rule="evenodd" d="M474.206 201.516C389.263 177.159 300.659 226.273 276.302 311.216C270.212 332.451 282.491 354.602 303.727 360.691C388.669 385.048 477.274 335.934 501.631 250.992C507.72 229.756 495.441 207.605 474.206 201.516Z" fill="white"/>
<path fill-rule="evenodd" clip-rule="evenodd" d="M304.135 256.779C291.802 272.531 282.155 290.802 276.302 311.215C270.212 332.451 282.491 354.602 303.727 360.691L388.966 281.104L304.135 256.779Z" fill="#FFAA00"/>
<path fill-rule="evenodd" clip-rule="evenodd" d="M388.966 281.104L303.727 360.691C368.255 379.195 434.814 355.223 473.797 305.429L388.966 281.104Z" fill="#55AA55"/>
<path fill-rule="evenodd" clip-rule="evenodd" d="M474.206 201.516C409.677 183.012 343.118 206.984 304.135 256.779L388.966 281.104L474.206 201.516Z" fill="#E80000"/>
<path fill-rule="evenodd" clip-rule="evenodd" d="M474.206 201.516L388.966 281.104L473.797 305.429C486.13 289.676 495.777 271.406 501.631 250.992C507.72 229.756 495.441 207.605 474.206 201.516Z" fill="#5555FF"/>
<path fill-rule="evenodd" clip-rule="evenodd" d="M339.731 136.948C336.648 140.886 334.236 145.454 332.773 150.557C331.25 155.866 334.32 161.404 339.629 162.926L360.939 143.029L339.731 136.948Z" fill="#FFAA00"/>
<path fill-rule="evenodd" clip-rule="evenodd" d="M360.939 143.029L339.629 162.926C355.761 167.552 372.401 161.559 382.147 149.11L360.939 143.029Z" fill="#55AA55"/>
<path fill-rule="evenodd" clip-rule="evenodd" d="M382.249 123.132C366.117 118.506 349.477 124.499 339.731 136.948L360.939 143.029L382.249 123.132Z" fill="#E80000"/>
<path fill-rule="evenodd" clip-rule="evenodd" d="M382.249 123.132L360.939 143.029L382.147 149.11C385.23 145.172 387.642 140.605 389.105 135.501C390.627 130.192 387.558 124.655 382.249 123.132Z" fill="#5555FF"/>
<path fill-rule="evenodd" clip-rule="evenodd" d="M395.786 413.096C392.703 417.034 390.291 421.602 388.827 426.706C387.305 432.014 390.375 437.552 395.684 439.075L416.994 419.178L395.786 413.096Z" fill="#FFAA00"/>
<path fill-rule="evenodd" clip-rule="evenodd" d="M416.994 419.178L395.684 439.075C411.816 443.7 428.456 437.707 438.201 425.259L416.994 419.178Z" fill="#55AA55"/>
<path fill-rule="evenodd" clip-rule="evenodd" d="M438.303 399.281C422.171 394.655 405.531 400.648 395.786 413.096L416.994 419.178L438.303 399.281Z" fill="#E80000"/>
<path fill-rule="evenodd" clip-rule="evenodd" d="M438.303 399.281L416.994 419.178L438.201 425.259C441.284 421.321 443.696 416.753 445.16 411.65C446.682 406.341 443.612 400.803 438.303 399.281Z" fill="#5555FF"/>
<path d="M474.206 201.516C409.677 183.012 343.118 206.984 304.135 256.778C291.802 272.531 282.155 290.801 276.302 311.215C270.213 332.451 282.491 354.602 303.727 360.691C368.255 379.195 434.815 355.223 473.797 305.428C486.13 289.676 495.777 271.405 501.631 250.992C507.72 229.756 495.441 207.605 474.206 201.516Z" stroke="white" stroke-width="4"/>
<path d="M382.249 123.132C366.117 118.507 349.477 124.499 339.731 136.948C336.648 140.886 334.236 145.454 332.773 150.557C331.25 155.866 334.32 161.404 339.629 162.926C355.761 167.552 372.401 161.559 382.147 149.111C385.23 145.172 387.641 140.605 389.105 135.501C390.627 130.192 387.558 124.655 382.249 123.132Z" stroke="white" stroke-width="4"/>
<path d="M438.303 399.281C422.171 394.655 405.531 400.648 395.786 413.096C392.702 417.035 390.291 421.602 388.827 426.706C387.305 432.015 390.375 437.552 395.684 439.075C411.816 443.7 428.456 437.707 438.201 425.259C441.284 421.321 443.696 416.753 445.16 411.65C446.682 406.341 443.612 400.803 438.303 399.281Z" stroke="white" stroke-width="4"/>
<path d="M362 98H202C179.909 98 162 115.909 162 138V418C162 440.091 179.909 458 202 458H362C384.091 458 402 440.091 402 418V138C402 115.909 384.091 98 362 98Z" fill="white" stroke="black" stroke-width="2"/>
<path d="M362 118H202C190.954 118 182 126.954 182 138V418C182 429.046 190.954 438 202 438H362C373.046 438 382 429.046 382 418V138C382 126.954 373.046 118 362 118Z" fill="#E80000"/>
<g clip-path="url(#clip0_19_66)">
<path opacity="0.941" d="M367.765 304.842V300.604C366.935 298.821 366.23 296.938 365.65 294.953C364.243 292.927 362.598 292.613 360.716 294.011C361.715 295.621 362.655 297.269 363.536 298.956C361.271 302.325 358.295 304.836 354.607 306.49C347.947 307.921 341.368 307.529 334.869 305.313C334.773 306.203 335.086 306.909 335.809 307.432C337.062 308.06 338.315 308.688 339.568 309.316C338.79 310.177 337.85 310.805 336.749 311.199C332.442 311.812 328.291 311.263 324.295 309.551C323.694 309.604 323.302 309.919 323.12 310.493C324.475 311.722 326.042 312.585 327.82 313.083C325.362 313.948 322.856 313.948 320.301 313.083C317.372 312.125 314.474 311.104 311.607 310.022C310.851 310.149 310.303 310.542 309.962 311.199C310.673 311.877 310.83 312.583 310.432 313.319C306.215 315.098 301.829 315.647 297.273 314.967C292.673 313.692 288.052 312.514 283.41 311.435C278.363 312.126 273.429 313.303 268.607 314.967C264.859 315.527 261.1 315.683 257.328 315.438C255.212 315.406 253.253 314.856 251.454 313.789C252.077 312.503 252.782 311.169 253.568 309.787C253.507 309.288 253.272 308.896 252.863 308.609C248.006 310.441 243.072 312.089 238.06 313.554C236.18 313.868 234.301 313.868 232.421 313.554L231.951 313.083C233.136 312.839 234.076 312.211 234.77 311.199C234.457 310.885 234.144 310.572 233.831 310.258C231.481 310.101 229.131 309.944 226.781 309.787C224.7 309.458 222.821 308.674 221.142 307.432C222.333 307.189 223.351 306.64 224.197 305.784C224.407 304.885 224.016 304.335 223.022 304.136C218.607 303.913 214.221 303.442 209.863 302.723C206.856 301.85 204.349 300.28 202.344 298.014C202.802 296.874 203.115 295.696 203.284 294.482C202.13 292.167 200.642 292.01 198.82 294.011C196.391 299.019 195.843 304.199 197.175 309.551H199.055C199.268 306.908 199.894 304.397 200.934 302.017C202.627 303.474 204.506 304.651 206.574 305.548C210.204 306.576 213.807 307.674 217.382 308.845C219.987 311.611 222.415 314.515 224.667 317.557C229.72 325.33 234.889 333.021 240.175 340.632C249.12 353 261.104 360.377 276.126 362.765C291.147 365.152 314.802 353.847 321.24 345.105C327.679 336.363 333.71 327.338 339.333 318.028C341.132 315.755 343.09 313.635 345.208 311.67C353.249 312.389 359.593 309.484 364.24 302.958C364.476 304.847 364.711 306.73 364.945 308.609C365.498 308.713 365.967 308.556 366.355 308.139C366.901 307.015 367.371 305.916 367.765 304.842Z" fill="black"/>
<path d="M308 254.5C323.815 254.5 336.5 240.991 336.5 224.5C336.5 208.009 323.815 194.5 308 194.5C292.185 194.5 279.5 208.009 279.5 224.5C279.5 240.991 292.185 254.5 308 254.5Z" fill="white" stroke="black" stroke-width="3"/>
<path d="M255 254.5C270.815 254.5 283.5 240.991 283.5 224.5C283.5 208.009 270.815 194.5 255 194.5C239.185 194.5 226.5 208.009 226.5 224.5C226.5 240.991 239.185 254.5 255 254.5Z" fill="white" stroke="black" stroke-width="3"/>
<circle cx="259" cy="224" r="11" fill="#0E0000"/>
<circle cx="305" cy="224" r="11" fill="#0E0000"/>
<path d="M282.5 304.5C299.775 304.5 313.5 288.891 313.5 270C313.5 251.109 299.775 235.5 282.5 235.5C265.225 235.5 251.5 251.109 251.5 270C251.5 288.891 265.225 304.5 282.5 304.5Z" fill="#FFAA00" stroke="black" stroke-width="3"/>
</g>
<defs>
<clipPath id="clip0_19_66">
<rect width="172" height="170" fill="white" transform="translate(196 193)"/>
</clipPath>
</defs>
</svg>
